NotoSans-CondensedLightItalic.ufo
<glyph name="hyphen" format="2">
  <advance width="262"/>
  <unicode hex="002D"/>
  <outline>
    <contour>
      <point x="24" y="259" type="line"/>
      <point x="235" y="259" type="line"/>
      <point x="235" y="284" type="line"/>
      <point x="24" y="284" type="line"/>
    </contour>
  </outline>
</glyph>
<glyph name="period" format="2">
  <advance width="154"/>
  <unicode hex="002E"/>
  <outline>
    <contour>
      <point x="34" y="-1" type="curve" smooth="yes"/>
      <point x="54" y="-1"/>
      <point x="63" y="26"/>
      <point x="63" y="43" type="curve" smooth="yes"/>
      <point x="63" y="60"/>
      <point x="56" y="68"/>
      <point x="45" y="68" type="curve" smooth="yes"/>
      <point x="25" y="68"/>
      <point x="16" y="42"/>
      <point x="16" y="23" type="curve" smooth="yes"/>
      <point x="16" y="8"/>
      <point x="23" y="-1"/>
    </contour>
  </outline>
</glyph>
<glyph name="slash" format="2">
  <advance width="292"/>
  <unicode hex="002F"/>
  <outline>
    <contour>
      <point x="-45" y="2" type="line"/>
      <point x="-19" y="2" type="line"/>
      <point x="358" y="712" type="line"/>
      <point x="332" y="712" type="line"/>
    </contour>
  </outline>
</glyph>
<glyph name="one" format="2">
  <advance width="343"/>
  <unicode hex="0031"/>
  <outline>
    <contour>
      <point x="105" y="0" type="line"/>
      <point x="131" y="0" type="line"/>
      <point x="282" y="714" type="line"/>
      <point x="254" y="714" type="line"/>
      <point x="114" y="601" type="line"/>
      <point x="130" y="583" type="line"/>
      <point x="220" y="656" type="line" smooth="yes"/>
      <point x="233" y="666"/>
      <point x="242" y="675"/>
      <point x="251" y="684" type="curve"/>
      <point x="243" y="653"/>
      <point x="238" y="630"/>
      <point x="233" y="606" type="curve" smooth="yes"/>
    </contour>
  </outline>
</glyph>
<glyph name="seven" format="2">
  <advance width="343"/>
  <unicode hex="0037"/>
  <outline>
    <contour>
      <point x="37" y="0" type="line"/>
      <point x="66" y="0" type="line"/>
      <point x="379" y="689" type="line"/>
      <point x="380" y="714" type="line"/>
      <point x="99" y="714" type="line"/>
      <point x="94" y="689" type="line"/>
      <point x="351" y="689" type="line"/>
    </contour>
  </outline>
</glyph>
<glyph name="colon" format="2">
  <advance width="153"/>
  <unicode hex="003A"/>
  <outline>
    <contour>
      <point x="118" y="460" type="curve" smooth="yes"/>
      <point x="138" y="460"/>
      <point x="147" y="487"/>
      <point x="147" y="504" type="curve" smooth="yes"/>
      <point x="147" y="521"/>
      <point x="140" y="529"/>
      <point x="129" y="529" type="curve" smooth="yes"/>
      <point x="109" y="529"/>
      <point x="100" y="503"/>
      <point x="100" y="484" type="curve" smooth="yes"/>
      <point x="100" y="469"/>
      <point x="107" y="460"/>
    </contour>
    <contour>
      <point x="20" y="-1" type="curve" smooth="yes"/>
      <point x="40" y="-1"/>
      <point x="49" y="26"/>
      <point x="49" y="43" type="curve" smooth="yes"/>
      <point x="49" y="60"/>
      <point x="42" y="68"/>
      <point x="31" y="68" type="curve" smooth="yes"/>
      <point x="11" y="68"/>
      <point x="2" y="42"/>
      <point x="2" y="23" type="curve" smooth="yes"/>
      <point x="2" y="8"/>
      <point x="9" y="-1"/>
    </contour>
  </outline>
</glyph>
<glyph name="equal" format="2">
  <advance width="399"/>
  <unicode hex="003D"/>
  <outline>
    <contour>
      <point x="29" y="447" type="line"/>
      <point x="369" y="447" type="line"/>
      <point x="369" y="473" type="line"/>
      <point x="29" y="473" type="line"/>
    </contour>
    <contour>
      <point x="29" y="232" type="line"/>
      <point x="369" y="232" type="line"/>
      <point x="369" y="258" type="line"/>
      <point x="29" y="258" type="line"/>
    </contour>
  </outline>
</glyph>
<glyph name="K" format="2">
  <advance width="346"/>
  <unicode hex="004B"/>
  <anchor x="117" y="0" name="bottom"/>
  <anchor x="269" y="714" name="top"/>
  <anchor x="422" y="714" name="topright"/>
  <outline>
    <contour>
      <point x="2" y="0" type="line"/>
      <point x="28" y="0" type="line"/>
      <point x="88" y="282" type="line"/>
      <point x="165" y="377" type="line"/>
      <point x="249" y="0" type="line"/>
      <point x="278" y="0" type="line"/>
      <point x="186" y="400" type="line"/>
      <point x="418" y="714" type="line"/>
      <point x="386" y="714" type="line"/>
      <point x="165" y="414" type="line"/>
      <point x="96" y="318" type="line"/>
      <point x="180" y="714" type="line"/>
      <point x="154" y="714" type="line"/>
    </contour>
  </outline>
</glyph>
<glyph name="bracketleft" format="2">
  <advance width="274"/>
  <unicode hex="005B"/>
  <outline>
    <contour>
      <point x="-17" y="-158" type="line"/>
      <point x="149" y="-158" type="line"/>
      <point x="154" y="-134" type="line"/>
      <point x="13" y="-134" type="line"/>
      <point x="189" y="690" type="line"/>
      <point x="330" y="690" type="line"/>
      <point x="335" y="714" type="line"/>
      <point x="169" y="714" type="line"/>
    </contour>
  </outline>
</glyph>
<glyph name="backslash" format="2">
  <advance width="319"/>
  <unicode hex="005C"/>
  <outline>
    <contour>
      <point x="207" y="0" type="line"/>
      <point x="234" y="0" type="line"/>
      <point x="128" y="714" type="line"/>
      <point x="103" y="714" type="line"/>
    </contour>
  </outline>
</glyph>
<glyph name="asciicircum" format="2">
  <advance width="391"/>
  <unicode hex="005E"/>
  <outline>
    <contour>
      <point x="25" y="372" type="line"/>
      <point x="56" y="372" type="line"/>
      <point x="211" y="681" type="line"/>
      <point x="353" y="372" type="line"/>
      <point x="385" y="372" type="line"/>
      <point x="224" y="713" type="line"/>
      <point x="200" y="713" type="line"/>
    </contour>
  </outline>
</glyph>
<glyph name="l" format="2">
  <advance width="148"/>
  <unicode hex="006C"/>
  <anchor x="18" y="0" name="bottom"/>
  <anchor x="74" y="263" name="center"/>
  <anchor x="180" y="760" name="top"/>
  <anchor x="234" y="760" name="topright"/>
  <outline>
    <contour>
      <point x="5" y="0" type="line"/>
      <point x="31" y="0" type="line"/>
      <point x="193" y="760" type="line"/>
      <point x="167" y="760" type="line"/>
    </contour>
  </outline>
</glyph>
<glyph name="bar" format="2">
  <advance width="343"/>
  <unicode hex="007C"/>
  <outline>
    <contour>
      <point x="156" y="-244" type="line"/>
      <point x="182" y="-244" type="line"/>
      <point x="182" y="761" type="line"/>
      <point x="156" y="761" type="line"/>
    </contour>
  </outline>
</glyph>
<glyph name="brokenbar" format="2">
  <advance width="342"/>
  <unicode hex="00A6"/>
  <outline>
    <contour>
      <point x="155" y="377" type="line"/>
      <point x="182" y="377" type="line"/>
      <point x="182" y="758" type="line"/>
      <point x="155" y="758" type="line"/>
    </contour>
    <contour>
      <point x="155" y="-242" type="line"/>
      <point x="182" y="-242" type="line"/>
      <point x="182" y="139" type="line"/>
      <point x="155" y="139" type="line"/>
    </contour>
  </outline>
</glyph>
<glyph name="plusminus" format="2">
  <advance width="399"/>
  <unicode hex="00B1"/>
  <outline>
    <contour>
      <point x="36" y="1" type="line"/>
      <point x="363" y="1" type="line"/>
      <point x="363" y="27" type="line"/>
      <point x="36" y="27" type="line"/>
    </contour>
    <component base="plus"/>
  </outline>
</glyph>
<glyph name="acute" format="2">
  <advance width="201"/>
  <unicode hex="00B4"/>
  <anchor x="140" y="530" name="_top"/>
  <outline>
    <contour>
      <point x="116" y="606" type="line"/>
      <point x="126" y="606" type="line"/>
      <point x="173" y="640"/>
      <point x="238" y="715"/>
      <point x="266" y="758" type="curve"/>
      <point x="266" y="766" type="line"/>
      <point x="236" y="766" type="line"/>
      <point x="214" y="725"/>
      <point x="165" y="662"/>
      <point x="115" y="614" type="curve"/>
    </contour>
  </outline>
</glyph>
<glyph name="onesuperior" format="2">
  <advance width="264"/>
  <unicode hex="00B9"/>
  <outline>
    <contour>
      <point x="147" y="416" type="line"/>
      <point x="173" y="416" type="line"/>
      <point x="265" y="844" type="line"/>
      <point x="236" y="844" type="line"/>
      <point x="120" y="762" type="line"/>
      <point x="132" y="742" type="line"/>
      <point x="197" y="787" type="line" smooth="yes"/>
      <point x="209" y="795"/>
      <point x="219" y="803"/>
      <point x="234" y="817" type="curve"/>
      <point x="231" y="804"/>
      <point x="227" y="791"/>
      <point x="224" y="775" type="curve" smooth="yes"/>
    </contour>
  </outline>
</glyph>
<glyph name="eogonek" format="2">
  <advance width="326"/>
  <unicode hex="0119"/>
  <anchor x="66" y="-195" name="bottom"/>
  <anchor x="219" y="526" name="top"/>
  <anchor x="362" y="526" name="topright"/>
  <outline>
    <contour>
      <point x="173" y="-195" type="curve" smooth="yes"/>
      <point x="190" y="-195"/>
      <point x="203" y="-192"/>
      <point x="212" y="-187" type="curve"/>
      <point x="218" y="-166" type="line"/>
      <point x="207" y="-168"/>
      <point x="197" y="-170"/>
      <point x="187" y="-170" type="curve" smooth="yes"/>
      <point x="161" y="-170"/>
      <point x="148" y="-156"/>
      <point x="148" y="-127" type="curve" smooth="yes"/>
      <point x="148" y="-80"/>
      <point x="177" y="-33"/>
      <point x="227" y="16" type="curve"/>
      <point x="211" y="19" type="line"/>
      <point x="134" y="-39"/>
      <point x="116" y="-80"/>
      <point x="116" y="-128" type="curve" smooth="yes"/>
      <point x="116" y="-167"/>
      <point x="136" y="-195"/>
    </contour>
    <component base="e"/>
  </outline>
</glyph>
<glyph name="idotless" format="2">
  <advance width="155"/>
  <unicode hex="0131"/>
  <anchor x="22" y="0" name="bottom"/>
  <anchor x="134" y="526" name="top"/>
  <outline>
    <contour>
      <point x="6" y="0" type="line"/>
      <point x="31" y="0" type="line"/>
      <point x="143" y="526" type="line"/>
      <point x="118" y="526" type="line"/>
    </contour>
  </outline>
</glyph>
<glyph name="uni018E" format="2">
  <advance width="333"/>
  <unicode hex="018E"/>
  <anchor x="111" y="0" name="bottom"/>
  <anchor x="263" y="714" name="top"/>
  <outline>
    <contour>
      <point x="-36" y="0" type="line"/>
      <point x="189" y="0" type="line"/>
      <point x="341" y="714" type="line"/>
      <point x="116" y="714" type="line"/>
      <point x="111" y="689" type="line"/>
      <point x="310" y="689" type="line"/>
      <point x="247" y="389" type="line"/>
      <point x="61" y="389" type="line"/>
      <point x="55" y="364" type="line"/>
      <point x="241" y="364" type="line"/>
      <point x="168" y="25" type="line"/>
      <point x="-31" y="25" type="line"/>
    </contour>
  </outline>
</glyph>
<glyph name="uni0191" format="2">
  <advance width="449"/>
  <unicode hex="0191"/>
  <anchor x="50" y="0" name="bottom"/>
  <anchor x="378" y="714" name="top"/>
  <anchor x="524" y="714" name="topright"/>
  <outline>
    <contour>
      <point x="65" y="-11" type="curve" smooth="yes"/>
      <point x="133" y="-11"/>
      <point x="172" y="35"/>
      <point x="191" y="124" type="curve" smooth="yes"/>
      <point x="242" y="363" type="line"/>
      <point x="430" y="363" type="line"/>
      <point x="435" y="388" type="line"/>
      <point x="247" y="388" type="line"/>
      <point x="312" y="689" type="line"/>
      <point x="512" y="689" type="line"/>
      <point x="517" y="714" type="line"/>
      <point x="291" y="714" type="line"/>
      <point x="166" y="125" type="line" smooth="yes"/>
      <point x="150" y="49"/>
      <point x="117" y="14"/>
      <point x="65" y="14" type="curve" smooth="yes"/>
      <point x="6" y="14"/>
      <point x="-26" y="56"/>
      <point x="-26" y="120" type="curve" smooth="yes"/>
      <point x="-26" y="144"/>
      <point x="-21" y="164"/>
      <point x="-16" y="175" type="curve"/>
      <point x="-39" y="183" type="line"/>
      <point x="-45" y="168"/>
      <point x="-51" y="149"/>
      <point x="-51" y="120" type="curve" smooth="yes"/>
      <point x="-51" y="46"/>
      <point x="-16" y="-11"/>
    </contour>
  </outline>
</glyph>
<glyph name="florin" format="2">
  <advance width="318"/>
  <unicode hex="0192"/>
  <anchor x="69" y="0" name="bottom"/>
  <anchor x="393" y="765" name="top"/>
  <anchor x="425" y="765" name="topright"/>
  <outline>
    <contour>
      <point x="73" y="-10" type="curve" smooth="yes"/>
      <point x="144" y="-10"/>
      <point x="179" y="33"/>
      <point x="198" y="121" type="curve" smooth="yes"/>
      <point x="279" y="501" type="line"/>
      <point x="348" y="501" type="line"/>
      <point x="353" y="526" type="line"/>
      <point x="284" y="526" type="line"/>
      <point x="306" y="627" type="line" smooth="yes"/>
      <point x="322" y="699"/>
      <point x="339" y="740"/>
      <point x="386" y="740" type="curve" smooth="yes"/>
      <point x="401" y="740"/>
      <point x="416" y="736"/>
      <point x="426" y="731" type="curve"/>
      <point x="436" y="755" type="line"/>
      <point x="427" y="759"/>
      <point x="406" y="765"/>
      <point x="390" y="765" type="curve" smooth="yes"/>
      <point x="328" y="765"/>
      <point x="302" y="723"/>
      <point x="282" y="635" type="curve" smooth="yes"/>
      <point x="258" y="527" type="line"/>
      <point x="197" y="521" type="line"/>
      <point x="193" y="501" type="line"/>
      <point x="253" y="501" type="line"/>
      <point x="172" y="123" type="line" smooth="yes"/>
      <point x="157" y="53"/>
      <point x="129" y="15"/>
      <point x="73" y="15" type="curve" smooth="yes"/>
      <point x="17" y="15"/>
      <point x="-14" y="54"/>
      <point x="-14" y="111" type="curve" smooth="yes"/>
      <point x="-14" y="124"/>
      <point x="-12" y="136"/>
      <point x="-10" y="148" type="curve"/>
      <point x="-33" y="155" type="line"/>
      <point x="-37" y="140"/>
      <point x="-39" y="127"/>
      <point x="-39" y="111" type="curve" smooth="yes"/>
      <point x="-39" y="43"/>
      <point x="-4" y="-10"/>
    </contour>
  </outline>
</glyph>
<glyph name="uni01C0" format="2">
  <advance width="242"/>
  <unicode hex="01C0"/>
  <anchor x="65" y="0" name="bottom"/>
  <anchor x="226" y="758" name="top"/>
  <outline>
    <contour>
      <point x="52" y="0" type="line"/>
      <point x="78" y="0" type="line"/>
      <point x="239" y="758" type="line"/>
      <point x="213" y="758" type="line"/>
    </contour>
  </outline>
</glyph>
<glyph name="uni0220" format="2">
  <advance width="426"/>
  <unicode hex="0220"/>
  <anchor x="106" y="-240" name="bottom"/>
  <anchor x="309" y="714" name="top"/>
  <outline>
    <contour>
      <point x="211" y="-240" type="line"/>
      <point x="237" y="-240" type="line"/>
      <point x="395" y="501" type="line" smooth="yes"/>
      <point x="404" y="542"/>
      <point x="413" y="592"/>
      <point x="413" y="623" type="curve" smooth="yes"/>
      <point x="413" y="683"/>
      <point x="378" y="724"/>
      <point x="311" y="724" type="curve" smooth="yes"/>
      <point x="239" y="724"/>
      <point x="187" y="679"/>
      <point x="163" y="626" type="curve"/>
      <point x="161" y="626" type="line"/>
      <point x="177" y="714" type="line"/>
      <point x="156" y="714" type="line"/>
      <point x="6" y="0" type="line"/>
      <point x="32" y="0" type="line"/>
      <point x="132" y="475" type="line" smooth="yes"/>
      <point x="163" y="624"/>
      <point x="219" y="699"/>
      <point x="308" y="699" type="curve" smooth="yes"/>
      <point x="362" y="699"/>
      <point x="387" y="668"/>
      <point x="387" y="621" type="curve" smooth="yes"/>
      <point x="387" y="587"/>
      <point x="379" y="550"/>
      <point x="371" y="511" type="curve" smooth="yes"/>
    </contour>
  </outline>
</glyph>
<glyph name="uni023A" format="2">
  <advance width="326"/>
  <unicode hex="023A"/>
  <anchor x="107" y="0" name="bottom"/>
  <anchor x="241" y="714" name="top"/>
  <anchor x="402" y="714" name="topright"/>
  <outline>
    <contour>
      <point x="-32" y="-76" type="line"/>
      <point x="-6" y="-76" type="line"/>
      <point x="353" y="761" type="line"/>
      <point x="327" y="761" type="line"/>
    </contour>
    <component base="A"/>
  </outline>
</glyph>
<glyph name="uni023B" format="2">
  <advance width="337"/>
  <unicode hex="023B"/>
  <anchor x="113" y="0" name="bottom"/>
  <anchor x="265" y="714" name="top"/>
  <anchor x="413" y="714" name="topright"/>
  <outline>
    <contour>
      <point x="3" y="-76" type="line"/>
      <point x="29" y="-76" type="line"/>
      <point x="388" y="761" type="line"/>
      <point x="362" y="761" type="line"/>
    </contour>
    <component base="C"/>
  </outline>
</glyph>
<glyph name="uni023C" format="2">
  <advance width="269"/>
  <unicode hex="023C"/>
  <anchor x="48" y="-145" name="bottom"/>
  <anchor x="226" y="690" name="top"/>
  <anchor x="305" y="526" name="topright"/>
  <outline>
    <contour>
      <point x="23" y="-145" type="line"/>
      <point x="49" y="-145" type="line"/>
      <point x="303" y="690" type="line"/>
      <point x="277" y="690" type="line"/>
    </contour>
    <component base="c"/>
  </outline>
</glyph>
<glyph name="uni023E" format="2">
  <advance width="294"/>
  <unicode hex="023E"/>
  <anchor x="91" y="0" name="bottom"/>
  <anchor x="243" y="714" name="top"/>
  <anchor x="167" y="357" name="center"/>
  <anchor x="370" y="714" name="topright"/>
  <outline>
    <contour>
      <point x="-32" y="-76" type="line"/>
      <point x="-6" y="-76" type="line"/>
      <point x="353" y="761" type="line"/>
      <point x="327" y="761" type="line"/>
    </contour>
    <component base="T"/>
  </outline>
</glyph>
<glyph name="uni0241" format="2">
  <advance width="299"/>
  <unicode hex="0241"/>
  <anchor x="94" y="0" name="bottom"/>
  <anchor x="246" y="714" name="top"/>
  <outline>
    <contour>
      <point x="10" y="0" type="line"/>
      <point x="36" y="0" type="line"/>
      <point x="94" y="304" type="line"/>
      <point x="246" y="346"/>
      <point x="309" y="464"/>
      <point x="309" y="592" type="curve" smooth="yes"/>
      <point x="309" y="661"/>
      <point x="274" y="724"/>
      <point x="186" y="724" type="curve" smooth="yes"/>
      <point x="128" y="724"/>
      <point x="93" y="702"/>
      <point x="66" y="681" type="curve"/>
      <point x="80" y="663" type="line"/>
      <point x="107" y="684"/>
      <point x="137" y="699"/>
      <point x="184" y="699" type="curve" smooth="yes"/>
      <point x="249" y="699"/>
      <point x="282" y="656"/>
      <point x="282" y="588" type="curve" smooth="yes"/>
      <point x="282" y="463"/>
      <point x="219" y="361"/>
      <point x="71" y="322" type="curve"/>
    </contour>
  </outline>
</glyph>
<glyph name="uni0246" format="2">
  <advance width="338"/>
  <unicode hex="0246"/>
  <anchor x="113" y="0" name="bottom"/>
  <anchor x="265" y="714" name="top"/>
  <anchor x="414" y="714" name="topright"/>
  <outline>
    <contour>
      <point x="28" y="-76" type="line"/>
      <point x="54" y="-76" type="line"/>
      <point x="363" y="761" type="line"/>
      <point x="337" y="761" type="line"/>
    </contour>
    <component base="E"/>
  </outline>
</glyph>
<glyph name="uni024F" format="2">
  <advance width="294"/>
  <unicode hex="024F"/>
  <anchor x="39" y="-243" name="bottom"/>
  <anchor x="203" y="526" name="top"/>
  <anchor x="330" y="526" name="topright"/>
  <outline>
    <contour>
      <point x="12" y="266" type="line"/>
      <point x="290" y="266" type="line"/>
      <point x="296" y="290" type="line"/>
      <point x="18" y="290" type="line"/>
    </contour>
    <component base="y"/>
  </outline>
</glyph>
<glyph name="uni026A" format="2">
  <advance width="171"/>
  <unicode hex="026A"/>
  <anchor x="16" y="0" name="bottom"/>
  <anchor x="128" y="526" name="top"/>
  <outline>
    <contour>
      <point x="-58" y="0" type="line"/>
      <point x="84" y="0" type="line"/>
      <point x="88" y="19" type="line"/>
      <point x="31" y="22" type="line"/>
      <point x="133" y="503" type="line"/>
      <point x="192" y="507" type="line"/>
      <point x="196" y="526" type="line"/>
      <point x="54" y="526" type="line"/>
      <point x="50" y="507" type="line"/>
      <point x="108" y="503" type="line"/>
      <point x="6" y="22" type="line"/>
      <point x="-54" y="19" type="line"/>
    </contour>
  </outline>
</glyph>
<glyph name="uni026F" format="2">
  <advance width="543"/>
  <unicode hex="026F"/>
  <anchor x="216" y="0" name="bottom"/>
  <anchor x="328" y="526" name="top"/>
  <outline>
    <contour>
      <point x="103" y="-10" type="curve" smooth="yes"/>
      <point x="154" y="-10"/>
      <point x="191" y="17"/>
      <point x="212" y="61" type="curve"/>
      <point x="214" y="61" type="line"/>
      <point x="217" y="16"/>
      <point x="245" y="-10"/>
      <point x="294" y="-10" type="curve" smooth="yes"/>
      <point x="341" y="-10"/>
      <point x="379" y="19"/>
      <point x="403" y="71" type="curve"/>
      <point x="405" y="71" type="line"/>
      <point x="392" y="0" type="line"/>
      <point x="414" y="0" type="line"/>
      <point x="525" y="526" type="line"/>
      <point x="499" y="526" type="line"/>
      <point x="437" y="235" type="line" smooth="yes"/>
      <point x="411" y="113"/>
      <point x="380" y="15"/>
      <point x="296" y="15" type="curve" smooth="yes"/>
      <point x="257" y="15"/>
      <point x="236" y="37"/>
      <point x="236" y="75" type="curve" smooth="yes"/>
      <point x="236" y="87"/>
      <point x="237" y="104"/>
      <point x="241" y="121" type="curve" smooth="yes"/>
      <point x="329" y="526" type="line"/>
      <point x="303" y="526" type="line"/>
      <point x="220" y="147" type="line" smooth="yes"/>
      <point x="204" y="76"/>
      <point x="174" y="15"/>
      <point x="107" y="15" type="curve" smooth="yes"/>
      <point x="69" y="15"/>
      <point x="42" y="35"/>
      <point x="42" y="76" type="curve" smooth="yes"/>
      <point x="42" y="92"/>
      <point x="45" y="112"/>
      <point x="51" y="140" type="curve" smooth="yes"/>
      <point x="133" y="526" type="line"/>
      <point x="107" y="526" type="line"/>
      <point x="25" y="141" type="line" smooth="yes"/>
      <point x="21" y="122"/>
      <point x="16" y="91"/>
      <point x="16" y="73" type="curve" smooth="yes"/>
      <point x="16" y="16"/>
      <point x="56" y="-10"/>
    </contour>
  </outline>
</glyph>
<glyph name="uni027E" format="2">
  <advance width="223"/>
  <unicode hex="027E"/>
  <anchor x="56" y="0" name="bottom"/>
  <anchor x="168" y="526" name="top"/>
  <outline>
    <contour>
      <point x="4" y="0" type="line"/>
      <point x="30" y="0" type="line"/>
      <point x="119" y="417" type="line" smooth="yes"/>
      <point x="133" y="483"/>
      <point x="160" y="511"/>
      <point x="211" y="511" type="curve" smooth="yes"/>
      <point x="234" y="511"/>
      <point x="251" y="505"/>
      <point x="260" y="500" type="curve"/>
      <point x="266" y="525" type="line"/>
      <point x="257" y="530"/>
      <point x="237" y="536"/>
      <point x="213" y="536" type="curve" smooth="yes"/>
      <point x="145" y="536"/>
      <point x="110" y="501"/>
      <point x="94" y="423" type="curve" smooth="yes"/>
    </contour>
  </outline>
</glyph>
<glyph name="uni0280" format="2">
  <advance width="322"/>
  <unicode hex="0280"/>
  <anchor x="105" y="0" name="bottom"/>
  <anchor x="217" y="526" name="top"/>
  <outline>
    <contour>
      <point x="7" y="0" type="line"/>
      <point x="33" y="0" type="line"/>
      <point x="82" y="231" type="line"/>
      <point x="162" y="231" type="line"/>
      <point x="218" y="0" type="line"/>
      <point x="244" y="0" type="line"/>
      <point x="188" y="233" type="line"/>
      <point x="252" y="244"/>
      <point x="310" y="299"/>
      <point x="310" y="411" type="curve" smooth="yes"/>
      <point x="310" y="485"/>
      <point x="271" y="526"/>
      <point x="203" y="526" type="curve" smooth="yes"/>
      <point x="119" y="526" type="line"/>
    </contour>
    <contour>
      <point x="88" y="256" type="line"/>
      <point x="140" y="501" type="line"/>
      <point x="198" y="501" type="line" smooth="yes"/>
      <point x="256" y="501"/>
      <point x="283" y="468"/>
      <point x="283" y="408" type="curve" smooth="yes"/>
      <point x="283" y="322"/>
      <point x="244" y="256"/>
      <point x="164" y="256" type="curve" smooth="yes"/>
    </contour>
  </outline>
</glyph>
<glyph name="uni0289" format="2">
  <advance width="358"/>
  <unicode hex="0289"/>
  <anchor x="123" y="0" name="bottom"/>
  <anchor x="235" y="526" name="top"/>
  <anchor x="394" y="526" name="topright"/>
  <outline>
    <contour>
      <point x="2" y="265" type="line"/>
      <point x="363" y="265" type="line"/>
      <point x="369" y="290" type="line"/>
      <point x="8" y="290" type="line"/>
    </contour>
    <component base="u"/>
  </outline>
</glyph>
<glyph name="uni02AC" format="2">
  <advance width="368"/>
  <unicode hex="02AC"/>
  <anchor x="128" y="0" name="bottom"/>
  <anchor x="280" y="715" name="top"/>
  <outline>
    <contour>
      <point x="112" y="387" type="line"/>
      <point x="150" y="387" type="line"/>
      <point x="266" y="675" type="line"/>
      <point x="265" y="387" type="line"/>
      <point x="303" y="387" type="line"/>
      <point x="443" y="715" type="line"/>
      <point x="412" y="715" type="line"/>
      <point x="291" y="424" type="line"/>
      <point x="291" y="715" type="line"/>
      <point x="255" y="715" type="line"/>
      <point x="138" y="424" type="line"/>
      <point x="136" y="715" type="line"/>
      <point x="108" y="715" type="line"/>
    </contour>
    <contour>
      <point x="30" y="0" type="line"/>
      <point x="68" y="0" type="line"/>
      <point x="184" y="288" type="line"/>
      <point x="183" y="0" type="line"/>
      <point x="221" y="0" type="line"/>
      <point x="361" y="328" type="line"/>
      <point x="330" y="328" type="line"/>
      <point x="209" y="37" type="line"/>
      <point x="209" y="328" type="line"/>
      <point x="173" y="328" type="line"/>
      <point x="56" y="37" type="line"/>
      <point x="54" y="328" type="line"/>
      <point x="26" y="328" type="line"/>
    </contour>
  </outline>
</glyph>
<glyph name="uni02BF" format="2">
  <advance width="162"/>
  <unicode hex="02BF"/>
  <outline>
    <contour>
      <point x="197" y="574" type="curve"/>
      <point x="203" y="597" type="line"/>
      <point x="163" y="597"/>
      <point x="142" y="618"/>
      <point x="142" y="661" type="curve" smooth="yes"/>
      <point x="142" y="725"/>
      <point x="184" y="758"/>
      <point x="235" y="758" type="curve"/>
      <point x="239" y="780" type="line"/>
      <point x="175" y="780"/>
      <point x="118" y="736"/>
      <point x="118" y="661" type="curve" smooth="yes"/>
      <point x="118" y="603"/>
      <point x="160" y="574"/>
    </contour>
  </outline>
</glyph>
<glyph name="uni02C4" format="2">
  <advance width="287"/>
  <unicode hex="02C4"/>
  <outline>
    <contour>
      <point x="96" y="546" type="line"/>
      <point x="114" y="546" type="line"/>
      <point x="203" y="759" type="line"/>
      <point x="291" y="546" type="line"/>
      <point x="309" y="546" type="line"/>
      <point x="211" y="781" type="line"/>
      <point x="194" y="781" type="line"/>
    </contour>
  </outline>
</glyph>
<glyph name="circumflex" format="2">
  <advance width="275"/>
  <unicode hex="02C6"/>
  <outline>
    <contour>
      <point x="114" y="606" type="line"/>
      <point x="124" y="606" type="line"/>
      <point x="169" y="643"/>
      <point x="209" y="688"/>
      <point x="237" y="727" type="curve"/>
      <point x="252" y="683"/>
      <point x="278" y="637"/>
      <point x="298" y="606" type="curve"/>
      <point x="308" y="606" type="line"/>
      <point x="309" y="614" type="line"/>
      <point x="292" y="645"/>
      <point x="261" y="725"/>
      <point x="253" y="766" type="curve"/>
      <point x="232" y="766" type="line"/>
      <point x="204" y="715"/>
      <point x="152" y="652"/>
      <point x="115" y="614" type="curve"/>
    </contour>
  </outline>
</glyph>
<glyph name="uni02D0" format="2">
  <advance width="236"/>
  <unicode hex="02D0"/>
  <outline>
    <contour>
      <point x="141" y="410" type="line"/>
      <point x="223" y="526" type="line"/>
      <point x="108" y="526" type="line"/>
    </contour>
    <contour>
      <point x="10" y="0" type="line"/>
      <point x="124" y="0" type="line"/>
      <point x="91" y="115" type="line"/>
    </contour>
  </outline>
</glyph>
<glyph name="uni02D7" format="2">
  <advance width="249"/>
  <unicode hex="02D7"/>
  <outline>
    <contour>
      <point x="63" y="322" type="line"/>
      <point x="56" y="283" type="line"/>
      <point x="203" y="283" type="line"/>
      <point x="210" y="322" type="line"/>
    </contour>
  </outline>
</glyph>
<glyph name="hungarumlaut" format="2">
  <advance width="336"/>
  <unicode hex="02DD"/>
  <outline>
    <contour>
      <point x="249" y="606" type="line"/>
      <point x="259" y="606" type="line"/>
      <point x="306" y="640"/>
      <point x="373" y="715"/>
      <point x="401" y="758" type="curve"/>
      <point x="401" y="766" type="line"/>
      <point x="369" y="766" type="line"/>
      <point x="347" y="725"/>
      <point x="298" y="662"/>
      <point x="248" y="614" type="curve"/>
    </contour>
    <contour>
      <point x="116" y="606" type="line"/>
      <point x="126" y="606" type="line"/>
      <point x="173" y="640"/>
      <point x="240" y="715"/>
      <point x="268" y="758" type="curve"/>
      <point x="268" y="766" type="line"/>
      <point x="236" y="766" type="line"/>
      <point x="214" y="725"/>
      <point x="165" y="662"/>
      <point x="115" y="614" type="curve"/>
    </contour>
  </outline>
</glyph>
<glyph name="uni02EF" format="2">
  <advance width="267"/>
  <unicode hex="02EF"/>
  <outline>
    <contour>
      <point x="24" y="-208" type="line"/>
      <point x="42" y="-208" type="line"/>
      <point x="163" y="-36" type="line"/>
      <point x="132" y="-36" type="line"/>
      <point x="39" y="-170" type="line"/>
      <point x="3" y="-36" type="line"/>
      <point x="-24" y="-36" type="line"/>
    </contour>
  </outline>
</glyph>
<glyph name="uni02FE" format="2">
  <advance width="306"/>
  <unicode hex="02FE"/>
  <outline>
    <contour>
      <point x="-27" y="-188" type="line"/>
      <point x="170" y="-188" type="line"/>
      <point x="170" y="-149" type="line"/>
      <point x="12" y="-149" type="line"/>
      <point x="12" y="-50" type="line"/>
      <point x="-27" y="-50" type="line"/>
    </contour>
  </outline>
</glyph>
<glyph name="overlinecmb" format="2">
  <unicode hex="0305"/>
  <anchor x="46" y="526" name="_top"/>
  <anchor x="112" y="835" name="top"/>
  <outline>
    <contour>
      <point x="-57" y="810" type="line"/>
      <point x="270" y="810" type="line"/>
      <point x="276" y="835" type="line"/>
      <point x="-51" y="835" type="line"/>
    </contour>
  </outline>
</glyph>
<glyph name="dblverticallineabovecomb" format="2">
  <unicode hex="030E"/>
  <anchor x="57" y="526" name="_top"/>
  <anchor x="52" y="758" name="top"/>
  <outline>
    <contour>
      <point x="114" y="596" type="line"/>
      <point x="140" y="596" type="line"/>
      <point x="176" y="758" type="line"/>
      <point x="150" y="758" type="line"/>
    </contour>
    <contour>
      <point x="4" y="596" type="line"/>
      <point x="30" y="596" type="line"/>
      <point x="66" y="758" type="line"/>
      <point x="40" y="758" type="line"/>
    </contour>
  </outline>
</glyph>
<glyph name="lefttackbelowcomb" format="2">
  <unicode hex="0318"/>
  <anchor x="-49" y="0" name="_bottom"/>
  <anchor x="-94" y="-209" name="bottom"/>
  <outline>
    <contour>
      <point x="-86" y="-209" type="line"/>
      <point x="-47" y="-209" type="line"/>
      <point x="-12" y="-37" type="line"/>
      <point x="-51" y="-37" type="line"/>
      <point x="-65" y="-103" type="line"/>
      <point x="-131" y="-103" type="line"/>
      <point x="-139" y="-143" type="line"/>
      <point x="-72" y="-143" type="line"/>
    </contour>
  </outline>
</glyph>
<glyph name="righttackbelowcomb" format="2">
  <unicode hex="0319"/>
  <anchor x="-49" y="0" name="_bottom"/>
  <anchor x="-94" y="-209" name="bottom"/>
  <outline>
    <contour>
      <point x="-139" y="-209" type="line"/>
      <point x="-100" y="-209" type="line"/>
      <point x="-86" y="-143" type="line"/>
      <point x="-19" y="-143" type="line"/>
      <point x="-12" y="-103" type="line"/>
      <point x="-78" y="-103" type="line"/>
      <point x="-64" y="-37" type="line"/>
      <point x="-103" y="-37" type="line"/>
    </contour>
  </outline>
</glyph>
<glyph name="horncomb" format="2">
  <unicode hex="031B"/>
  <anchor x="85" y="593" name="_topright"/>
  <outline>
    <contour>
      <point x="8" y="568" type="line"/>
      <point x="96" y="588"/>
      <point x="137" y="651"/>
      <point x="159" y="748" type="curve"/>
      <point x="156" y="759" type="line"/>
      <point x="132" y="759" type="line"/>
      <point x="109" y="650"/>
      <point x="72" y="605"/>
      <point x="12" y="593" type="curve"/>
    </contour>
  </outline>
</glyph>
<glyph name="bridgebelowcomb" format="2">
  <unicode hex="032A"/>
  <anchor x="-54" y="0" name="_bottom"/>
  <anchor x="-100" y="-216" name="bottom"/>
  <outline>
    <contour>
      <point x="-243" y="-216" type="line"/>
      <point x="-185" y="-216" type="line"/>
      <point x="-161" y="-106" type="line"/>
      <point x="9" y="-106" type="line"/>
      <point x="-15" y="-216" type="line"/>
      <point x="43" y="-216" type="line"/>
      <point x="79" y="-48" type="line"/>
      <point x="-207" y="-48" type="line"/>
    </contour>
  </outline>
</glyph>
<glyph name="lowlinecomb" format="2">
  <unicode hex="0332"/>
  <anchor x="-57" y="0" name="_bottom"/>
  <anchor x="-82" y="-120" name="bottom"/>
  <outline>
    <contour>
      <point x="-206" y="-120" type="line"/>
      <point x="42" y="-120" type="line"/>
      <point x="47" y="-95" type="line"/>
      <point x="-201" y="-95" type="line"/>
    </contour>
  </outline>
</glyph>
<glyph name="bridgeinvertedbelowcomb" format="2">
  <unicode hex="033A"/>
  <anchor x="-58" y="0" name="_bottom"/>
  <anchor x="-104" y="-218" name="bottom"/>
  <outline>
    <contour>
      <point x="-219" y="-218" type="line"/>
      <point x="12" y="-218" type="line"/>
      <point x="38" y="-91" type="line"/>
      <point x="8" y="-91" type="line"/>
      <point x="-12" y="-186" type="line"/>
      <point x="-183" y="-186" type="line"/>
      <point x="-163" y="-91" type="line"/>
      <point x="-193" y="-91" type="line"/>
    </contour>
  </outline>
</glyph>
<glyph name="squarebelowcomb" format="2">
  <unicode hex="033B"/>
  <anchor x="-56" y="0" name="_bottom"/>
  <anchor x="-105" y="-227" name="bottom"/>
  <outline>
    <contour>
      <point x="-250" y="-227" type="line"/>
      <point x="41" y="-227" type="line"/>
      <point x="83" y="-29" type="line"/>
      <point x="-208" y="-29" type="line"/>
    </contour>
    <contour>
      <point x="-201" y="-187" type="line"/>
      <point x="-176" y="-69" type="line"/>
      <point x="34" y="-69" type="line"/>
      <point x="9" y="-187" type="line"/>
    </contour>
  </outline>
</glyph>
<glyph name="ypogegrammenicomb" format="2">
  <unicode hex="0345"/>
  <anchor x="-33" y="0" name="_bottom"/>
  <anchor x="-79" y="-216" name="bottom"/>
  <outline>
    <contour>
      <point x="-61" y="-216" type="curve" smooth="yes"/>
      <point x="-41" y="-216"/>
      <point x="-29" y="-212"/>
      <point x="-19" y="-209" type="curve"/>
      <point x="-15" y="-183" type="line"/>
      <point x="-24" y="-187"/>
      <point x="-38" y="-191"/>
      <point x="-55" y="-191" type="curve" smooth="yes"/>
      <point x="-75" y="-191"/>
      <point x="-83" y="-179"/>
      <point x="-83" y="-165" type="curve" smooth="yes"/>
      <point x="-83" y="-158"/>
      <point x="-82" y="-147"/>
      <point x="-79" y="-133" type="curve" smooth="yes"/>
      <point x="-63" y="-64" type="line"/>
      <point x="-89" y="-64" type="line"/>
      <point x="-105" y="-134" type="line" smooth="yes"/>
      <point x="-108" y="-147"/>
      <point x="-110" y="-158"/>
      <point x="-110" y="-170" type="curve" smooth="yes"/>
      <point x="-110" y="-196"/>
      <point x="-93" y="-216"/>
    </contour>
  </outline>
</glyph>
<glyph name="arrowupbelowcomb" format="2">
  <unicode hex="034E"/>
  <anchor x="-56" y="0" name="_bottom"/>
  <anchor x="-102" y="-216" name="bottom"/>
  <outline>
    <contour>
      <point x="-113" y="-216" type="line"/>
      <point x="-91" y="-216" type="line"/>
      <point x="-73" y="-128" type="line"/>
      <point x="-42" y="-128" type="line"/>
      <point x="-65" y="-43" type="line"/>
      <point x="-125" y="-128" type="line"/>
      <point x="-95" y="-128" type="line"/>
    </contour>
  </outline>
</glyph>
<glyph name="arrowheadrightabovecomb" format="2">
  <unicode hex="0350"/>
  <anchor x="56" y="526" name="_top"/>
  <anchor x="114" y="799" name="top"/>
  <outline>
    <contour>
      <point x="41" y="589" type="line"/>
      <point x="46" y="589" type="line"/>
      <point x="87" y="633"/>
      <point x="119" y="662"/>
      <point x="143" y="678" type="curve"/>
      <point x="143" y="709" type="line"/>
      <point x="116" y="729"/>
      <point x="72" y="771"/>
      <point x="46" y="799" type="curve"/>
      <point x="41" y="799" type="line"/>
      <point x="41" y="768" type="line"/>
      <point x="61" y="742"/>
      <point x="83" y="717"/>
      <point x="106" y="694" type="curve"/>
      <point x="84" y="672"/>
      <point x="63" y="648"/>
      <point x="41" y="620" type="curve"/>
    </contour>
  </outline>
</glyph>
<glyph name="Heta" format="2">
  <advance width="288"/>
  <unicode hex="0370"/>
  <anchor x="88" y="0" name="bottom"/>
  <anchor x="240" y="714" name="top"/>
  <outline>
    <contour>
      <point x="3" y="0" type="line"/>
      <point x="29" y="0" type="line"/>
      <point x="106" y="364" type="line"/>
      <point x="278" y="364" type="line"/>
      <point x="283" y="389" type="line"/>
      <point x="111" y="389" type="line"/>
      <point x="180" y="714" type="line"/>
      <point x="154" y="714" type="line"/>
    </contour>
  </outline>
</glyph>
<glyph name="heta" format="2">
  <advance width="243"/>
  <unicode hex="0371"/>
  <anchor x="66" y="0" name="bottom"/>
  <anchor x="178" y="526" name="top"/>
  <outline>
    <contour>
      <point x="8" y="0" type="line"/>
      <point x="34" y="0" type="line"/>
      <point x="91" y="264" type="line"/>
      <point x="224" y="264" type="line"/>
      <point x="230" y="289" type="line"/>
      <point x="96" y="289" type="line"/>
      <point x="146" y="526" type="line"/>
      <point x="120" y="526" type="line"/>
    </contour>
  </outline>
</glyph>
<glyph name="Archaicsampi" format="2">
  <advance width="290"/>
  <unicode hex="0372"/>
  <anchor x="100" y="0" name="bottom"/>
  <anchor x="252" y="714" name="top"/>
  <outline>
    <contour>
      <point x="74" y="0" type="line"/>
      <point x="100" y="0" type="line"/>
      <point x="247" y="689" type="line"/>
      <point x="375" y="689" type="line"/>
      <point x="380" y="714" type="line"/>
      <point x="99" y="714" type="line"/>
      <point x="94" y="689" type="line"/>
      <point x="221" y="689" type="line"/>
    </contour>
    <contour>
      <point x="53" y="514" type="line"/>
      <point x="79" y="514" type="line"/>
      <point x="121" y="714" type="line"/>
      <point x="95" y="714" type="line"/>
    </contour>
    <contour>
      <point x="316" y="514" type="line"/>
      <point x="342" y="514" type="line"/>
      <point x="384" y="714" type="line"/>
      <point x="358" y="714" type="line"/>
    </contour>
  </outline>
</glyph>
<glyph name="uni0375" format="2">
  <advance width="471"/>
  <unicode hex="0375"/>
  <outline>
    <contour>
      <point x="75" y="-221" type="line"/>
      <point x="101" y="-221" type="line"/>
      <point x="116" y="-176"/>
      <point x="161" y="-103"/>
      <point x="189" y="-76" type="curve"/>
      <point x="189" y="-61" type="line"/>
      <point x="179" y="-61" type="line"/>
      <point x="142" y="-96"/>
      <point x="92" y="-168"/>
      <point x="75" y="-210" type="curve"/>
    </contour>
  </outline>
</glyph>
<glyph name="pamphyliandigamma" format="2">
  <advance width="369"/>
  <unicode hex="0377"/>
  <anchor x="129" y="0" name="bottom"/>
  <anchor x="241" y="526" name="top"/>
  <outline>
    <contour>
      <point x="8" y="0" type="line"/>
      <point x="32" y="0" type="line"/>
      <point x="310" y="445" type="line"/>
      <point x="305" y="424"/>
      <point x="301" y="407"/>
      <point x="297" y="386" type="curve" smooth="yes"/>
      <point x="216" y="0" type="line"/>
      <point x="242" y="0" type="line"/>
      <point x="354" y="526" type="line"/>
      <point x="331" y="526" type="line"/>
      <point x="51" y="77" type="line"/>
      <point x="57" y="100"/>
      <point x="62" y="121"/>
      <point x="67" y="147" type="curve" smooth="yes"/>
      <point x="146" y="526" type="line"/>
      <point x="120" y="526" type="line"/>
    </contour>
  </outline>
</glyph>
<glyph name="tonos" format="2">
  <advance width="543"/>
  <unicode hex="0384"/>
  <anchor x="290" y="526" name="_top"/>
  <outline>
    <contour>
      <point x="262" y="606" type="line"/>
      <point x="275" y="606" type="line"/>
      <point x="298" y="637"/>
      <point x="373" y="750"/>
      <point x="389" y="780" type="curve"/>
      <point x="391" y="790" type="line"/>
      <point x="353" y="790" type="line"/>
      <point x="334" y="741"/>
      <point x="291" y="661"/>
      <point x="264" y="615" type="curve"/>
    </contour>
  </outline>
</glyph>
<glyph name="dieresistonos" format="2">
  <advance width="540"/>
  <unicode hex="0385"/>
  <anchor x="244" y="526" name="_top"/>
  <outline>
    <contour>
      <point x="275" y="675" type="line"/>
      <point x="288" y="675" type="line"/>
      <point x="315" y="705"/>
      <point x="364" y="792"/>
      <point x="380" y="827" type="curve"/>
      <point x="380" y="838" type="line"/>
      <point x="349" y="838" type="line"/>
      <point x="337" y="798"/>
      <point x="299" y="723"/>
      <point x="275" y="683" type="curve"/>
    </contour>
    <contour>
      <point x="213" y="647" type="curve" smooth="yes"/>
      <point x="230" y="647"/>
      <point x="239" y="673"/>
      <point x="239" y="689" type="curve" smooth="yes"/>
      <point x="239" y="704"/>
      <point x="232" y="712"/>
      <point x="221" y="712" type="curve" smooth="yes"/>
      <point x="204" y="712"/>
      <point x="195" y="687"/>
      <point x="195" y="670" type="curve" smooth="yes"/>
      <point x="195" y="655"/>
      <point x="202" y="647"/>
    </contour>
    <contour>
      <point x="359" y="647" type="curve" smooth="yes"/>
      <point x="376" y="647"/>
      <point x="385" y="673"/>
      <point x="385" y="689" type="curve" smooth="yes"/>
      <point x="385" y="704"/>
      <point x="378" y="712"/>
      <point x="367" y="712" type="curve" smooth="yes"/>
      <point x="350" y="712"/>
      <point x="341" y="687"/>
      <point x="341" y="670" type="curve" smooth="yes"/>
      <point x="341" y="655"/>
      <point x="348" y="647"/>
    </contour>
  </outline>
</glyph>
<glyph name="Gamma" format="2">
  <advance width="270"/>
  <unicode hex="0393"/>
  <anchor x="79" y="0" name="bottom"/>
  <anchor x="231" y="714" name="top"/>
  <outline>
    <contour>
      <point x="2" y="0" type="line"/>
      <point x="28" y="0" type="line"/>
      <point x="175" y="689" type="line"/>
      <point x="350" y="689" type="line"/>
      <point x="355" y="714" type="line"/>
      <point x="154" y="714" type="line"/>
    </contour>
  </outline>
</glyph>
<glyph name="Delta" format="2">
  <advance width="321"/>
  <unicode hex="0394"/>
  <anchor x="105" y="0" name="bottom"/>
  <anchor x="257" y="714" name="top"/>
  <outline>
    <contour>
      <point x="-49" y="0" type="line"/>
      <point x="279" y="0" type="line"/>
      <point x="284" y="25" type="line"/>
      <point x="284" y="714" type="line"/>
      <point x="250" y="714" type="line"/>
      <point x="-44" y="25" type="line"/>
    </contour>
    <contour>
      <point x="-17" y="25" type="line"/>
      <point x="215" y="573" type="line" smooth="yes"/>
      <point x="229" y="605"/>
      <point x="246" y="646"/>
      <point x="261" y="683" type="curve"/>
      <point x="260" y="655"/>
      <point x="260" y="628"/>
      <point x="260" y="591" type="curve" smooth="yes"/>
      <point x="259" y="25" type="line"/>
    </contour>
  </outline>
</glyph>
<glyph name="Lambda" format="2">
  <advance width="327"/>
  <unicode hex="039B"/>
  <anchor x="108" y="0" name="bottom"/>
  <anchor x="260" y="714" name="top"/>
  <outline>
    <contour>
      <point x="-70" y="0" type="line"/>
      <point x="-42" y="0" type="line"/>
      <point x="211" y="598" type="line" smooth="yes"/>
      <point x="226" y="634"/>
      <point x="236" y="658"/>
      <point x="247" y="688" type="curve"/>
      <point x="245" y="658"/>
      <point x="245" y="633"/>
      <point x="245" y="604" type="curve" smooth="yes"/>
      <point x="243" y="0" type="line"/>
      <point x="269" y="0" type="line"/>
      <point x="269" y="714" type="line"/>
      <point x="234" y="714" type="line"/>
    </contour>
  </outline>
</glyph>
<glyph name="Xi" format="2">
  <advance width="339"/>
  <unicode hex="039E"/>
  <anchor x="114" y="0" name="bottom"/>
  <anchor x="266" y="714" name="top"/>
  <outline>
    <contour>
      <point x="-8" y="0" type="line"/>
      <point x="235" y="0" type="line"/>
      <point x="240" y="25" type="line"/>
      <point x="-2" y="25" type="line"/>
    </contour>
    <contour>
      <point x="81" y="363" type="line"/>
      <point x="299" y="363" type="line"/>
      <point x="305" y="388" type="line"/>
      <point x="86" y="388" type="line"/>
    </contour>
    <contour>
      <point x="140" y="689" type="line"/>
      <point x="382" y="689" type="line"/>
      <point x="387" y="714" type="line"/>
      <point x="146" y="714" type="line"/>
    </contour>
  </outline>
</glyph>
<glyph name="Pi" format="2">
  <advance width="433"/>
  <unicode hex="03A0"/>
  <anchor x="161" y="0" name="bottom"/>
  <anchor x="313" y="714" name="top"/>
  <outline>
    <contour>
      <point x="2" y="0" type="line"/>
      <point x="28" y="0" type="line"/>
      <point x="175" y="689" type="line"/>
      <point x="423" y="689" type="line"/>
      <point x="276" y="0" type="line"/>
      <point x="302" y="0" type="line"/>
      <point x="454" y="714" type="line"/>
      <point x="154" y="714" type="line"/>
    </contour>
  </outline>
</glyph>
<glyph name="Sigma" format="2">
  <advance width="309"/>
  <unicode hex="03A3"/>
  <anchor x="99" y="0" name="bottom"/>
  <anchor x="251" y="714" name="top"/>
  <outline>
    <contour>
      <point x="-42" y="0" type="line"/>
      <point x="221" y="0" type="line"/>
      <point x="225" y="25" type="line"/>
      <point x="-5" y="25" type="line"/>
      <point x="216" y="369" type="line"/>
      <point x="134" y="689" type="line"/>
      <point x="354" y="689" type="line"/>
      <point x="359" y="714" type="line"/>
      <point x="112" y="714" type="line"/>
      <point x="107" y="689" type="line"/>
      <point x="188" y="373" type="line"/>
      <point x="-39" y="20" type="line"/>
    </contour>
  </outline>
</glyph>
<glyph name="Psi" format="2">
  <advance width="474"/>
  <unicode hex="03A8"/>
  <anchor x="181" y="0" name="bottom"/>
  <anchor x="333" y="714" name="top"/>
  <outline>
    <contour>
      <point x="150" y="0" type="line"/>
      <point x="177" y="0" type="line"/>
      <point x="224" y="227" type="line"/>
      <point x="226" y="227" type="line" smooth="yes"/>
      <point x="367" y="227"/>
      <point x="408" y="324"/>
      <point x="433" y="441" type="curve" smooth="yes"/>
      <point x="490" y="714" type="line"/>
      <point x="464" y="714" type="line"/>
      <point x="409" y="450" type="line" smooth="yes"/>
      <point x="384" y="333"/>
      <point x="352" y="252"/>
      <point x="231" y="252" type="curve" smooth="yes"/>
      <point x="229" y="252" type="line"/>
      <point x="328" y="714" type="line"/>
      <point x="301" y="714" type="line"/>
      <point x="203" y="252" type="line"/>
      <point x="201" y="252" type="line" smooth="yes"/>
      <point x="162" y="252"/>
      <point x="99" y="270"/>
      <point x="99" y="360" type="curve" smooth="yes"/>
      <point x="99" y="396"/>
      <point x="104" y="440"/>
      <point x="117" y="499" type="curve" smooth="yes"/>
      <point x="163" y="714" type="line"/>
      <point x="137" y="714" type="line"/>
      <point x="90" y="494" type="line" smooth="yes"/>
      <point x="79" y="441"/>
      <point x="73" y="398"/>
      <point x="73" y="359" type="curve" smooth="yes"/>
      <point x="73" y="254"/>
      <point x="147" y="227"/>
      <point x="197" y="227" type="curve" smooth="yes"/>
      <point x="198" y="227" type="line"/>
    </contour>
  </outline>
</glyph>
<glyph name="Omega" format="2">
  <advance width="457"/>
  <unicode hex="03A9"/>
  <anchor x="173" y="0" name="bottom"/>
  <anchor x="325" y="714" name="top"/>
  <anchor x="116" y="714" name="topleft"/>
  <outline>
    <contour>
      <point x="-35" y="0" type="line"/>
      <point x="118" y="0" type="line"/>
      <point x="124" y="24" type="line"/>
      <point x="84" y="77"/>
      <point x="66" y="148"/>
      <point x="66" y="250" type="curve" smooth="yes"/>
      <point x="66" y="398"/>
      <point x="117" y="699"/>
      <point x="298" y="699" type="curve" smooth="yes"/>
      <point x="371" y="699"/>
      <point x="404" y="649"/>
      <point x="404" y="540" type="curve" smooth="yes"/>
      <point x="404" y="323"/>
      <point x="317" y="97"/>
      <point x="198" y="24" type="curve"/>
      <point x="193" y="0" type="line"/>
      <point x="358" y="0" type="line"/>
      <point x="364" y="25" type="line"/>
      <point x="233" y="25" type="line"/>
      <point x="341" y="98"/>
      <point x="431" y="307"/>
      <point x="431" y="546" type="curve" smooth="yes"/>
      <point x="431" y="667"/>
      <point x="391" y="724"/>
      <point x="300" y="724" type="curve" smooth="yes"/>
      <point x="99" y="724"/>
      <point x="39" y="419"/>
      <point x="39" y="248" type="curve" smooth="yes"/>
      <point x="39" y="139"/>
      <point x="66" y="64"/>
      <point x="96" y="25" type="curve"/>
      <point x="-30" y="25" type="line"/>
    </contour>
  </outline>
</glyph>
<glyph name="alpha" format="2">
  <advance width="386"/>
  <unicode hex="03B1"/>
  <anchor x="137" y="0" name="bottom"/>
  <anchor x="249" y="526" name="top"/>
  <outline>
    <contour>
      <point x="130" y="-10" type="curve" smooth="yes"/>
      <point x="187" y="-10"/>
      <point x="223" y="25"/>
      <point x="254" y="83" type="curve"/>
      <point x="256" y="83" type="line"/>
      <point x="248" y="27"/>
      <point x="258" y="-10"/>
      <point x="302" y="-10" type="curve" smooth="yes"/>
      <point x="312" y="-10"/>
      <point x="323" y="-8"/>
      <point x="328" y="-3" type="curve"/>
      <point x="328" y="19" type="line"/>
      <point x="321" y="17"/>
      <point x="314" y="15"/>
      <point x="304" y="15" type="curve" smooth="yes"/>
      <point x="288" y="15"/>
      <point x="279" y="26"/>
      <point x="279" y="48" type="curve" smooth="yes"/>
      <point x="279" y="78"/>
      <point x="285" y="111"/>
      <point x="297" y="167" type="curve" smooth="yes"/>
      <point x="340" y="367" type="line" smooth="yes"/>
      <point x="356" y="442"/>
      <point x="372" y="496"/>
      <point x="389" y="526" type="curve"/>
      <point x="366" y="526" type="line"/>
      <point x="355" y="507"/>
      <point x="342" y="474"/>
      <point x="334" y="446" type="curve"/>
      <point x="332" y="446" type="line"/>
      <point x="325" y="499"/>
      <point x="297" y="536"/>
      <point x="243" y="536" type="curve" smooth="yes"/>
      <point x="104" y="536"/>
      <point x="33" y="294"/>
      <point x="33" y="138" type="curve" smooth="yes"/>
      <point x="33" y="42"/>
      <point x="68" y="-10"/>
    </contour>
    <contour>
      <point x="133" y="15" type="curve" smooth="yes"/>
      <point x="90" y="15"/>
      <point x="60" y="51"/>
      <point x="60" y="140" type="curve" smooth="yes"/>
      <point x="60" y="280"/>
      <point x="125" y="511"/>
      <point x="242" y="511" type="curve" smooth="yes"/>
      <point x="286" y="511"/>
      <point x="312" y="473"/>
      <point x="312" y="416" type="curve" smooth="yes"/>
      <point x="312" y="360"/>
      <point x="297" y="289"/>
      <point x="282" y="224" type="curve" smooth="yes"/>
      <point x="259" y="122"/>
      <point x="214" y="15"/>
    </contour>
  </outline>
</glyph>
<glyph name="beta" format="2">
  <advance width="370"/>
  <unicode hex="03B2"/>
  <anchor x="160" y="0" name="bottom"/>
  <anchor x="292" y="765" name="top"/>
  <anchor x="457" y="765" name="topright"/>
  <outline>
    <contour>
      <point x="-48" y="-240" type="line"/>
      <point x="-22" y="-240" type="line"/>
      <point x="37" y="30" type="line"/>
      <point x="57" y="11"/>
      <point x="95" y="-10"/>
      <point x="138" y="-10" type="curve" smooth="yes"/>
      <point x="277" y="-10"/>
      <point x="320" y="136"/>
      <point x="320" y="251" type="curve" smooth="yes"/>
      <point x="320" y="331"/>
      <point x="285" y="387"/>
      <point x="236" y="400" type="curve"/>
      <point x="333" y="418"/>
      <point x="377" y="529"/>
      <point x="377" y="642" type="curve" smooth="yes"/>
      <point x="377" y="727"/>
      <point x="333" y="765"/>
      <point x="272" y="765" type="curve" smooth="yes"/>
      <point x="184" y="765"/>
      <point x="154" y="702"/>
      <point x="135" y="615" type="curve" smooth="yes"/>
    </contour>
    <contour>
      <point x="140" y="15" type="curve" smooth="yes"/>
      <point x="101" y="15"/>
      <point x="65" y="35"/>
      <point x="44" y="58" type="curve"/>
      <point x="161" y="613" type="line" smooth="yes"/>
      <point x="178" y="693"/>
      <point x="205" y="740"/>
      <point x="270" y="740" type="curve" smooth="yes"/>
      <point x="321" y="740"/>
      <point x="350" y="709"/>
      <point x="350" y="641" type="curve" smooth="yes"/>
      <point x="350" y="533"/>
      <point x="306" y="414"/>
      <point x="194" y="414" type="curve" smooth="yes"/>
      <point x="182" y="414" type="line"/>
      <point x="176" y="389" type="line"/>
      <point x="188" y="389" type="line" smooth="yes"/>
      <point x="251" y="389"/>
      <point x="293" y="341"/>
      <point x="293" y="248" type="curve" smooth="yes"/>
      <point x="293" y="144"/>
      <point x="256" y="15"/>
    </contour>
  </outline>
</glyph>
<glyph name="delta" format="2">
  <advance width="385"/>
  <unicode hex="03B4"/>
  <anchor x="137" y="0" name="bottom"/>
  <anchor x="298" y="757" name="top"/>
  <outline>
    <contour>
      <point x="151" y="-10" type="curve" smooth="yes"/>
      <point x="281" y="-10"/>
      <point x="330" y="127"/>
      <point x="330" y="247" type="curve" smooth="yes"/>
      <point x="330" y="335"/>
      <point x="312" y="399"/>
      <point x="266" y="471" type="curve" smooth="yes"/>
      <point x="229" y="529"/>
      <point x="206" y="567"/>
      <point x="206" y="626" type="curve" smooth="yes"/>
      <point x="206" y="693"/>
      <point x="245" y="732"/>
      <point x="308" y="732" type="curve" smooth="yes"/>
      <point x="349" y="732"/>
      <point x="377" y="717"/>
      <point x="393" y="705" type="curve"/>
      <point x="408" y="727" type="line"/>
      <point x="393" y="738"/>
      <point x="360" y="757"/>
      <point x="312" y="757" type="curve" smooth="yes"/>
      <point x="229" y="757"/>
      <point x="179" y="706"/>
      <point x="179" y="625" type="curve" smooth="yes"/>
      <point x="179" y="560"/>
      <point x="204" y="517"/>
      <point x="236" y="467" type="curve"/>
      <point x="107" y="409"/>
      <point x="30" y="285"/>
      <point x="30" y="137" type="curve" smooth="yes"/>
      <point x="30" y="39"/>
      <point x="80" y="-10"/>
    </contour>
    <contour>
      <point x="154" y="15" type="curve" smooth="yes"/>
      <point x="96" y="15"/>
      <point x="57" y="56"/>
      <point x="57" y="139" type="curve" smooth="yes"/>
      <point x="57" y="275"/>
      <point x="125" y="390"/>
      <point x="249" y="446" type="curve"/>
      <point x="287" y="389"/>
      <point x="303" y="326"/>
      <point x="303" y="248" type="curve" smooth="yes"/>
      <point x="303" y="152"/>
      <point x="268" y="15"/>
    </contour>
  </outline>
</glyph>
<glyph name="epsilon" format="2">
  <advance width="258"/>
  <unicode hex="03B5"/>
  <anchor x="73" y="0" name="bottom"/>
  <anchor x="185" y="526" name="top"/>
  <outline>
    <contour>
      <point x="109" y="-10" type="curve" smooth="yes"/>
      <point x="142" y="-10"/>
      <point x="168" y="0"/>
      <point x="187" y="11" type="curve"/>
      <point x="187" y="38" type="line"/>
      <point x="164" y="24"/>
      <point x="141" y="15"/>
      <point x="111" y="15" type="curve" smooth="yes"/>
      <point x="59" y="15"/>
      <point x="30" y="46"/>
      <point x="30" y="110" type="curve" smooth="yes"/>
      <point x="30" y="180"/>
      <point x="59" y="268"/>
      <point x="158" y="268" type="curve" smooth="yes"/>
      <point x="187" y="268" type="line"/>
      <point x="193" y="293" type="line"/>
      <point x="174" y="293" type="line" smooth="yes"/>
      <point x="126" y="293"/>
      <point x="103" y="326"/>
      <point x="103" y="383" type="curve" smooth="yes"/>
      <point x="103" y="457"/>
      <point x="142" y="511"/>
      <point x="203" y="511" type="curve" smooth="yes"/>
      <point x="230" y="511"/>
      <point x="249" y="501"/>
      <point x="263" y="490" type="curve"/>
      <point x="279" y="512" type="line"/>
      <point x="263" y="525"/>
      <point x="237" y="536"/>
      <point x="206" y="536" type="curve" smooth="yes"/>
      <point x="117" y="536"/>
      <point x="76" y="459"/>
      <point x="76" y="383" type="curve" smooth="yes"/>
      <point x="76" y="343"/>
      <point x="90" y="302"/>
      <point x="119" y="286" type="curve"/>
      <point x="119" y="284" type="line"/>
      <point x="54" y="274"/>
      <point x="3" y="211"/>
      <point x="3" y="110" type="curve" smooth="yes"/>
      <point x="3" y="38"/>
      <point x="38" y="-10"/>
    </contour>
  </outline>
</glyph>
<glyph name="zeta" format="2">
  <advance width="248"/>
  <unicode hex="03B6"/>
  <anchor x="23" y="-211" name="bottom"/>
  <anchor x="230" y="760" name="top"/>
  <outline>
    <contour>
      <point x="49" y="-211" type="curve"/>
      <point x="84" y="-211" type="line"/>
      <point x="118" y="-175"/>
      <point x="162" y="-114"/>
      <point x="162" y="-59" type="curve" smooth="yes"/>
      <point x="162" y="-16"/>
      <point x="140" y="4"/>
      <point x="109" y="28" type="curve" smooth="yes"/>
      <point x="61" y="65"/>
      <point x="41" y="94"/>
      <point x="41" y="154" type="curve" smooth="yes"/>
      <point x="41" y="328"/>
      <point x="171" y="531"/>
      <point x="338" y="735" type="curve"/>
      <point x="344" y="760" type="line"/>
      <point x="160" y="760" type="line"/>
      <point x="155" y="735" type="line"/>
      <point x="234" y="735" type="line" smooth="yes"/>
      <point x="262" y="735"/>
      <point x="284" y="735"/>
      <point x="305" y="736" type="curve"/>
      <point x="145" y="540"/>
      <point x="14" y="336"/>
      <point x="14" y="152" type="curve" smooth="yes"/>
      <point x="14" y="76"/>
      <point x="43" y="43"/>
      <point x="89" y="9" type="curve" smooth="yes"/>
      <point x="120" y="-14"/>
      <point x="135" y="-34"/>
      <point x="135" y="-62" type="curve" smooth="yes"/>
      <point x="135" y="-112"/>
      <point x="90" y="-170"/>
    </contour>
  </outline>
</glyph>
<glyph name="theta" format="2">
  <advance width="369"/>
  <unicode hex="03B8"/>
  <anchor x="129" y="0" name="bottom"/>
  <anchor x="293" y="770" name="top"/>
  <anchor x="457" y="770" name="topright"/>
  <outline>
    <contour>
      <point x="129" y="-12" type="curve" smooth="yes"/>
      <point x="237" y="-12"/>
      <point x="309" y="177"/>
      <point x="345" y="361" type="curve" smooth="yes"/>
      <point x="363" y="454"/>
      <point x="372" y="546"/>
      <point x="372" y="612" type="curve" smooth="yes"/>
      <point x="372" y="722"/>
      <point x="346" y="770"/>
      <point x="279" y="770" type="curve" smooth="yes"/>
      <point x="169" y="770"/>
      <point x="97" y="586"/>
      <point x="61" y="411" type="curve" smooth="yes"/>
      <point x="41" y="316"/>
      <point x="31" y="224"/>
      <point x="31" y="166" type="curve" smooth="yes"/>
      <point x="31" y="36"/>
      <point x="65" y="-12"/>
    </contour>
    <contour>
      <point x="128" y="13" type="curve" smooth="yes"/>
      <point x="85" y="13"/>
      <point x="58" y="47"/>
      <point x="58" y="167" type="curve" smooth="yes"/>
      <point x="58" y="219"/>
      <point x="67" y="298"/>
      <point x="83" y="382" type="curve"/>
      <point x="320" y="382" type="line"/>
      <point x="287" y="204"/>
      <point x="221" y="13"/>
    </contour>
    <contour>
      <point x="88" y="407" type="line"/>
      <point x="123" y="572"/>
      <point x="189" y="745"/>
      <point x="279" y="745" type="curve" smooth="yes"/>
      <point x="325" y="745"/>
      <point x="345" y="713"/>
      <point x="345" y="612" type="curve" smooth="yes"/>
      <point x="345" y="561"/>
      <point x="338" y="486"/>
      <point x="324" y="407" type="curve"/>
    </contour>
  </outline>
</glyph>
<glyph name="nu" format="2">
  <advance width="290"/>
  <unicode hex="03BD"/>
  <anchor x="89" y="0" name="bottom"/>
  <anchor x="201" y="526" name="top"/>
  <outline>
    <contour>
      <point x="58" y="0" type="line"/>
      <point x="90" y="0" type="line"/>
      <point x="211" y="150"/>
      <point x="290" y="346"/>
      <point x="322" y="526" type="curve"/>
      <point x="296" y="526" type="line"/>
      <point x="262" y="347"/>
      <point x="183" y="161"/>
      <point x="84" y="32" type="curve"/>
      <point x="85" y="65"/>
      <point x="86" y="97"/>
      <point x="87" y="136" type="curve" smooth="yes"/>
      <point x="93" y="526" type="line"/>
      <point x="67" y="526" type="line"/>
    </contour>
  </outline>
</glyph>
<glyph name="xi" format="2">
  <advance width="259"/>
  <unicode hex="03BE"/>
  <anchor x="29" y="-211" name="bottom"/>
  <anchor x="236" y="760" name="top"/>
  <outline>
    <contour>
      <point x="49" y="-211" type="curve"/>
      <point x="84" y="-211" type="line"/>
      <point x="118" y="-175"/>
      <point x="162" y="-114"/>
      <point x="162" y="-59" type="curve" smooth="yes"/>
      <point x="162" y="-16"/>
      <point x="140" y="4"/>
      <point x="109" y="28" type="curve" smooth="yes"/>
      <point x="61" y="65"/>
      <point x="41" y="94"/>
      <point x="41" y="164" type="curve" smooth="yes"/>
      <point x="41" y="288"/>
      <point x="101" y="392"/>
      <point x="218" y="392" type="curve" smooth="yes"/>
      <point x="247" y="392" type="line"/>
      <point x="252" y="417" type="line"/>
      <point x="233" y="417" type="line" smooth="yes"/>
      <point x="171" y="417"/>
      <point x="138" y="453"/>
      <point x="138" y="522" type="curve" smooth="yes"/>
      <point x="138" y="619"/>
      <point x="202" y="739"/>
      <point x="324" y="739" type="curve" smooth="yes"/>
      <point x="331" y="739" type="line"/>
      <point x="337" y="760" type="line"/>
      <point x="150" y="760" type="line"/>
      <point x="145" y="735" type="line"/>
      <point x="193" y="735" type="line" smooth="yes"/>
      <point x="209" y="735"/>
      <point x="230" y="736"/>
      <point x="251" y="738" type="curve"/>
      <point x="162" y="714"/>
      <point x="111" y="614"/>
      <point x="111" y="521" type="curve" smooth="yes"/>
      <point x="111" y="466"/>
      <point x="126" y="431"/>
      <point x="170" y="409" type="curve"/>
      <point x="170" y="407" type="line"/>
      <point x="73" y="392"/>
      <point x="14" y="288"/>
      <point x="14" y="162" type="curve" smooth="yes"/>
      <point x="14" y="76"/>
      <point x="43" y="43"/>
      <point x="89" y="9" type="curve" smooth="yes"/>
      <point x="120" y="-14"/>
      <point x="135" y="-34"/>
      <point x="135" y="-62" type="curve" smooth="yes"/>
      <point x="135" y="-112"/>
      <point x="90" y="-170"/>
    </contour>
  </outline>
</glyph>
<glyph name="pi" format="2">
  <advance width="348"/>
  <unicode hex="03C0"/>
  <anchor x="118" y="0" name="bottom"/>
  <anchor x="230" y="526" name="top"/>
  <outline>
    <contour>
      <point x="249" y="-3" type="curve" smooth="yes"/>
      <point x="263" y="-3"/>
      <point x="276" y="0"/>
      <point x="283" y="3" type="curve"/>
      <point x="283" y="27" type="line"/>
      <point x="278" y="25"/>
      <point x="265" y="22"/>
      <point x="254" y="22" type="curve" smooth="yes"/>
      <point x="234" y="22"/>
      <point x="223" y="34"/>
      <point x="223" y="54" type="curve" smooth="yes"/>
      <point x="223" y="72"/>
      <point x="226" y="91"/>
      <point x="232" y="119" type="curve" smooth="yes"/>
      <point x="313" y="501" type="line"/>
      <point x="374" y="501" type="line"/>
      <point x="378" y="526" type="line"/>
      <point x="94" y="526" type="line"/>
      <point x="54" y="518" type="line"/>
      <point x="50" y="501" type="line"/>
      <point x="117" y="501" type="line"/>
      <point x="7" y="0" type="line"/>
      <point x="33" y="0" type="line"/>
      <point x="143" y="501" type="line"/>
      <point x="287" y="501" type="line"/>
      <point x="206" y="119" type="line" smooth="yes"/>
      <point x="201" y="96"/>
      <point x="197" y="71"/>
      <point x="197" y="52" type="curve" smooth="yes"/>
      <point x="197" y="13"/>
      <point x="220" y="-3"/>
    </contour>
  </outline>
</glyph>
<glyph name="rho" format="2">
  <advance width="371"/>
  <unicode hex="03C1"/>
  <anchor x="79" y="-240" name="bottom"/>
  <anchor x="242" y="526" name="top"/>
  <outline>
    <contour>
      <point x="-44" y="-240" type="line"/>
      <point x="-18" y="-240" type="line"/>
      <point x="28" y="-20" type="line" smooth="yes"/>
      <point x="32" y="0"/>
      <point x="35" y="15"/>
      <point x="38" y="30" type="curve"/>
      <point x="57" y="9"/>
      <point x="88" y="-10"/>
      <point x="132" y="-10" type="curve" smooth="yes"/>
      <point x="282" y="-10"/>
      <point x="343" y="243"/>
      <point x="343" y="376" type="curve" smooth="yes"/>
      <point x="343" y="483"/>
      <point x="305" y="536"/>
      <point x="233" y="536" type="curve" smooth="yes"/>
      <point x="140" y="536"/>
      <point x="105" y="470"/>
      <point x="77" y="337" type="curve" smooth="yes"/>
    </contour>
    <contour>
      <point x="132" y="14" type="curve" smooth="yes"/>
      <point x="94" y="14"/>
      <point x="62" y="34"/>
      <point x="46" y="57" type="curve"/>
      <point x="102" y="327" type="line" smooth="yes"/>
      <point x="126" y="445"/>
      <point x="155" y="511"/>
      <point x="228" y="511" type="curve" smooth="yes"/>
      <point x="288" y="511"/>
      <point x="316" y="466"/>
      <point x="316" y="375" type="curve" smooth="yes"/>
      <point x="316" y="246"/>
      <point x="256" y="14"/>
    </contour>
  </outline>
</glyph>
<glyph name="sigma1" format="2">
  <advance width="257"/>
  <unicode hex="03C2"/>
  <anchor x="28" y="-211" name="bottom"/>
  <anchor x="185" y="526" name="top"/>
  <outline>
    <contour>
      <point x="61" y="-211" type="curve"/>
      <point x="96" y="-211" type="line"/>
      <point x="130" y="-175"/>
      <point x="174" y="-114"/>
      <point x="174" y="-59" type="curve" smooth="yes"/>
      <point x="174" y="-16"/>
      <point x="152" y="4"/>
      <point x="121" y="28" type="curve" smooth="yes"/>
      <point x="73" y="65"/>
      <point x="53" y="98"/>
      <point x="53" y="177" type="curve" smooth="yes"/>
      <point x="53" y="283"/>
      <point x="116" y="511"/>
      <point x="236" y="511" type="curve" smooth="yes"/>
      <point x="260" y="511"/>
      <point x="275" y="506"/>
      <point x="289" y="500" type="curve"/>
      <point x="298" y="525" type="line"/>
      <point x="283" y="531"/>
      <point x="264" y="536"/>
      <point x="237" y="536" type="curve" smooth="yes"/>
      <point x="102" y="536"/>
      <point x="26" y="325"/>
      <point x="26" y="177" type="curve" smooth="yes"/>
      <point x="26" y="78"/>
      <point x="55" y="43"/>
      <point x="101" y="9" type="curve" smooth="yes"/>
      <point x="132" y="-14"/>
      <point x="147" y="-34"/>
      <point x="147" y="-62" type="curve" smooth="yes"/>
      <point x="147" y="-112"/>
      <point x="102" y="-170"/>
    </contour>
  </outline>
</glyph>
<glyph name="sigma" format="2">
  <advance width="361"/>
  <unicode hex="03C3"/>
  <anchor x="125" y="0" name="bottom"/>
  <anchor x="237" y="526" name="top"/>
  <outline>
    <contour>
      <point x="134" y="-10" type="curve" smooth="yes"/>
      <point x="281" y="-10"/>
      <point x="322" y="237"/>
      <point x="322" y="400" type="curve" smooth="yes"/>
      <point x="322" y="433"/>
      <point x="318" y="474"/>
      <point x="315" y="501" type="curve"/>
      <point x="394" y="501" type="line"/>
      <point x="399" y="526" type="line"/>
      <point x="254" y="526" type="line" smooth="yes"/>
      <point x="94" y="526"/>
      <point x="30" y="306"/>
      <point x="30" y="148" type="curve" smooth="yes"/>
      <point x="30" y="42"/>
      <point x="67" y="-10"/>
    </contour>
    <contour>
      <point x="136" y="15" type="curve" smooth="yes"/>
      <point x="86" y="15"/>
      <point x="57" y="56"/>
      <point x="57" y="149" type="curve" smooth="yes"/>
      <point x="57" y="298"/>
      <point x="115" y="501"/>
      <point x="256" y="501" type="curve" smooth="yes"/>
      <point x="290" y="501" type="line"/>
      <point x="293" y="475"/>
      <point x="295" y="436"/>
      <point x="295" y="401" type="curve" smooth="yes"/>
      <point x="295" y="250"/>
      <point x="258" y="15"/>
    </contour>
  </outline>
</glyph>
<glyph name="tau" format="2">
  <advance width="213"/>
  <unicode hex="03C4"/>
  <anchor x="51" y="0" name="bottom"/>
  <anchor x="163" y="526" name="top"/>
  <outline>
    <contour>
      <point x="110" y="-12" type="curve" smooth="yes"/>
      <point x="128" y="-12"/>
      <point x="141" y="-9"/>
      <point x="152" y="-6" type="curve"/>
      <point x="152" y="19" type="line"/>
      <point x="141" y="16"/>
      <point x="129" y="13"/>
      <point x="113" y="13" type="curve" smooth="yes"/>
      <point x="82" y="13"/>
      <point x="63" y="29"/>
      <point x="63" y="63" type="curve" smooth="yes"/>
      <point x="63" y="84"/>
      <point x="67" y="103"/>
      <point x="73" y="133" type="curve" smooth="yes"/>
      <point x="151" y="501" type="line"/>
      <point x="255" y="501" type="line"/>
      <point x="260" y="526" type="line"/>
      <point x="78" y="526" type="line"/>
      <point x="39" y="516" type="line"/>
      <point x="36" y="501" type="line"/>
      <point x="125" y="501" type="line"/>
      <point x="47" y="138" type="line" smooth="yes"/>
      <point x="39" y="102"/>
      <point x="36" y="78"/>
      <point x="36" y="61" type="curve" smooth="yes"/>
      <point x="36" y="12"/>
      <point x="66" y="-12"/>
    </contour>
  </outline>
</glyph>
<glyph name="chi" format="2">
  <advance width="273"/>
  <unicode hex="03C7"/>
  <anchor x="30" y="-240" name="bottom"/>
  <anchor x="193" y="526" name="top"/>
  <anchor x="309" y="526" name="topright"/>
  <outline>
    <contour>
      <point x="-113" y="-240" type="line"/>
      <point x="-85" y="-240" type="line"/>
      <point x="99" y="120" type="line"/>
      <point x="94" y="-165" type="line" smooth="yes"/>
      <point x="93" y="-215"/>
      <point x="109" y="-240"/>
      <point x="148" y="-240" type="curve" smooth="yes"/>
      <point x="158" y="-240"/>
      <point x="164" y="-238"/>
      <point x="170" y="-236" type="curve"/>
      <point x="171" y="-211" type="line"/>
      <point x="166" y="-213"/>
      <point x="160" y="-215"/>
      <point x="150" y="-215" type="curve" smooth="yes"/>
      <point x="126" y="-215"/>
      <point x="119" y="-198"/>
      <point x="120" y="-161" type="curve" smooth="yes"/>
      <point x="125" y="156" type="line"/>
      <point x="309" y="526" type="line"/>
      <point x="281" y="526" type="line"/>
      <point x="122" y="205" type="line"/>
      <point x="127" y="455" type="line" smooth="yes"/>
      <point x="128" y="504"/>
      <point x="114" y="531"/>
      <point x="75" y="531" type="curve" smooth="yes"/>
      <point x="63" y="531"/>
      <point x="55" y="529"/>
      <point x="48" y="526" type="curve"/>
      <point x="50" y="502" type="line"/>
      <point x="56" y="505"/>
      <point x="63" y="506"/>
      <point x="71" y="506" type="curve" smooth="yes"/>
      <point x="93" y="506"/>
      <point x="102" y="490"/>
      <point x="101" y="454" type="curve" smooth="yes"/>
      <point x="97" y="170" type="line"/>
    </contour>
  </outline>
</glyph>
<glyph name="psi" format="2">
  <advance width="391"/>
  <unicode hex="03C8"/>
  <anchor x="89" y="-240" name="bottom"/>
  <anchor x="303" y="765" name="top"/>
  <outline>
    <contour>
      <point x="77" y="-240" type="line"/>
      <point x="103" y="-240" type="line"/>
      <point x="152" y="-12" type="line"/>
      <point x="339" y="-10"/>
      <point x="371" y="310"/>
      <point x="379" y="526" type="curve"/>
      <point x="354" y="526" type="line"/>
      <point x="346" y="312"/>
      <point x="314" y="17"/>
      <point x="157" y="13" type="curve"/>
      <point x="317" y="765" type="line"/>
      <point x="291" y="765" type="line"/>
      <point x="131" y="13" type="line"/>
      <point x="83" y="19"/>
      <point x="48" y="52"/>
      <point x="48" y="116" type="curve" smooth="yes"/>
      <point x="48" y="158"/>
      <point x="57" y="200"/>
      <point x="67" y="246" type="curve" smooth="yes"/>
      <point x="128" y="526" type="line"/>
      <point x="102" y="526" type="line"/>
      <point x="41" y="246" type="line" smooth="yes"/>
      <point x="31" y="198"/>
      <point x="23" y="157"/>
      <point x="23" y="116" type="curve" smooth="yes"/>
      <point x="23" y="38"/>
      <point x="68" y="-7"/>
      <point x="126" y="-11" type="curve"/>
    </contour>
  </outline>
</glyph>
<glyph name="omega" format="2">
  <advance width="397"/>
  <unicode hex="03C9"/>
  <anchor x="143" y="0" name="bottom"/>
  <anchor x="255" y="526" name="top"/>
  <outline>
    <contour>
      <point x="79" y="-10" type="curve" smooth="yes"/>
      <point x="124" y="-10"/>
      <point x="144" y="15"/>
      <point x="159" y="51" type="curve"/>
      <point x="159" y="11"/>
      <point x="183" y="-10"/>
      <point x="215" y="-10" type="curve" smooth="yes"/>
      <point x="333" y="-10"/>
      <point x="374" y="250"/>
      <point x="374" y="408" type="curve" smooth="yes"/>
      <point x="374" y="451"/>
      <point x="370" y="502"/>
      <point x="367" y="526" type="curve"/>
      <point x="343" y="526" type="line"/>
      <point x="345" y="501"/>
      <point x="347" y="452"/>
      <point x="347" y="409" type="curve" smooth="yes"/>
      <point x="347" y="251"/>
      <point x="307" y="15"/>
      <point x="218" y="15" type="curve" smooth="yes"/>
      <point x="195" y="15"/>
      <point x="181" y="34"/>
      <point x="181" y="65" type="curve" smooth="yes"/>
      <point x="181" y="98"/>
      <point x="185" y="120"/>
      <point x="199" y="187" type="curve" smooth="yes"/>
      <point x="226" y="319" type="line"/>
      <point x="200" y="319" type="line"/>
      <point x="173" y="187" type="line" smooth="yes"/>
      <point x="147" y="59"/>
      <point x="129" y="15"/>
      <point x="83" y="15" type="curve" smooth="yes"/>
      <point x="55" y="15"/>
      <point x="36" y="37"/>
      <point x="36" y="101" type="curve" smooth="yes"/>
      <point x="36" y="228"/>
      <point x="90" y="400"/>
      <point x="160" y="526" type="curve"/>
      <point x="133" y="526" type="line"/>
      <point x="66" y="404"/>
      <point x="9" y="237"/>
      <point x="9" y="101" type="curve" smooth="yes"/>
      <point x="9" y="19"/>
      <point x="43" y="-10"/>
    </contour>
  </outline>
</glyph>
<glyph name="KaiSymbol" format="2">
  <advance width="335"/>
  <unicode hex="03CF"/>
  <outline>
    <contour>
      <point x="46" y="-240" type="curve" smooth="yes"/>
      <point x="160" y="-240"/>
      <point x="234" y="-179"/>
      <point x="278" y="0" type="curve"/>
      <point x="186" y="400" type="line"/>
      <point x="418" y="714" type="line"/>
      <point x="386" y="714" type="line"/>
      <point x="165" y="414" type="line"/>
      <point x="96" y="318" type="line"/>
      <point x="180" y="714" type="line"/>
      <point x="154" y="714" type="line"/>
      <point x="2" y="0" type="line"/>
      <point x="28" y="0" type="line"/>
      <point x="88" y="282" type="line"/>
      <point x="165" y="377" type="line"/>
      <point x="249" y="0" type="line"/>
      <point x="210" y="-165"/>
      <point x="141" y="-212"/>
      <point x="49" y="-212" type="curve" smooth="yes"/>
      <point x="6" y="-212"/>
      <point x="-35" y="-198"/>
      <point x="-63" y="-175" type="curve"/>
      <point x="-70" y="-206" type="line"/>
      <point x="-49" y="-222"/>
      <point x="-4" y="-240"/>
    </contour>
  </outline>
</glyph>
<glyph name="uni03D0" format="2">
  <advance width="353"/>
  <unicode hex="03D0"/>
  <anchor x="119" y="-10" name="bottom"/>
  <anchor x="284" y="765" name="top"/>
  <outline>
    <contour>
      <point x="123" y="-10" type="curve" smooth="yes"/>
      <point x="240" y="-10"/>
      <point x="304" y="139"/>
      <point x="304" y="301" type="curve" smooth="yes"/>
      <point x="304" y="395"/>
      <point x="269" y="437"/>
      <point x="204" y="437" type="curve" smooth="yes"/>
      <point x="145" y="437"/>
      <point x="99" y="396"/>
      <point x="70" y="346" type="curve"/>
      <point x="91" y="455"/>
      <point x="116" y="537"/>
      <point x="152" y="610" type="curve"/>
      <point x="171" y="597"/>
      <point x="209" y="582"/>
      <point x="252" y="582" type="curve" smooth="yes"/>
      <point x="345" y="582"/>
      <point x="384" y="634"/>
      <point x="384" y="685" type="curve" smooth="yes"/>
      <point x="384" y="738"/>
      <point x="350" y="765"/>
      <point x="301" y="765" type="curve" smooth="yes"/>
      <point x="164" y="765"/>
      <point x="75" y="543"/>
      <point x="40" y="319" type="curve" smooth="yes"/>
      <point x="30" y="255"/>
      <point x="23" y="195"/>
      <point x="23" y="132" type="curve" smooth="yes"/>
      <point x="23" y="28"/>
      <point x="61" y="-10"/>
    </contour>
    <contour>
      <point x="127" y="15" type="curve" smooth="yes"/>
      <point x="82" y="15"/>
      <point x="50" y="42"/>
      <point x="50" y="135" type="curve" smooth="yes"/>
      <point x="50" y="192"/>
      <point x="56" y="255"/>
      <point x="65" y="307" type="curve"/>
      <point x="103" y="370"/>
      <point x="147" y="412"/>
      <point x="201" y="412" type="curve" smooth="yes"/>
      <point x="251" y="412"/>
      <point x="278" y="379"/>
      <point x="278" y="304" type="curve" smooth="yes"/>
      <point x="278" y="156"/>
      <point x="225" y="15"/>
    </contour>
    <contour>
      <point x="252" y="607" type="curve" smooth="yes"/>
      <point x="216" y="607"/>
      <point x="184" y="620"/>
      <point x="165" y="633" type="curve"/>
      <point x="198" y="692"/>
      <point x="243" y="740"/>
      <point x="298" y="740" type="curve" smooth="yes"/>
      <point x="338" y="740"/>
      <point x="357" y="719"/>
      <point x="357" y="687" type="curve" smooth="yes"/>
      <point x="357" y="646"/>
      <point x="330" y="607"/>
    </contour>
  </outline>
</glyph>
<glyph name="uni03D2" format="2">
  <advance width="266"/>
  <unicode hex="03D2"/>
  <anchor x="229" y="714" name="top"/>
  <outline>
    <contour>
      <point x="63" y="0" type="line"/>
      <point x="89" y="0" type="line"/>
      <point x="148" y="278" type="line"/>
      <point x="207" y="400"/>
      <point x="266" y="522"/>
      <point x="325" y="644" type="curve" smooth="yes"/>
      <point x="343" y="680"/>
      <point x="354" y="695"/>
      <point x="379" y="695" type="curve" smooth="yes"/>
      <point x="386" y="695"/>
      <point x="391" y="694"/>
      <point x="395" y="693" type="curve"/>
      <point x="395" y="717" type="line"/>
      <point x="392" y="718"/>
      <point x="387" y="720"/>
      <point x="378" y="720" type="curve" smooth="yes"/>
      <point x="337" y="720"/>
      <point x="324" y="700"/>
      <point x="301" y="652" type="curve" smooth="yes"/>
      <point x="248" y="541"/>
      <point x="195" y="430"/>
      <point x="142" y="319" type="curve"/>
      <point x="108" y="714" type="line"/>
      <point x="82" y="714" type="line"/>
      <point x="122" y="278" type="line"/>
    </contour>
  </outline>
</glyph>
<glyph name="uni03D6" format="2">
  <advance width="399"/>
  <unicode hex="03D6"/>
  <outline>
    <contour>
      <point x="79" y="-10" type="curve" smooth="yes"/>
      <point x="124" y="-10"/>
      <point x="144" y="15"/>
      <point x="159" y="51" type="curve"/>
      <point x="159" y="11"/>
      <point x="183" y="-10"/>
      <point x="215" y="-10" type="curve" smooth="yes"/>
      <point x="333" y="-10"/>
      <point x="374" y="250"/>
      <point x="374" y="408" type="curve" smooth="yes"/>
      <point x="374" y="439"/>
      <point x="372" y="475"/>
      <point x="370" y="501" type="curve"/>
      <point x="440" y="501" type="line"/>
      <point x="445" y="526" type="line"/>
      <point x="92" y="526" type="line"/>
      <point x="48" y="517" type="line"/>
      <point x="45" y="501" type="line"/>
      <point x="120" y="501" type="line"/>
      <point x="59" y="382"/>
      <point x="9" y="228"/>
      <point x="9" y="101" type="curve" smooth="yes"/>
      <point x="9" y="19"/>
      <point x="43" y="-10"/>
    </contour>
    <contour>
      <point x="83" y="15" type="curve" smooth="yes"/>
      <point x="55" y="15"/>
      <point x="36" y="37"/>
      <point x="36" y="101" type="curve" smooth="yes"/>
      <point x="36" y="220"/>
      <point x="83" y="378"/>
      <point x="147" y="501" type="curve"/>
      <point x="345" y="501" type="line"/>
      <point x="346" y="475"/>
      <point x="347" y="440"/>
      <point x="347" y="409" type="curve" smooth="yes"/>
      <point x="347" y="251"/>
      <point x="307" y="15"/>
      <point x="218" y="15" type="curve" smooth="yes"/>
      <point x="195" y="15"/>
      <point x="181" y="34"/>
      <point x="181" y="65" type="curve" smooth="yes"/>
      <point x="181" y="98"/>
      <point x="185" y="120"/>
      <point x="199" y="187" type="curve" smooth="yes"/>
      <point x="226" y="319" type="line"/>
      <point x="200" y="319" type="line"/>
      <point x="173" y="187" type="line" smooth="yes"/>
      <point x="147" y="59"/>
      <point x="129" y="15"/>
    </contour>
  </outline>
</glyph>
<glyph name="uni03D7" format="2">
  <advance width="377"/>
  <unicode hex="03D7"/>
  <outline>
    <contour>
      <point x="219" y="-240" type="curve" smooth="yes"/>
      <point x="257" y="-240"/>
      <point x="286" y="-219"/>
      <point x="298" y="-167" type="curve" smooth="yes"/>
      <point x="339" y="19" type="line"/>
      <point x="333" y="17"/>
      <point x="325" y="15"/>
      <point x="315" y="15" type="curve" smooth="yes"/>
      <point x="273" y="15"/>
      <point x="256" y="43"/>
      <point x="256" y="99" type="curve" smooth="yes"/>
      <point x="256" y="225"/>
      <point x="302" y="361"/>
      <point x="407" y="527" type="curve"/>
      <point x="375" y="526" type="line"/>
      <point x="62" y="122" type="line"/>
      <point x="99" y="186"/>
      <point x="145" y="314"/>
      <point x="145" y="428" type="curve" smooth="yes"/>
      <point x="145" y="504"/>
      <point x="119" y="537"/>
      <point x="68" y="537" type="curve" smooth="yes"/>
      <point x="53" y="537"/>
      <point x="42" y="535"/>
      <point x="35" y="533" type="curve"/>
      <point x="35" y="508" type="line"/>
      <point x="41" y="510"/>
      <point x="53" y="512"/>
      <point x="62" y="512" type="curve" smooth="yes"/>
      <point x="100" y="512"/>
      <point x="118" y="487"/>
      <point x="118" y="428" type="curve" smooth="yes"/>
      <point x="118" y="312"/>
      <point x="76" y="175"/>
      <point x="-35" y="0" type="curve"/>
      <point x="-1" y="0" type="line"/>
      <point x="301" y="389" type="line"/>
      <point x="253" y="286"/>
      <point x="229" y="192"/>
      <point x="229" y="99" type="curve" smooth="yes"/>
      <point x="229" y="24"/>
      <point x="257" y="-8"/>
      <point x="306" y="-10" type="curve"/>
      <point x="273" y="-164" type="line" smooth="yes"/>
      <point x="265" y="-202"/>
      <point x="246" y="-215"/>
      <point x="222" y="-215" type="curve" smooth="yes"/>
      <point x="206" y="-215"/>
      <point x="192" y="-212"/>
      <point x="178" y="-206" type="curve"/>
      <point x="178" y="-232" type="line"/>
      <point x="190" y="-237"/>
      <point x="203" y="-240"/>
    </contour>
  </outline>
</glyph>
<glyph name="uni03D8" format="2">
  <advance width="378"/>
  <unicode hex="03D8"/>
  <anchor x="133" y="0" name="bottom"/>
  <anchor x="285" y="714" name="top"/>
  <outline>
    <contour>
      <point x="109" y="0" type="line"/>
      <point x="135" y="0" type="line"/>
      <point x="173" y="181" type="line"/>
      <point x="312" y="190"/>
      <point x="383" y="389"/>
      <point x="383" y="568" type="curve" smooth="yes"/>
      <point x="383" y="678"/>
      <point x="340" y="724"/>
      <point x="268" y="724" type="curve" smooth="yes"/>
      <point x="105" y="724"/>
      <point x="48" y="474"/>
      <point x="48" y="342" type="curve" smooth="yes"/>
      <point x="48" y="231"/>
      <point x="89" y="190"/>
      <point x="147" y="181" type="curve"/>
    </contour>
    <contour>
      <point x="166" y="207" type="curve" smooth="yes"/>
      <point x="108" y="207"/>
      <point x="75" y="245"/>
      <point x="75" y="344" type="curve" smooth="yes"/>
      <point x="75" y="466"/>
      <point x="132" y="699"/>
      <point x="266" y="699" type="curve" smooth="yes"/>
      <point x="324" y="699"/>
      <point x="356" y="661"/>
      <point x="356" y="565" type="curve" smooth="yes"/>
      <point x="356" y="412"/>
      <point x="296" y="207"/>
    </contour>
  </outline>
</glyph>
<glyph name="uni03D9" format="2">
  <advance width="363"/>
  <unicode hex="03D9"/>
  <anchor x="75" y="-240" name="bottom"/>
  <anchor x="238" y="526" name="top"/>
  <outline>
    <contour>
      <point x="56" y="-240" type="line"/>
      <point x="82" y="-240" type="line"/>
      <point x="132" y="-10" type="line"/>
      <point x="268" y="-9"/>
      <point x="331" y="235"/>
      <point x="331" y="388" type="curve" smooth="yes"/>
      <point x="331" y="491"/>
      <point x="294" y="536"/>
      <point x="232" y="536" type="curve" smooth="yes"/>
      <point x="79" y="536"/>
      <point x="28" y="258"/>
      <point x="28" y="137" type="curve" smooth="yes"/>
      <point x="28" y="47"/>
      <point x="58" y="3"/>
      <point x="106" y="-8" type="curve"/>
    </contour>
    <contour>
      <point x="132" y="15" type="curve" smooth="yes"/>
      <point x="82" y="15"/>
      <point x="55" y="55"/>
      <point x="55" y="137" type="curve" smooth="yes"/>
      <point x="55" y="247"/>
      <point x="108" y="511"/>
      <point x="230" y="511" type="curve" smooth="yes"/>
      <point x="279" y="511"/>
      <point x="304" y="470"/>
      <point x="304" y="388" type="curve" smooth="yes"/>
      <point x="304" y="257"/>
      <point x="250" y="15"/>
    </contour>
  </outline>
</glyph>
<glyph name="uni03DA" format="2">
  <advance width="322"/>
  <unicode hex="03DA"/>
  <anchor x="105" y="0" name="bottom"/>
  <anchor x="257" y="714" name="top"/>
  <outline>
    <contour>
      <point x="147" y="0" type="line"/>
      <point x="173" y="0" type="line"/>
      <point x="213" y="180" type="line"/>
      <point x="189" y="180" type="line" smooth="yes"/>
      <point x="106" y="180"/>
      <point x="71" y="234"/>
      <point x="71" y="340" type="curve" smooth="yes"/>
      <point x="71" y="455"/>
      <point x="133" y="700"/>
      <point x="315" y="700" type="curve" smooth="yes"/>
      <point x="353" y="700"/>
      <point x="382" y="689"/>
      <point x="399" y="676" type="curve"/>
      <point x="413" y="699" type="line"/>
      <point x="394" y="713"/>
      <point x="358" y="725"/>
      <point x="318" y="725" type="curve" smooth="yes"/>
      <point x="112" y="725"/>
      <point x="44" y="471"/>
      <point x="44" y="339" type="curve" smooth="yes"/>
      <point x="44" y="213"/>
      <point x="91" y="157"/>
      <point x="181" y="155" type="curve"/>
    </contour>
  </outline>
</glyph>
<glyph name="uni03DB" format="2">
  <advance width="259"/>
  <unicode hex="03DB"/>
  <anchor x="37" y="-176" name="bottom"/>
  <anchor x="186" y="526" name="top"/>
  <outline>
    <contour>
      <point x="41" y="-176" type="curve" smooth="yes"/>
      <point x="137" y="-176"/>
      <point x="174" y="-120"/>
      <point x="174" y="-59" type="curve" smooth="yes"/>
      <point x="174" y="-17"/>
      <point x="152" y="3"/>
      <point x="121" y="27" type="curve" smooth="yes"/>
      <point x="74" y="64"/>
      <point x="53" y="91"/>
      <point x="53" y="177" type="curve" smooth="yes"/>
      <point x="53" y="301"/>
      <point x="121" y="511"/>
      <point x="236" y="511" type="curve" smooth="yes"/>
      <point x="260" y="511"/>
      <point x="275" y="506"/>
      <point x="289" y="500" type="curve"/>
      <point x="298" y="525" type="line"/>
      <point x="283" y="531"/>
      <point x="264" y="536"/>
      <point x="237" y="536" type="curve" smooth="yes"/>
      <point x="100" y="536"/>
      <point x="26" y="325"/>
      <point x="26" y="177" type="curve" smooth="yes"/>
      <point x="26" y="78"/>
      <point x="55" y="44"/>
      <point x="101" y="9" type="curve" smooth="yes"/>
      <point x="132" y="-14"/>
      <point x="147" y="-32"/>
      <point x="147" y="-62" type="curve" smooth="yes"/>
      <point x="147" y="-107"/>
      <point x="120" y="-151"/>
      <point x="42" y="-151" type="curve" smooth="yes"/>
      <point x="17" y="-151"/>
      <point x="-6" y="-147"/>
      <point x="-19" y="-141" type="curve"/>
      <point x="-19" y="-169" type="line"/>
      <point x="-6" y="-173"/>
      <point x="17" y="-176"/>
    </contour>
  </outline>
</glyph>
<glyph name="uni03DC" format="2">
  <advance width="268"/>
  <unicode hex="03DC"/>
  <anchor x="78" y="0" name="bottom"/>
  <anchor x="230" y="714" name="top"/>
  <outline>
    <contour>
      <point x="2" y="0" type="line"/>
      <point x="28" y="0" type="line"/>
      <point x="105" y="362" type="line"/>
      <point x="227" y="362" type="line"/>
      <point x="201" y="247" type="line"/>
      <point x="227" y="247" type="line"/>
      <point x="258" y="387" type="line"/>
      <point x="110" y="387" type="line"/>
      <point x="175" y="689" type="line"/>
      <point x="335" y="689" type="line"/>
      <point x="340" y="714" type="line"/>
      <point x="154" y="714" type="line"/>
    </contour>
  </outline>
</glyph>
<glyph name="uni03DE" format="2">
  <advance width="373"/>
  <unicode hex="03DE"/>
  <anchor x="131" y="0" name="bottom"/>
  <anchor x="283" y="714" name="top"/>
  <outline>
    <contour>
      <point x="302" y="-9" type="curve" smooth="yes"/>
      <point x="315" y="-9"/>
      <point x="329" y="-6"/>
      <point x="335" y="-4" type="curve"/>
      <point x="337" y="22" type="line"/>
      <point x="331" y="19"/>
      <point x="317" y="16"/>
      <point x="304" y="16" type="curve" smooth="yes"/>
      <point x="272" y="16"/>
      <point x="256" y="34"/>
      <point x="256" y="70" type="curve" smooth="yes"/>
      <point x="256" y="93"/>
      <point x="261" y="126"/>
      <point x="271" y="167" type="curve" smooth="yes"/>
      <point x="325" y="386" type="line"/>
      <point x="125" y="386" type="line"/>
      <point x="164" y="543" type="line" smooth="yes"/>
      <point x="172" y="576"/>
      <point x="182" y="615"/>
      <point x="182" y="649" type="curve" smooth="yes"/>
      <point x="182" y="693"/>
      <point x="159" y="724"/>
      <point x="112" y="724" type="curve" smooth="yes"/>
      <point x="95" y="724"/>
      <point x="80" y="720"/>
      <point x="69" y="716" type="curve"/>
      <point x="73" y="692" type="line"/>
      <point x="81" y="695"/>
      <point x="94" y="699"/>
      <point x="110" y="699" type="curve" smooth="yes"/>
      <point x="142" y="699"/>
      <point x="156" y="680"/>
      <point x="156" y="647" type="curve" smooth="yes"/>
      <point x="156" y="619"/>
      <point x="146" y="576"/>
      <point x="138" y="543" type="curve" smooth="yes"/>
      <point x="93" y="361" type="line"/>
      <point x="293" y="361" type="line"/>
      <point x="245" y="167" type="line" smooth="yes"/>
      <point x="235" y="126"/>
      <point x="229" y="93"/>
      <point x="229" y="65" type="curve" smooth="yes"/>
      <point x="229" y="20"/>
      <point x="254" y="-9"/>
    </contour>
  </outline>
</glyph>
<glyph name="uni03DF" format="2">
  <advance width="319"/>
  <unicode hex="03DF"/>
  <anchor x="53" y="-240" name="bottom"/>
  <anchor x="267" y="765" name="top"/>
  <outline>
    <contour>
      <point x="187" y="-240" type="curve" smooth="yes"/>
      <point x="204" y="-240"/>
      <point x="218" y="-236"/>
      <point x="225" y="-233" type="curve"/>
      <point x="225" y="-209" type="line"/>
      <point x="218" y="-212"/>
      <point x="203" y="-216"/>
      <point x="190" y="-216" type="curve" smooth="yes"/>
      <point x="157" y="-216"/>
      <point x="142" y="-198"/>
      <point x="142" y="-163" type="curve" smooth="yes"/>
      <point x="142" y="-120"/>
      <point x="159" y="-72"/>
      <point x="173" y="-32" type="curve" smooth="yes"/>
      <point x="285" y="283" type="line"/>
      <point x="285" y="305" type="line"/>
      <point x="59" y="247" type="line"/>
      <point x="170" y="561" type="line" smooth="yes"/>
      <point x="182" y="596"/>
      <point x="200" y="650"/>
      <point x="200" y="689" type="curve" smooth="yes"/>
      <point x="200" y="729"/>
      <point x="184" y="765"/>
      <point x="130" y="765" type="curve" smooth="yes"/>
      <point x="112" y="765"/>
      <point x="97" y="761"/>
      <point x="90" y="758" type="curve"/>
      <point x="90" y="734" type="line"/>
      <point x="96" y="737"/>
      <point x="111" y="741"/>
      <point x="128" y="741" type="curve" smooth="yes"/>
      <point x="160" y="741"/>
      <point x="173" y="721"/>
      <point x="173" y="686" type="curve" smooth="yes"/>
      <point x="173" y="649"/>
      <point x="156" y="597"/>
      <point x="143" y="561" type="curve" smooth="yes"/>
      <point x="27" y="235" type="line"/>
      <point x="27" y="214" type="line"/>
      <point x="254" y="271" type="line"/>
      <point x="146" y="-32" type="line" smooth="yes"/>
      <point x="132" y="-71"/>
      <point x="115" y="-121"/>
      <point x="115" y="-166" type="curve" smooth="yes"/>
      <point x="115" y="-209"/>
      <point x="135" y="-240"/>
    </contour>
  </outline>
</glyph>
<glyph name="uni03F0" format="2">
  <advance width="377"/>
  <unicode hex="03F0"/>
  <anchor x="133" y="0" name="bottom"/>
  <anchor x="245" y="526" name="top"/>
  <outline>
    <contour>
      <point x="312" y="-10" type="curve" smooth="yes"/>
      <point x="323" y="-10"/>
      <point x="332" y="-8"/>
      <point x="339" y="-5" type="curve"/>
      <point x="339" y="19" type="line"/>
      <point x="333" y="17"/>
      <point x="325" y="15"/>
      <point x="315" y="15" type="curve" smooth="yes"/>
      <point x="273" y="15"/>
      <point x="256" y="43"/>
      <point x="256" y="99" type="curve" smooth="yes"/>
      <point x="256" y="225"/>
      <point x="302" y="361"/>
      <point x="407" y="527" type="curve"/>
      <point x="375" y="526" type="line"/>
      <point x="62" y="122" type="line"/>
      <point x="99" y="186"/>
      <point x="145" y="314"/>
      <point x="145" y="428" type="curve" smooth="yes"/>
      <point x="145" y="504"/>
      <point x="119" y="537"/>
      <point x="68" y="537" type="curve" smooth="yes"/>
      <point x="53" y="537"/>
      <point x="42" y="535"/>
      <point x="35" y="533" type="curve"/>
      <point x="35" y="508" type="line"/>
      <point x="41" y="510"/>
      <point x="53" y="512"/>
      <point x="62" y="512" type="curve" smooth="yes"/>
      <point x="100" y="512"/>
      <point x="118" y="487"/>
      <point x="118" y="428" type="curve" smooth="yes"/>
      <point x="118" y="312"/>
      <point x="76" y="175"/>
      <point x="-35" y="0" type="curve"/>
      <point x="-1" y="0" type="line"/>
      <point x="301" y="389" type="line"/>
      <point x="253" y="286"/>
      <point x="229" y="192"/>
      <point x="229" y="99" type="curve" smooth="yes"/>
      <point x="229" y="21"/>
      <point x="259" y="-10"/>
    </contour>
  </outline>
</glyph>
<glyph name="uni03F1" format="2">
  <advance width="368"/>
  <unicode hex="03F1"/>
  <anchor x="77" y="-240" name="bottom"/>
  <anchor x="240" y="526" name="top"/>
  <outline>
    <contour>
      <point x="190" y="-240" type="curve"/>
      <point x="217" y="-240" type="line"/>
      <point x="218" y="-236"/>
      <point x="221" y="-221"/>
      <point x="221" y="-210" type="curve" smooth="yes"/>
      <point x="221" y="-166"/>
      <point x="192" y="-157"/>
      <point x="151" y="-157" type="curve" smooth="yes"/>
      <point x="68" y="-157"/>
      <point x="44" y="-110"/>
      <point x="44" y="-17" type="curve" smooth="yes"/>
      <point x="44" y="2"/>
      <point x="44" y="13"/>
      <point x="44" y="28" type="curve"/>
      <point x="46" y="28" type="line"/>
      <point x="64" y="9"/>
      <point x="95" y="-12"/>
      <point x="139" y="-12" type="curve" smooth="yes"/>
      <point x="285" y="-12"/>
      <point x="334" y="225"/>
      <point x="334" y="370" type="curve" smooth="yes"/>
      <point x="334" y="483"/>
      <point x="298" y="536"/>
      <point x="229" y="536" type="curve" smooth="yes"/>
      <point x="97" y="536"/>
      <point x="51" y="336"/>
      <point x="29" y="177" type="curve" smooth="yes"/>
      <point x="19" y="106"/>
      <point x="17" y="38"/>
      <point x="17" y="-18" type="curve" smooth="yes"/>
      <point x="17" y="-125"/>
      <point x="51" y="-182"/>
      <point x="146" y="-182" type="curve" smooth="yes"/>
      <point x="179" y="-182"/>
      <point x="194" y="-189"/>
      <point x="194" y="-213" type="curve" smooth="yes"/>
      <point x="194" y="-226"/>
      <point x="191" y="-235"/>
    </contour>
    <contour>
      <point x="142" y="13" type="curve" smooth="yes"/>
      <point x="96" y="13"/>
      <point x="63" y="41"/>
      <point x="46" y="65" type="curve"/>
      <point x="59" y="286"/>
      <point x="113" y="511"/>
      <point x="227" y="511" type="curve" smooth="yes"/>
      <point x="280" y="511"/>
      <point x="307" y="470"/>
      <point x="307" y="368" type="curve" smooth="yes"/>
      <point x="307" y="237"/>
      <point x="263" y="13"/>
    </contour>
  </outline>
</glyph>
<glyph name="uni03FA" format="2">
  <advance width="460"/>
  <unicode hex="03FA"/>
  <anchor x="174" y="0" name="bottom"/>
  <anchor x="326" y="714" name="top"/>
  <outline>
    <contour>
      <point x="4" y="0" type="line"/>
      <point x="30" y="0" type="line"/>
      <point x="149" y="568" type="line" smooth="yes"/>
      <point x="158" y="612"/>
      <point x="164" y="643"/>
      <point x="172" y="684" type="curve"/>
      <point x="174" y="684" type="line"/>
      <point x="197" y="234" type="line"/>
      <point x="228" y="234" type="line"/>
      <point x="432" y="679" type="line"/>
      <point x="434" y="679" type="line"/>
      <point x="426" y="648"/>
      <point x="420" y="622"/>
      <point x="411" y="579" type="curve" smooth="yes"/>
      <point x="289" y="0" type="line"/>
      <point x="315" y="0" type="line"/>
      <point x="466" y="714" type="line"/>
      <point x="421" y="714" type="line"/>
      <point x="219" y="272" type="line"/>
      <point x="218" y="272" type="line"/>
      <point x="196" y="714" type="line"/>
      <point x="155" y="714" type="line"/>
    </contour>
  </outline>
</glyph>
<glyph name="uni03FB" format="2">
  <advance width="332"/>
  <unicode hex="03FB"/>
  <anchor x="59" y="-240" name="bottom"/>
  <anchor x="222" y="526" name="top"/>
  <outline>
    <contour>
      <point x="-42" y="-240" type="line"/>
      <point x="-17" y="-240" type="line"/>
      <point x="107" y="343" type="line" smooth="yes"/>
      <point x="118" y="393"/>
      <point x="125" y="430"/>
      <point x="132" y="469" type="curve"/>
      <point x="131" y="196" type="line"/>
      <point x="167" y="196" type="line"/>
      <point x="282" y="469" type="line"/>
      <point x="272" y="427"/>
      <point x="262" y="382"/>
      <point x="251" y="330" type="curve" smooth="yes"/>
      <point x="181" y="0" type="line"/>
      <point x="207" y="0" type="line"/>
      <point x="319" y="526" type="line"/>
      <point x="279" y="526" type="line"/>
      <point x="154" y="226" type="line"/>
      <point x="156" y="526" type="line"/>
      <point x="120" y="526" type="line"/>
    </contour>
  </outline>
</glyph>
<glyph name="uni03FC" format="2">
  <advance width="371"/>
  <unicode hex="03FC"/>
  <anchor x="79" y="-240" name="bottom"/>
  <anchor x="242" y="526" name="top"/>
  <outline>
    <contour>
      <point x="-81" y="-118" type="line"/>
      <point x="127" y="-118" type="line"/>
      <point x="132" y="-93" type="line"/>
      <point x="-76" y="-93" type="line"/>
    </contour>
    <component base="rho"/>
  </outline>
</glyph>
<glyph name="afii10042" format="2">
  <advance width="582"/>
  <unicode hex="0428"/>
  <anchor x="235" y="0" name="bottom"/>
  <anchor x="387" y="714" name="top"/>
  <outline>
    <contour>
      <point x="2" y="0" type="line"/>
      <point x="466" y="0" type="line"/>
      <point x="619" y="714" type="line"/>
      <point x="593" y="714" type="line"/>
      <point x="445" y="25" type="line"/>
      <point x="252" y="25" type="line"/>
      <point x="400" y="714" type="line"/>
      <point x="374" y="714" type="line"/>
      <point x="226" y="25" type="line"/>
      <point x="33" y="25" type="line"/>
      <point x="181" y="714" type="line"/>
      <point x="155" y="714" type="line"/>
    </contour>
  </outline>
</glyph>
<glyph name="afii10043" format="2">
  <advance width="605"/>
  <unicode hex="0429"/>
  <anchor x="233" y="0" name="bottom"/>
  <anchor x="385" y="714" name="top"/>
  <outline>
    <contour>
      <point x="454" y="-172" type="line"/>
      <point x="480" y="-172" type="line"/>
      <point x="524" y="25" type="line"/>
      <point x="471" y="25" type="line"/>
      <point x="619" y="714" type="line"/>
      <point x="593" y="714" type="line"/>
      <point x="445" y="25" type="line"/>
      <point x="252" y="25" type="line"/>
      <point x="400" y="714" type="line"/>
      <point x="374" y="714" type="line"/>
      <point x="226" y="25" type="line"/>
      <point x="33" y="25" type="line"/>
      <point x="181" y="714" type="line"/>
      <point x="155" y="714" type="line"/>
      <point x="2" y="0" type="line"/>
      <point x="492" y="0" type="line"/>
    </contour>
  </outline>
</glyph>
<glyph name="afii10044" format="2">
  <advance width="418"/>
  <unicode hex="042A"/>
  <anchor x="161" y="0" name="bottom"/>
  <anchor x="313" y="714" name="top"/>
  <outline>
    <contour>
      <point x="54" y="0" type="line"/>
      <point x="165" y="0" type="line" smooth="yes"/>
      <point x="278" y="0"/>
      <point x="361" y="88"/>
      <point x="361" y="236" type="curve" smooth="yes"/>
      <point x="361" y="336"/>
      <point x="308" y="385"/>
      <point x="207" y="385" type="curve" smooth="yes"/>
      <point x="161" y="385" type="line"/>
      <point x="231" y="714" type="line"/>
      <point x="75" y="714" type="line"/>
      <point x="68" y="685" type="line"/>
      <point x="199" y="685" type="line"/>
    </contour>
    <contour>
      <point x="85" y="25" type="line"/>
      <point x="157" y="360" type="line"/>
      <point x="209" y="360" type="line" smooth="yes"/>
      <point x="289" y="360"/>
      <point x="334" y="322"/>
      <point x="334" y="238" type="curve" smooth="yes"/>
      <point x="334" y="107"/>
      <point x="273" y="25"/>
      <point x="161" y="25" type="curve" smooth="yes"/>
    </contour>
  </outline>
</glyph>
<glyph name="afii10076" format="2">
  <advance width="277"/>
  <unicode hex="043A"/>
  <anchor x="79" y="0" name="bottom"/>
  <anchor x="191" y="526" name="top"/>
  <outline>
    <contour>
      <point x="8" y="0" type="line"/>
      <point x="33" y="0" type="line"/>
      <point x="92" y="278" type="line"/>
      <point x="192" y="0" type="line"/>
      <point x="219" y="0" type="line"/>
      <point x="120" y="275" type="line"/>
      <point x="326" y="526" type="line"/>
      <point x="295" y="526" type="line"/>
      <point x="92" y="279" type="line"/>
      <point x="145" y="526" type="line"/>
      <point x="120" y="526" type="line"/>
    </contour>
  </outline>
</glyph>
<glyph name="afii10079" format="2">
  <advance width="369"/>
  <unicode hex="043D"/>
  <anchor x="129" y="0" name="bottom"/>
  <anchor x="241" y="526" name="top"/>
  <outline>
    <contour>
      <point x="7" y="0" type="line"/>
      <point x="33" y="0" type="line"/>
      <point x="90" y="263" type="line"/>
      <point x="272" y="263" type="line"/>
      <point x="216" y="0" type="line"/>
      <point x="242" y="0" type="line"/>
      <point x="354" y="526" type="line"/>
      <point x="328" y="526" type="line"/>
      <point x="278" y="288" type="line"/>
      <point x="95" y="288" type="line"/>
      <point x="145" y="526" type="line"/>
      <point x="119" y="526" type="line"/>
    </contour>
  </outline>
</glyph>
<glyph name="afii10193" format="2">
  <advance width="362"/>
  <unicode hex="045F"/>
  <anchor x="76" y="-231" name="bottom"/>
  <anchor x="237" y="526" name="top"/>
  <outline>
    <contour>
      <point x="108" y="-10" type="curve" smooth="yes"/>
      <point x="160" y="-10"/>
      <point x="204" y="23"/>
      <point x="227" y="78" type="curve"/>
      <point x="229" y="78" type="line"/>
      <point x="215" y="0" type="line"/>
      <point x="236" y="0" type="line"/>
      <point x="347" y="526" type="line"/>
      <point x="321" y="526" type="line"/>
      <point x="260" y="239" type="line" smooth="yes"/>
      <point x="229" y="90"/>
      <point x="186" y="15"/>
      <point x="111" y="15" type="curve" smooth="yes"/>
      <point x="75" y="15"/>
      <point x="52" y="34"/>
      <point x="52" y="73" type="curve" smooth="yes"/>
      <point x="52" y="107"/>
      <point x="62" y="148"/>
      <point x="70" y="187" type="curve" smooth="yes"/>
      <point x="142" y="526" type="line"/>
      <point x="116" y="526" type="line"/>
      <point x="46" y="197" type="line" smooth="yes"/>
      <point x="37" y="156"/>
      <point x="26" y="102"/>
      <point x="26" y="71" type="curve" smooth="yes"/>
      <point x="26" y="17"/>
      <point x="59" y="-10"/>
    </contour>
    <contour>
      <point x="63" y="-231" type="line"/>
      <point x="88" y="-231" type="line"/>
      <point x="140" y="-36" type="line"/>
      <point x="134" y="-36" type="line"/>
      <point x="116" y="-50" type="line"/>
    </contour>
  </outline>
</glyph>
<glyph name="uni0461" format="2">
  <advance width="506"/>
  <unicode hex="0461"/>
  <anchor x="197" y="0" name="bottom"/>
  <anchor x="309" y="526" name="top"/>
  <outline>
    <contour>
      <point x="68" y="0" type="curve"/>
      <point x="97" y="0" type="line"/>
      <point x="251" y="268" type="line"/>
      <point x="249" y="181"/>
      <point x="254" y="88"/>
      <point x="269" y="0" type="curve"/>
      <point x="297" y="0" type="line"/>
      <point x="422" y="158"/>
      <point x="493" y="322"/>
      <point x="536" y="526" type="curve"/>
      <point x="509" y="526" type="line"/>
      <point x="466" y="332"/>
      <point x="400" y="175"/>
      <point x="294" y="35" type="curve"/>
      <point x="291" y="35" type="line"/>
      <point x="269" y="199"/>
      <point x="274" y="361"/>
      <point x="305" y="526" type="curve"/>
      <point x="278" y="526" type="line"/>
      <point x="265" y="463"/>
      <point x="256" y="386"/>
      <point x="252" y="317" type="curve"/>
      <point x="132" y="110" type="line" smooth="yes"/>
      <point x="119" y="88"/>
      <point x="106" y="65"/>
      <point x="90" y="37" type="curve"/>
      <point x="88" y="37" type="line"/>
      <point x="61" y="205"/>
      <point x="64" y="365"/>
      <point x="101" y="526" type="curve"/>
      <point x="75" y="526" type="line"/>
      <point x="38" y="369"/>
      <point x="33" y="197"/>
    </contour>
  </outline>
</glyph>
<glyph name="uni0467" format="2">
  <advance width="305"/>
  <unicode hex="0467"/>
  <anchor x="97" y="0" name="bottom"/>
  <anchor x="209" y="526" name="top"/>
  <outline>
    <contour>
      <point x="-53" y="0" type="line"/>
      <point x="-26" y="0" type="line"/>
      <point x="102" y="271" type="line"/>
      <point x="140" y="271" type="line"/>
      <point x="81" y="0" type="line"/>
      <point x="107" y="0" type="line"/>
      <point x="166" y="271" type="line"/>
      <point x="201" y="271" type="line"/>
      <point x="214" y="0" type="line"/>
      <point x="240" y="0" type="line"/>
      <point x="215" y="526" type="line"/>
      <point x="195" y="526" type="line"/>
    </contour>
    <contour>
      <point x="113" y="296" type="line"/>
      <point x="173" y="424"/>
      <point x="185" y="453"/>
      <point x="197" y="484" type="curve"/>
      <point x="195" y="463"/>
      <point x="195" y="426"/>
      <point x="200" y="296" type="curve"/>
    </contour>
  </outline>
</glyph>
<glyph name="uni0488" format="2">
  <advance width="950"/>
  <unicode hex="0488"/>
  <outline>
    <contour>
      <point x="620" y="463" type="curve"/>
      <point x="649" y="463" type="line"/>
      <point x="655" y="504"/>
      <point x="675" y="521"/>
      <point x="714" y="521" type="curve" smooth="yes"/>
      <point x="752" y="521"/>
      <point x="775" y="502"/>
      <point x="780" y="463" type="curve"/>
      <point x="809" y="463" type="line"/>
      <point x="806" y="526"/>
      <point x="778" y="557"/>
      <point x="717" y="557" type="curve" smooth="yes"/>
      <point x="653" y="557"/>
      <point x="622" y="522"/>
    </contour>
    <contour>
      <point x="96" y="-20" type="curve"/>
      <point x="124" y="-20" type="line"/>
      <point x="131" y="23"/>
      <point x="151" y="38"/>
      <point x="190" y="38" type="curve" smooth="yes"/>
      <point x="228" y="38"/>
      <point x="250" y="19"/>
      <point x="256" y="-20" type="curve"/>
      <point x="285" y="-20" type="line"/>
      <point x="282" y="43"/>
      <point x="252" y="74"/>
      <point x="193" y="74" type="curve" smooth="yes"/>
      <point x="129" y="74"/>
      <point x="98" y="39"/>
    </contour>
    <contour>
      <point x="354" y="-156" type="curve"/>
      <point x="382" y="-156" type="line"/>
      <point x="389" y="-115"/>
      <point x="411" y="-98"/>
      <point x="448" y="-98" type="curve" smooth="yes"/>
      <point x="485" y="-98"/>
      <point x="509" y="-117"/>
      <point x="514" y="-156" type="curve"/>
      <point x="543" y="-156" type="line"/>
      <point x="540" y="-93"/>
      <point x="512" y="-62"/>
      <point x="451" y="-62" type="curve" smooth="yes"/>
      <point x="387" y="-62"/>
      <point x="356" y="-99"/>
    </contour>
    <contour>
      <point x="-1" y="223" type="curve"/>
      <point x="27" y="223" type="line"/>
      <point x="34" y="266"/>
      <point x="55" y="281"/>
      <point x="93" y="281" type="curve" smooth="yes"/>
      <point x="131" y="281"/>
      <point x="153" y="262"/>
      <point x="159" y="223" type="curve"/>
      <point x="188" y="223" type="line"/>
      <point x="185" y="287"/>
      <point x="155" y="317"/>
      <point x="95" y="317" type="curve" smooth="yes"/>
      <point x="33" y="317"/>
      <point x="0" y="281"/>
    </contour>
    <contour>
      <point x="96" y="463" type="curve"/>
      <point x="124" y="463" type="line"/>
      <point x="131" y="504"/>
      <point x="151" y="521"/>
      <point x="190" y="521" type="curve" smooth="yes"/>
      <point x="228" y="521"/>
      <point x="250" y="502"/>
      <point x="256" y="463" type="curve"/>
      <point x="285" y="463" type="line"/>
      <point x="282" y="526"/>
      <point x="252" y="557"/>
      <point x="193" y="557" type="curve" smooth="yes"/>
      <point x="129" y="557"/>
      <point x="98" y="521"/>
    </contour>
    <contour>
      <point x="620" y="-20" type="curve"/>
      <point x="649" y="-20" type="line"/>
      <point x="655" y="23"/>
      <point x="675" y="38"/>
      <point x="714" y="38" type="curve" smooth="yes"/>
      <point x="752" y="38"/>
      <point x="775" y="19"/>
      <point x="780" y="-20" type="curve"/>
      <point x="809" y="-20" type="line"/>
      <point x="806" y="42"/>
      <point x="778" y="74"/>
      <point x="717" y="74" type="curve" smooth="yes"/>
      <point x="653" y="74"/>
      <point x="622" y="39"/>
    </contour>
    <contour>
      <point x="718" y="223" type="curve"/>
      <point x="746" y="223" type="line"/>
      <point x="753" y="266"/>
      <point x="774" y="281"/>
      <point x="812" y="281" type="curve" smooth="yes"/>
      <point x="850" y="281"/>
      <point x="872" y="262"/>
      <point x="878" y="223" type="curve"/>
      <point x="907" y="223" type="line"/>
      <point x="904" y="287"/>
      <point x="874" y="317"/>
      <point x="815" y="317" type="curve" smooth="yes"/>
      <point x="753" y="317"/>
      <point x="720" y="281"/>
    </contour>
    <contour>
      <point x="354" y="602" type="curve"/>
      <point x="382" y="602" type="line"/>
      <point x="389" y="644"/>
      <point x="410" y="660"/>
      <point x="448" y="660" type="curve" smooth="yes"/>
      <point x="485" y="660"/>
      <point x="509" y="641"/>
      <point x="514" y="602" type="curve"/>
      <point x="543" y="602" type="line"/>
      <point x="540" y="665"/>
      <point x="511" y="696"/>
      <point x="451" y="696" type="curve" smooth="yes"/>
      <point x="387" y="696"/>
      <point x="355" y="660"/>
    </contour>
  </outline>
</glyph>
<glyph name="uni0489" format="2">
  <advance width="971"/>
  <unicode hex="0489"/>
  <outline>
    <contour>
      <point x="674" y="467" type="line"/>
      <point x="682" y="475"/>
      <point x="791" y="552"/>
      <point x="803" y="563" type="curve"/>
      <point x="797" y="568" type="line"/>
      <point x="754" y="559"/>
      <point x="680" y="529"/>
      <point x="650" y="506" type="curve"/>
      <point x="642" y="500" type="line"/>
    </contour>
    <contour>
      <point x="134" y="-29" type="line"/>
      <point x="176" y="-21"/>
      <point x="255" y="13"/>
      <point x="281" y="32" type="curve"/>
      <point x="289" y="39" type="line"/>
      <point x="256" y="72" type="line"/>
      <point x="209" y="32"/>
      <point x="171" y="4"/>
      <point x="124" y="-23" type="curve"/>
    </contour>
    <contour>
      <point x="162" y="231" type="curve"/>
      <point x="173" y="230" type="line"/>
      <point x="173" y="277" type="line"/>
      <point x="122" y="281"/>
      <point x="74" y="288"/>
      <point x="15" y="301" type="curve"/>
      <point x="15" y="293" type="line"/>
      <point x="44" y="272"/>
      <point x="128" y="236"/>
    </contour>
    <contour>
      <point x="433" y="-175" type="curve"/>
      <point x="442" y="-175" type="line"/>
      <point x="463" y="-147"/>
      <point x="499" y="-56"/>
      <point x="503" y="-28" type="curve"/>
      <point x="504" y="-17" type="line"/>
      <point x="458" y="-17" type="line"/>
      <point x="456" y="-39"/>
      <point x="450" y="-78"/>
    </contour>
    <contour>
      <point x="755" y="-66" type="curve"/>
      <point x="765" y="-60" type="line"/>
      <point x="759" y="-28"/>
      <point x="720" y="63"/>
      <point x="703" y="86" type="curve"/>
      <point x="696" y="94" type="line"/>
      <point x="663" y="62" type="line"/>
      <point x="702" y="17"/>
      <point x="719" y="-8"/>
    </contour>
    <contour>
      <point x="234" y="445" type="line"/>
      <point x="267" y="478" type="line"/>
      <point x="232" y="519"/>
      <point x="215" y="542"/>
      <point x="175" y="607" type="curve"/>
      <point x="166" y="600" type="line"/>
      <point x="169" y="572"/>
      <point x="207" y="479"/>
      <point x="227" y="453" type="curve"/>
    </contour>
    <contour>
      <point x="915" y="240" type="curve"/>
      <point x="915" y="249" type="line"/>
      <point x="893" y="265"/>
      <point x="799" y="303"/>
      <point x="768" y="308" type="curve"/>
      <point x="757" y="309" type="line"/>
      <point x="757" y="262" type="line"/>
      <point x="775" y="262"/>
      <point x="853" y="253"/>
    </contour>
    <contour>
      <point x="427" y="557" type="line"/>
      <point x="474" y="557" type="line"/>
      <point x="477" y="614"/>
      <point x="485" y="667"/>
      <point x="498" y="715" type="curve"/>
      <point x="489" y="715" type="line"/>
      <point x="469" y="687"/>
      <point x="433" y="601"/>
      <point x="428" y="568" type="curve"/>
    </contour>
  </outline>
</glyph>
<glyph name="uni048F" format="2">
  <advance width="373"/>
  <unicode hex="048F"/>
  <anchor x="83" y="-228" name="bottom"/>
  <anchor x="243" y="526" name="top"/>
  <anchor x="409" y="526" name="topright"/>
  <outline>
    <contour>
      <point x="227" y="-76" type="line"/>
      <point x="250" y="-66" type="line"/>
      <point x="168" y="126" type="line"/>
      <point x="145" y="116" type="line"/>
    </contour>
    <component base="p"/>
  </outline>
</glyph>
<glyph name="uni049D" format="2">
  <advance width="269"/>
  <unicode hex="049D"/>
  <anchor x="79" y="0" name="bottom"/>
  <anchor x="191" y="526" name="top"/>
  <outline>
    <contour>
      <point x="8" y="0" type="line"/>
      <point x="33" y="0" type="line"/>
      <point x="92" y="277" type="line"/>
      <point x="192" y="0" type="line"/>
      <point x="219" y="0" type="line"/>
      <point x="120" y="275" type="line"/>
      <point x="326" y="526" type="line"/>
      <point x="295" y="526" type="line"/>
      <point x="92" y="281" type="line"/>
      <point x="145" y="526" type="line"/>
      <point x="120" y="526" type="line"/>
    </contour>
    <contour>
      <point x="87" y="75" type="line"/>
      <point x="112" y="75" type="line"/>
      <point x="195" y="451" type="line"/>
      <point x="170" y="451" type="line"/>
    </contour>
  </outline>
</glyph>
<glyph name="uni04BF" format="2">
  <advance width="377"/>
  <unicode hex="04BF"/>
  <anchor x="96" y="-176" name="bottom"/>
  <anchor x="245" y="526" name="top"/>
  <outline>
    <contour>
      <point x="128" y="-176" type="line"/>
      <point x="154" y="-176" type="line"/>
      <point x="188" y="-10" type="line"/>
      <point x="223" y="-9"/>
      <point x="249" y="1"/>
      <point x="269" y="12" type="curve"/>
      <point x="269" y="41" type="line"/>
      <point x="244" y="26"/>
      <point x="216" y="15"/>
      <point x="185" y="15" type="curve" smooth="yes"/>
      <point x="122" y="15"/>
      <point x="94" y="55"/>
      <point x="94" y="147" type="curve" smooth="yes"/>
      <point x="94" y="186"/>
      <point x="97" y="220"/>
      <point x="103" y="251" type="curve"/>
      <point x="109" y="251" type="line" smooth="yes"/>
      <point x="281" y="251"/>
      <point x="349" y="354"/>
      <point x="349" y="447" type="curve" smooth="yes"/>
      <point x="349" y="511"/>
      <point x="317" y="536"/>
      <point x="270" y="536" type="curve" smooth="yes"/>
      <point x="186" y="536"/>
      <point x="110" y="426"/>
      <point x="80" y="277" type="curve"/>
      <point x="46" y="277"/>
      <point x="26" y="288"/>
      <point x="26" y="322" type="curve" smooth="yes"/>
      <point x="26" y="344"/>
      <point x="33" y="366"/>
      <point x="47" y="391" type="curve"/>
      <point x="20" y="391" type="line"/>
      <point x="7" y="366"/>
      <point x="0" y="345"/>
      <point x="0" y="318" type="curve" smooth="yes"/>
      <point x="0" y="281"/>
      <point x="24" y="253"/>
      <point x="76" y="252" type="curve"/>
      <point x="70" y="217"/>
      <point x="67" y="180"/>
      <point x="67" y="142" type="curve" smooth="yes"/>
      <point x="67" y="46"/>
      <point x="101" y="-2"/>
      <point x="163" y="-9" type="curve"/>
    </contour>
    <contour>
      <point x="107" y="276" type="line"/>
      <point x="133" y="407"/>
      <point x="199" y="511"/>
      <point x="269" y="511" type="curve" smooth="yes"/>
      <point x="305" y="511"/>
      <point x="322" y="487"/>
      <point x="322" y="446" type="curve" smooth="yes"/>
      <point x="322" y="366"/>
      <point x="265" y="276"/>
      <point x="112" y="276" type="curve" smooth="yes"/>
    </contour>
  </outline>
</glyph>
<glyph name="uni0500" format="2">
  <advance width="364"/>
  <unicode hex="0500"/>
  <anchor x="126" y="0" name="bottom"/>
  <anchor x="278" y="714" name="top"/>
  <outline>
    <contour>
      <point x="157" y="0" type="curve" smooth="yes"/>
      <point x="222" y="0" type="line"/>
      <point x="373" y="714" type="line"/>
      <point x="347" y="714" type="line"/>
      <point x="282" y="408" type="line"/>
      <point x="234" y="408" type="line" smooth="yes"/>
      <point x="91" y="408"/>
      <point x="10" y="299"/>
      <point x="10" y="146" type="curve" smooth="yes"/>
      <point x="10" y="53"/>
      <point x="58" y="0"/>
    </contour>
    <contour>
      <point x="160" y="25" type="line" smooth="yes"/>
      <point x="70" y="25"/>
      <point x="38" y="72"/>
      <point x="38" y="147" type="curve" smooth="yes"/>
      <point x="38" y="278"/>
      <point x="98" y="383"/>
      <point x="236" y="383" type="curve" smooth="yes"/>
      <point x="277" y="383" type="line"/>
      <point x="200" y="25" type="line"/>
    </contour>
  </outline>
</glyph>
<glyph name="uni0512" format="2">
  <advance width="414"/>
  <unicode hex="0512"/>
  <anchor x="92" y="-159" name="bottom"/>
  <anchor x="278" y="714" name="top"/>
  <outline>
    <contour>
      <point x="237" y="-159" type="curve" smooth="yes"/>
      <point x="281" y="-159"/>
      <point x="301" y="-126"/>
      <point x="309" y="-89" type="curve" smooth="yes"/>
      <point x="333" y="25" type="line"/>
      <point x="277" y="25" type="line"/>
      <point x="424" y="714" type="line"/>
      <point x="238" y="714" type="line"/>
      <point x="172" y="487"/>
      <point x="86" y="207"/>
      <point x="40" y="94" type="curve" smooth="yes"/>
      <point x="21" y="47"/>
      <point x="0" y="21"/>
      <point x="-40" y="21" type="curve" smooth="yes"/>
      <point x="-56" y="21"/>
      <point x="-67" y="24"/>
      <point x="-76" y="27" type="curve"/>
      <point x="-76" y="1" type="line"/>
      <point x="-69" y="-1"/>
      <point x="-55" y="-4"/>
      <point x="-39" y="-4" type="curve" smooth="yes"/>
      <point x="16" y="-4"/>
      <point x="43" y="33"/>
      <point x="65" y="88" type="curve" smooth="yes"/>
      <point x="109" y="199"/>
      <point x="195" y="479"/>
      <point x="255" y="689" type="curve"/>
      <point x="393" y="689" type="line"/>
      <point x="246" y="0" type="line"/>
      <point x="302" y="0" type="line"/>
      <point x="285" y="-83" type="line" smooth="yes"/>
      <point x="278" y="-117"/>
      <point x="266" y="-134"/>
      <point x="236" y="-134" type="curve" smooth="yes"/>
      <point x="220" y="-134"/>
      <point x="209" y="-131"/>
      <point x="198" y="-126" type="curve"/>
      <point x="198" y="-152" type="line"/>
      <point x="208" y="-156"/>
      <point x="220" y="-159"/>
    </contour>
  </outline>
</glyph>
<glyph name="uni052F" format="2">
  <advance width="356"/>
  <unicode hex="052F"/>
  <anchor x="68" y="-172" name="bottom"/>
  <anchor x="217" y="526" name="top"/>
  <outline>
    <contour>
      <point x="209" y="-172" type="line"/>
      <point x="235" y="-172" type="line"/>
      <point x="277" y="25" type="line"/>
      <point x="215" y="25" type="line"/>
      <point x="209" y="0" type="line"/>
      <point x="246" y="0" type="line"/>
    </contour>
    <component base="afii10077"/>
  </outline>
</glyph>
<glyph name="uni1AB8" format="2">
  <unicode hex="1AB8"/>
  <anchor x="-63" y="0" name="_bottom"/>
  <anchor x="-109" y="-216" name="bottom"/>
  <outline>
    <contour>
      <point x="-21" y="-216" type="curve"/>
      <point x="-13" y="-186" type="line"/>
      <point x="-27" y="-186"/>
      <point x="-34" y="-183"/>
      <point x="-34" y="-164" type="curve" smooth="yes"/>
      <point x="-34" y="-160"/>
      <point x="-33" y="-149"/>
      <point x="-31" y="-141" type="curve" smooth="yes"/>
      <point x="-8" y="-43" type="line"/>
      <point x="-40" y="-43" type="line"/>
      <point x="-63" y="-139" type="line" smooth="yes"/>
      <point x="-67" y="-155"/>
      <point x="-66" y="-161"/>
      <point x="-66" y="-166" type="curve" smooth="yes"/>
      <point x="-66" y="-194"/>
      <point x="-49" y="-216"/>
    </contour>
    <contour>
      <point x="-128" y="-216" type="curve"/>
      <point x="-120" y="-186" type="line"/>
      <point x="-134" y="-186"/>
      <point x="-141" y="-183"/>
      <point x="-141" y="-164" type="curve" smooth="yes"/>
      <point x="-141" y="-160"/>
      <point x="-140" y="-149"/>
      <point x="-138" y="-141" type="curve" smooth="yes"/>
      <point x="-115" y="-43" type="line"/>
      <point x="-147" y="-43" type="line"/>
      <point x="-170" y="-139" type="line" smooth="yes"/>
      <point x="-174" y="-155"/>
      <point x="-173" y="-161"/>
      <point x="-173" y="-166" type="curve" smooth="yes"/>
      <point x="-173" y="-194"/>
      <point x="-156" y="-216"/>
    </contour>
  </outline>
</glyph>
<glyph name="uni1AB9" format="2">
  <unicode hex="1AB9"/>
  <anchor x="-55" y="0" name="_bottom"/>
  <anchor x="-106" y="-240" name="bottom"/>
  <outline>
    <contour>
      <point x="-180" y="-240" type="line"/>
      <point x="-149" y="-240" type="line"/>
      <point x="27" y="40" type="line"/>
      <point x="-5" y="40" type="line"/>
    </contour>
  </outline>
</glyph>
<glyph name="uni1ABA" format="2">
  <unicode hex="1ABA"/>
  <anchor x="-53" y="0" name="_bottom"/>
  <anchor x="-104" y="-240" name="bottom"/>
  <outline>
    <contour>
      <point x="-160" y="-204" type="line"/>
      <point x="-129" y="-204" type="line"/>
      <point x="11" y="40" type="line"/>
      <point x="-20" y="40" type="line"/>
    </contour>
    <contour>
      <point x="-145" y="-240" type="curve" smooth="yes"/>
      <point x="-128" y="-240"/>
      <point x="-118" y="-214"/>
      <point x="-118" y="-182" type="curve" smooth="yes"/>
      <point x="-118" y="-168"/>
      <point x="-123" y="-162"/>
      <point x="-131" y="-162" type="curve" smooth="yes"/>
      <point x="-147" y="-162"/>
      <point x="-160" y="-187"/>
      <point x="-160" y="-216" type="curve" smooth="yes"/>
      <point x="-160" y="-233"/>
      <point x="-155" y="-240"/>
    </contour>
  </outline>
</glyph>
<glyph name="uni1D03" format="2">
  <advance width="309"/>
  <unicode hex="1D03"/>
  <anchor x="84" y="0" name="bottom"/>
  <anchor x="196" y="526" name="top"/>
  <outline>
    <contour>
      <point x="7" y="263" type="line"/>
      <point x="292" y="263" type="line"/>
      <point x="296" y="288" type="line"/>
      <point x="11" y="288" type="line"/>
    </contour>
    <component base="uni0299"/>
  </outline>
</glyph>
<glyph name="uni1D24" format="2">
  <advance width="287"/>
  <unicode hex="1D24"/>
  <anchor x="88" y="0" name="bottom"/>
  <anchor x="200" y="526" name="top"/>
  <outline>
    <contour>
      <point x="110" y="-7" type="curve" smooth="yes"/>
      <point x="150" y="-7"/>
      <point x="182" y="3"/>
      <point x="205" y="14" type="curve"/>
      <point x="205" y="41" type="line"/>
      <point x="178" y="27"/>
      <point x="146" y="18"/>
      <point x="112" y="18" type="curve" smooth="yes"/>
      <point x="58" y="18"/>
      <point x="31" y="49"/>
      <point x="31" y="98" type="curve" smooth="yes"/>
      <point x="31" y="184"/>
      <point x="81" y="218"/>
      <point x="152" y="257" type="curve" smooth="yes"/>
      <point x="232" y="301"/>
      <point x="287" y="344"/>
      <point x="287" y="431" type="curve" smooth="yes"/>
      <point x="287" y="494"/>
      <point x="249" y="532"/>
      <point x="186" y="532" type="curve" smooth="yes"/>
      <point x="151" y="532"/>
      <point x="117" y="523"/>
      <point x="97" y="512" type="curve"/>
      <point x="104" y="488" type="line"/>
      <point x="129" y="501"/>
      <point x="158" y="507"/>
      <point x="184" y="507" type="curve" smooth="yes"/>
      <point x="232" y="507"/>
      <point x="260" y="479"/>
      <point x="260" y="431" type="curve" smooth="yes"/>
      <point x="260" y="354"/>
      <point x="218" y="322"/>
      <point x="143" y="281" type="curve" smooth="yes"/>
      <point x="63" y="237"/>
      <point x="4" y="191"/>
      <point x="4" y="98" type="curve" smooth="yes"/>
      <point x="4" y="37"/>
      <point x="41" y="-7"/>
    </contour>
  </outline>
</glyph>
<glyph name="uni1D26" format="2">
  <advance width="204"/>
  <unicode hex="1D26"/>
  <outline>
    <contour>
      <point x="0" y="0" type="line"/>
      <point x="26" y="0" type="line"/>
      <point x="132" y="500" type="line"/>
      <point x="255" y="500" type="line"/>
      <point x="260" y="525" type="line"/>
      <point x="112" y="525" type="line"/>
    </contour>
  </outline>
</glyph>
<glyph name="uni1D3B" format="2">
  <advance width="300"/>
  <unicode hex="1D3B"/>
  <anchor x="167" y="287" name="bottom"/>
  <anchor x="266" y="715" name="top"/>
  <anchor x="402" y="715" name="topright"/>
  <outline>
    <contour>
      <point x="54" y="287" type="line"/>
      <point x="76" y="287" type="line"/>
      <point x="335" y="679" type="line"/>
      <point x="337" y="679" type="line"/>
      <point x="330" y="652"/>
      <point x="323" y="622"/>
      <point x="319" y="605" type="curve" smooth="yes"/>
      <point x="244" y="287" type="line"/>
      <point x="263" y="287" type="line"/>
      <point x="362" y="715" type="line"/>
      <point x="340" y="715" type="line"/>
      <point x="78" y="318" type="line"/>
      <point x="77" y="319" type="line"/>
      <point x="81" y="334"/>
      <point x="87" y="355"/>
      <point x="95" y="389" type="curve"/>
      <point x="170" y="715" type="line"/>
      <point x="153" y="715" type="line"/>
    </contour>
  </outline>
</glyph>
<glyph name="uni1D7A" format="2">
  <advance width="528"/>
  <unicode hex="1D7A"/>
  <anchor x="45" y="0" name="bottom_1"/>
  <anchor x="293" y="0" name="bottom_2"/>
  <anchor x="91" y="263" name="center_1"/>
  <anchor x="349" y="263" name="center_2"/>
  <anchor x="174" y="655" name="top_1"/>
  <anchor x="455" y="760" name="top_2"/>
  <anchor x="237" y="655" name="topright_1"/>
  <anchor x="564" y="760" name="topright_2"/>
  <outline>
    <contour>
      <point x="-69" y="-73" type="line"/>
      <point x="-40" y="-73" type="line"/>
      <point x="520" y="760" type="line"/>
      <point x="491" y="760" type="line"/>
    </contour>
    <component base="t"/>
    <component base="h" xOffset="170"/>
  </outline>
</glyph>
<glyph name="uni1D7B" format="2">
  <advance width="171"/>
  <unicode hex="1D7B"/>
  <anchor x="16" y="0" name="bottom"/>
  <anchor x="128" y="526" name="top"/>
  <outline>
    <contour>
      <point x="-4" y="265" type="line"/>
      <point x="147" y="265" type="line"/>
      <point x="152" y="290" type="line"/>
      <point x="1" y="290" type="line"/>
    </contour>
    <component base="uni026A"/>
  </outline>
</glyph>
<glyph name="uni1D7D" format="2">
  <advance width="373"/>
  <unicode hex="1D7D"/>
  <anchor x="83" y="-228" name="bottom"/>
  <anchor x="243" y="526" name="top"/>
  <anchor x="409" y="526" name="topright"/>
  <outline>
    <contour>
      <point x="3" y="255" type="line"/>
      <point x="376" y="255" type="line"/>
      <point x="382" y="280" type="line"/>
      <point x="8" y="280" type="line"/>
    </contour>
    <component base="p"/>
  </outline>
</glyph>
<glyph name="uni1D7F" format="2">
  <advance width="359"/>
  <unicode hex="1D7F"/>
  <anchor x="124" y="0" name="bottom"/>
  <anchor x="236" y="526" name="top"/>
  <outline>
    <contour>
      <point x="-3" y="252" type="line"/>
      <point x="356" y="252" type="line"/>
      <point x="361" y="277" type="line"/>
      <point x="1" y="277" type="line"/>
    </contour>
    <component base="uni028A"/>
  </outline>
</glyph>
<glyph name="gravemacron" format="2">
  <unicode hex="1DC5"/>
  <anchor x="57" y="526" name="_top"/>
  <anchor x="93" y="697" name="top"/>
  <outline>
    <contour>
      <point x="76" y="617" type="line"/>
      <point x="173" y="617" type="line"/>
      <point x="173" y="642" type="line"/>
      <point x="83" y="642" type="line"/>
      <point x="11" y="697" type="line"/>
      <point x="-4" y="677" type="line"/>
    </contour>
  </outline>
</glyph>
<glyph name="macrongravecomb" format="2">
  <unicode hex="1DC6"/>
  <anchor x="57" y="526" name="_top"/>
  <anchor x="93" y="697" name="top"/>
  <outline>
    <contour>
      <point x="158" y="617" type="line"/>
      <point x="173" y="637" type="line"/>
      <point x="93" y="697" type="line"/>
      <point x="-4" y="697" type="line"/>
      <point x="-4" y="672" type="line"/>
      <point x="86" y="672" type="line"/>
    </contour>
  </outline>
</glyph>
<glyph name="arrowheadrightheaddownbelow" format="2">
  <unicode hex="1DFF"/>
  <anchor x="-37" y="0" name="_bottom"/>
  <anchor x="-88" y="-240" name="bottom"/>
  <outline>
    <contour>
      <point x="-34" y="-227" type="curve"/>
      <point x="0" y="-227" type="line"/>
      <point x="10" y="-184"/>
      <point x="28" y="-135"/>
      <point x="54" y="-61" type="curve"/>
      <point x="54" y="-53" type="line"/>
      <point x="27" y="-53" type="line"/>
      <point x="11" y="-91"/>
      <point x="-5" y="-124"/>
      <point x="-17" y="-163" type="curve"/>
      <point x="-32" y="-122"/>
      <point x="-46" y="-87"/>
      <point x="-61" y="-53" type="curve"/>
      <point x="-88" y="-53" type="line"/>
      <point x="-88" y="-61" type="line"/>
      <point x="-72" y="-104"/>
      <point x="-46" y="-179"/>
    </contour>
    <contour>
      <point x="-188" y="-240" type="line"/>
      <point x="-183" y="-240" type="line"/>
      <point x="-142" y="-198"/>
      <point x="-111" y="-172"/>
      <point x="-86" y="-155" type="curve"/>
      <point x="-86" y="-125" type="line"/>
      <point x="-113" y="-105"/>
      <point x="-158" y="-65"/>
      <point x="-183" y="-39" type="curve"/>
      <point x="-188" y="-39" type="line"/>
      <point x="-188" y="-70" type="line"/>
      <point x="-168" y="-94"/>
      <point x="-146" y="-116"/>
      <point x="-124" y="-140" type="curve"/>
      <point x="-145" y="-162"/>
      <point x="-167" y="-183"/>
      <point x="-188" y="-209" type="curve"/>
    </contour>
  </outline>
</glyph>
<glyph name="uni1E10" format="2">
  <advance width="411"/>
  <unicode hex="1E10"/>
  <anchor x="103" y="-240" name="bottom"/>
  <anchor x="302" y="714" name="top"/>
  <anchor x="226" y="357" name="center"/>
  <anchor x="487" y="714" name="topright"/>
  <outline>
    <contour>
      <point x="58" y="-240" type="curve" smooth="yes"/>
      <point x="125" y="-240"/>
      <point x="174" y="-195"/>
      <point x="174" y="-138" type="curve" smooth="yes"/>
      <point x="174" y="-96"/>
      <point x="145" y="-73"/>
      <point x="101" y="-65" type="curve"/>
      <point x="160" y="19" type="line"/>
      <point x="135" y="19" type="line"/>
      <point x="65" y="-79" type="line"/>
      <point x="118" y="-84"/>
      <point x="149" y="-100"/>
      <point x="149" y="-141" type="curve" smooth="yes"/>
      <point x="149" y="-182"/>
      <point x="113" y="-216"/>
      <point x="60" y="-216" type="curve" smooth="yes"/>
      <point x="29" y="-216"/>
      <point x="10" y="-212"/>
      <point x="0" y="-208" type="curve"/>
      <point x="0" y="-233" type="line"/>
      <point x="14" y="-236"/>
      <point x="29" y="-240"/>
    </contour>
    <component base="D"/>
  </outline>
</glyph>
<glyph name="uni1E11" format="2">
  <advance width="379"/>
  <unicode hex="1E11"/>
  <anchor x="81" y="-240" name="bottom"/>
  <anchor x="296" y="760" name="top"/>
  <anchor x="190" y="263" name="center"/>
  <anchor x="465" y="760" name="topright"/>
  <outline>
    <contour>
      <point x="82" y="-240" type="curve" smooth="yes"/>
      <point x="149" y="-240"/>
      <point x="198" y="-195"/>
      <point x="198" y="-138" type="curve" smooth="yes"/>
      <point x="198" y="-96"/>
      <point x="169" y="-73"/>
      <point x="125" y="-65" type="curve"/>
      <point x="178" y="10" type="line"/>
      <point x="153" y="10" type="line"/>
      <point x="89" y="-79" type="line"/>
      <point x="142" y="-84"/>
      <point x="173" y="-100"/>
      <point x="173" y="-141" type="curve" smooth="yes"/>
      <point x="173" y="-182"/>
      <point x="137" y="-216"/>
      <point x="84" y="-216" type="curve" smooth="yes"/>
      <point x="53" y="-216"/>
      <point x="34" y="-212"/>
      <point x="24" y="-208" type="curve"/>
      <point x="24" y="-233" type="line"/>
      <point x="38" y="-236"/>
      <point x="53" y="-240"/>
    </contour>
    <component base="d"/>
  </outline>
</glyph>
<glyph name="longsdiagonalstroke" format="2">
  <advance width="143"/>
  <unicode hex="1E9C"/>
  <anchor x="-35" y="-240" name="bottom"/>
  <anchor x="179" y="765" name="top"/>
  <outline>
    <contour>
      <point x="29" y="436" type="line"/>
      <point x="219" y="514" type="line"/>
      <point x="212" y="535" type="line"/>
      <point x="22" y="457" type="line"/>
    </contour>
    <component base="longs"/>
  </outline>
</glyph>
<glyph name="longshighstroke" format="2">
  <advance width="143"/>
  <unicode hex="1E9D"/>
  <anchor x="-35" y="-240" name="bottom"/>
  <anchor x="179" y="765" name="top"/>
  <outline>
    <contour>
      <point x="56" y="535" type="line"/>
      <point x="204" y="535" type="line"/>
      <point x="210" y="560" type="line"/>
      <point x="62" y="560" type="line"/>
    </contour>
    <component base="longs"/>
  </outline>
</glyph>
<glyph name="LL-middleWelsh" format="2">
  <advance width="458"/>
  <unicode hex="1EFA"/>
  <anchor x="251" y="0" name="bottom"/>
  <anchor x="403" y="714" name="top"/>
  <anchor x="327" y="357" name="center"/>
  <anchor x="483" y="714" name="topright"/>
  <outline>
    <contour>
      <point x="2" y="0" type="line"/>
      <point x="28" y="0" type="line"/>
      <point x="180" y="714" type="line"/>
      <point x="154" y="714" type="line"/>
    </contour>
    <component base="L" xOffset="156"/>
  </outline>
</glyph>
<glyph name="uni1FBD" format="2">
  <advance width="409"/>
  <unicode hex="1FBD"/>
  <anchor x="241" y="526" name="_top"/>
  <outline>
    <contour>
      <point x="230" y="587" type="line"/>
      <point x="279" y="602"/>
      <point x="308" y="655"/>
      <point x="308" y="696" type="curve" smooth="yes"/>
      <point x="308" y="723"/>
      <point x="298" y="731"/>
      <point x="286" y="731" type="curve" smooth="yes"/>
      <point x="270" y="731"/>
      <point x="258" y="716"/>
      <point x="258" y="694" type="curve" smooth="yes"/>
      <point x="258" y="672"/>
      <point x="269" y="665"/>
      <point x="282" y="665" type="curve"/>
      <point x="277" y="641"/>
      <point x="256" y="617"/>
      <point x="234" y="608" type="curve"/>
    </contour>
  </outline>
</glyph>
<glyph name="uni1FC1" format="2">
  <advance width="409"/>
  <unicode hex="1FC1"/>
  <outline>
    <contour>
      <point x="164" y="706" type="curve"/>
      <point x="189" y="706" type="line"/>
      <point x="196" y="748"/>
      <point x="210" y="773"/>
      <point x="242" y="773" type="curve" smooth="yes"/>
      <point x="284" y="773"/>
      <point x="297" y="707"/>
      <point x="351" y="707" type="curve" smooth="yes"/>
      <point x="393" y="707"/>
      <point x="420" y="738"/>
      <point x="429" y="798" type="curve"/>
      <point x="404" y="798" type="line"/>
      <point x="396" y="751"/>
      <point x="379" y="732"/>
      <point x="353" y="732" type="curve" smooth="yes"/>
      <point x="314" y="732"/>
      <point x="298" y="798"/>
      <point x="245" y="798" type="curve" smooth="yes"/>
      <point x="201" y="798"/>
      <point x="173" y="769"/>
    </contour>
    <contour>
      <point x="208" y="609" type="curve" smooth="yes"/>
      <point x="225" y="609"/>
      <point x="234" y="635"/>
      <point x="234" y="651" type="curve" smooth="yes"/>
      <point x="234" y="666"/>
      <point x="227" y="674"/>
      <point x="216" y="674" type="curve" smooth="yes"/>
      <point x="199" y="674"/>
      <point x="190" y="649"/>
      <point x="190" y="632" type="curve" smooth="yes"/>
      <point x="190" y="617"/>
      <point x="197" y="609"/>
    </contour>
    <contour>
      <point x="334" y="609" type="curve" smooth="yes"/>
      <point x="351" y="609"/>
      <point x="360" y="635"/>
      <point x="360" y="651" type="curve" smooth="yes"/>
      <point x="360" y="666"/>
      <point x="353" y="674"/>
      <point x="342" y="674" type="curve" smooth="yes"/>
      <point x="325" y="674"/>
      <point x="316" y="649"/>
      <point x="316" y="632" type="curve" smooth="yes"/>
      <point x="316" y="617"/>
      <point x="323" y="609"/>
    </contour>
  </outline>
</glyph>
<glyph name="uni1FCD" format="2">
  <advance width="409"/>
  <unicode hex="1FCD"/>
  <outline>
    <contour>
      <point x="209" y="608" type="curve"/>
      <point x="205" y="587" type="line"/>
      <point x="254" y="602"/>
      <point x="283" y="655"/>
      <point x="283" y="696" type="curve" smooth="yes"/>
      <point x="283" y="723"/>
      <point x="273" y="731"/>
      <point x="261" y="731" type="curve" smooth="yes"/>
      <point x="245" y="731"/>
      <point x="233" y="716"/>
      <point x="233" y="694" type="curve" smooth="yes"/>
      <point x="233" y="672"/>
      <point x="244" y="665"/>
      <point x="257" y="665" type="curve"/>
      <point x="252" y="641"/>
      <point x="231" y="617"/>
    </contour>
    <contour>
      <point x="330" y="588" type="curve"/>
      <point x="343" y="588" type="line"/>
      <point x="346" y="597" type="line"/>
      <point x="341" y="633"/>
      <point x="337" y="682"/>
      <point x="339" y="727" type="curve"/>
      <point x="310" y="727" type="line"/>
      <point x="309" y="717" type="line"/>
      <point x="310" y="682"/>
      <point x="318" y="630"/>
    </contour>
  </outline>
</glyph>
<glyph name="uni1FCE" format="2">
  <advance width="409"/>
  <unicode hex="1FCE"/>
  <outline>
    <contour>
      <point x="285" y="600" type="curve"/>
      <point x="285" y="588" type="line"/>
      <point x="294" y="588" type="line"/>
      <point x="327" y="626"/>
      <point x="353" y="676"/>
      <point x="371" y="717" type="curve"/>
      <point x="371" y="727" type="line"/>
      <point x="341" y="727" type="line"/>
      <point x="329" y="682"/>
      <point x="304" y="631"/>
    </contour>
    <contour>
      <point x="208" y="609" type="curve"/>
      <point x="204" y="587" type="line"/>
      <point x="248" y="592"/>
      <point x="282" y="655"/>
      <point x="282" y="697" type="curve" smooth="yes"/>
      <point x="282" y="723"/>
      <point x="273" y="731"/>
      <point x="261" y="731" type="curve" smooth="yes"/>
      <point x="245" y="731"/>
      <point x="231" y="711"/>
      <point x="231" y="689" type="curve" smooth="yes"/>
      <point x="231" y="667"/>
      <point x="241" y="660"/>
      <point x="254" y="660" type="curve"/>
      <point x="249" y="641"/>
      <point x="230" y="611"/>
    </contour>
  </outline>
</glyph>
<glyph name="uni1FCF" format="2">
  <advance width="409"/>
  <unicode hex="1FCF"/>
  <anchor x="260" y="526" name="_top"/>
  <anchor x="322" y="818" name="top"/>
  <outline>
    <contour>
      <point x="164" y="726" type="curve"/>
      <point x="189" y="726" type="line"/>
      <point x="196" y="768"/>
      <point x="210" y="793"/>
      <point x="242" y="793" type="curve" smooth="yes"/>
      <point x="284" y="793"/>
      <point x="297" y="727"/>
      <point x="351" y="727" type="curve" smooth="yes"/>
      <point x="393" y="727"/>
      <point x="420" y="758"/>
      <point x="429" y="818" type="curve"/>
      <point x="404" y="818" type="line"/>
      <point x="396" y="771"/>
      <point x="379" y="752"/>
      <point x="353" y="752" type="curve" smooth="yes"/>
      <point x="314" y="752"/>
      <point x="298" y="818"/>
      <point x="245" y="818" type="curve" smooth="yes"/>
      <point x="201" y="818"/>
      <point x="173" y="789"/>
    </contour>
    <contour>
      <point x="224" y="575" type="line"/>
      <point x="273" y="590"/>
      <point x="302" y="643"/>
      <point x="302" y="684" type="curve" smooth="yes"/>
      <point x="302" y="711"/>
      <point x="292" y="719"/>
      <point x="280" y="719" type="curve" smooth="yes"/>
      <point x="264" y="719"/>
      <point x="252" y="704"/>
      <point x="252" y="682" type="curve" smooth="yes"/>
      <point x="252" y="660"/>
      <point x="263" y="653"/>
      <point x="276" y="653" type="curve"/>
      <point x="271" y="629"/>
      <point x="250" y="605"/>
      <point x="228" y="596" type="curve"/>
    </contour>
  </outline>
</glyph>
<glyph name="uni1FDD" format="2">
  <advance width="409"/>
  <unicode hex="1FDD"/>
  <anchor x="235" y="526" name="_top"/>
  <anchor x="279" y="731" name="top"/>
  <outline>
    <contour>
      <point x="243" y="587" type="curve"/>
      <point x="247" y="606" type="line"/>
      <point x="233" y="612"/>
      <point x="220" y="630"/>
      <point x="220" y="653" type="curve" smooth="yes"/>
      <point x="220" y="657"/>
      <point x="220" y="661"/>
      <point x="221" y="664" type="curve"/>
      <point x="246" y="664"/>
      <point x="264" y="684"/>
      <point x="264" y="708" type="curve" smooth="yes"/>
      <point x="264" y="724"/>
      <point x="255" y="731"/>
      <point x="242" y="731" type="curve" smooth="yes"/>
      <point x="216" y="731"/>
      <point x="202" y="697"/>
      <point x="202" y="660" type="curve" smooth="yes"/>
      <point x="202" y="618"/>
      <point x="219" y="594"/>
    </contour>
    <contour>
      <point x="309" y="588" type="curve"/>
      <point x="322" y="588" type="line"/>
      <point x="325" y="597" type="line"/>
      <point x="320" y="633"/>
      <point x="316" y="682"/>
      <point x="318" y="727" type="curve"/>
      <point x="289" y="727" type="line"/>
      <point x="288" y="717" type="line"/>
      <point x="289" y="682"/>
      <point x="297" y="630"/>
    </contour>
  </outline>
</glyph>
<glyph name="uni1FDE" format="2">
  <advance width="409"/>
  <unicode hex="1FDE"/>
  <outline>
    <contour>
      <point x="267" y="600" type="curve"/>
      <point x="267" y="588" type="line"/>
      <point x="276" y="588" type="line"/>
      <point x="309" y="626"/>
      <point x="335" y="676"/>
      <point x="353" y="717" type="curve"/>
      <point x="353" y="727" type="line"/>
      <point x="323" y="727" type="line"/>
      <point x="311" y="682"/>
      <point x="286" y="631"/>
    </contour>
    <contour>
      <point x="241" y="587" type="curve"/>
      <point x="245" y="606" type="line"/>
      <point x="231" y="612"/>
      <point x="218" y="630"/>
      <point x="218" y="653" type="curve" smooth="yes"/>
      <point x="218" y="657"/>
      <point x="218" y="661"/>
      <point x="219" y="664" type="curve"/>
      <point x="244" y="664"/>
      <point x="262" y="684"/>
      <point x="262" y="708" type="curve" smooth="yes"/>
      <point x="262" y="724"/>
      <point x="253" y="731"/>
      <point x="240" y="731" type="curve" smooth="yes"/>
      <point x="214" y="731"/>
      <point x="200" y="697"/>
      <point x="200" y="660" type="curve" smooth="yes"/>
      <point x="200" y="618"/>
      <point x="217" y="594"/>
    </contour>
  </outline>
</glyph>
<glyph name="uni1FDF" format="2">
  <advance width="409"/>
  <unicode hex="1FDF"/>
  <outline>
    <contour>
      <point x="164" y="726" type="curve"/>
      <point x="189" y="726" type="line"/>
      <point x="196" y="768"/>
      <point x="210" y="793"/>
      <point x="242" y="793" type="curve" smooth="yes"/>
      <point x="284" y="793"/>
      <point x="297" y="727"/>
      <point x="351" y="727" type="curve" smooth="yes"/>
      <point x="393" y="727"/>
      <point x="420" y="758"/>
      <point x="429" y="818" type="curve"/>
      <point x="404" y="818" type="line"/>
      <point x="396" y="771"/>
      <point x="379" y="752"/>
      <point x="353" y="752" type="curve" smooth="yes"/>
      <point x="314" y="752"/>
      <point x="298" y="818"/>
      <point x="245" y="818" type="curve" smooth="yes"/>
      <point x="201" y="818"/>
      <point x="173" y="789"/>
    </contour>
    <contour>
      <point x="283" y="577" type="curve"/>
      <point x="287" y="596" type="line"/>
      <point x="273" y="602"/>
      <point x="260" y="620"/>
      <point x="260" y="643" type="curve" smooth="yes"/>
      <point x="260" y="647"/>
      <point x="260" y="651"/>
      <point x="261" y="654" type="curve"/>
      <point x="286" y="654"/>
      <point x="304" y="674"/>
      <point x="304" y="698" type="curve" smooth="yes"/>
      <point x="304" y="714"/>
      <point x="295" y="721"/>
      <point x="282" y="721" type="curve" smooth="yes"/>
      <point x="256" y="721"/>
      <point x="242" y="687"/>
      <point x="242" y="650" type="curve" smooth="yes"/>
      <point x="242" y="608"/>
      <point x="259" y="584"/>
    </contour>
  </outline>
</glyph>
<glyph name="uni1FED" format="2">
  <advance width="409"/>
  <unicode hex="1FED"/>
  <outline>
    <contour>
      <point x="286" y="604" type="curve"/>
      <point x="299" y="604" type="line"/>
      <point x="301" y="613" type="line"/>
      <point x="291" y="645"/>
      <point x="280" y="725"/>
      <point x="280" y="763" type="curve"/>
      <point x="252" y="763" type="line"/>
      <point x="250" y="753" type="line"/>
      <point x="253" y="716"/>
      <point x="272" y="638"/>
    </contour>
    <contour>
      <point x="193" y="605" type="curve" smooth="yes"/>
      <point x="209" y="605"/>
      <point x="218" y="630"/>
      <point x="218" y="646" type="curve" smooth="yes"/>
      <point x="218" y="661"/>
      <point x="211" y="668"/>
      <point x="201" y="668" type="curve" smooth="yes"/>
      <point x="184" y="668"/>
      <point x="175" y="644"/>
      <point x="175" y="627" type="curve" smooth="yes"/>
      <point x="175" y="612"/>
      <point x="182" y="605"/>
    </contour>
    <contour>
      <point x="363" y="605" type="curve" smooth="yes"/>
      <point x="380" y="605"/>
      <point x="389" y="630"/>
      <point x="389" y="646" type="curve" smooth="yes"/>
      <point x="389" y="661"/>
      <point x="382" y="668"/>
      <point x="371" y="668" type="curve" smooth="yes"/>
      <point x="355" y="668"/>
      <point x="346" y="644"/>
      <point x="346" y="627" type="curve" smooth="yes"/>
      <point x="346" y="612"/>
      <point x="353" y="605"/>
    </contour>
  </outline>
</glyph>
<glyph name="uni1FEE" format="2">
  <advance width="409"/>
  <unicode hex="1FEE"/>
  <anchor x="248" y="526" name="_top"/>
  <outline>
    <contour>
      <point x="250" y="606" type="line"/>
      <point x="266" y="606" type="line"/>
      <point x="289" y="637"/>
      <point x="342" y="724"/>
      <point x="358" y="760" type="curve"/>
      <point x="360" y="770" type="line"/>
      <point x="327" y="770" type="line"/>
      <point x="310" y="723"/>
      <point x="279" y="661"/>
      <point x="252" y="615" type="curve"/>
    </contour>
    <contour>
      <point x="193" y="605" type="curve" smooth="yes"/>
      <point x="209" y="605"/>
      <point x="218" y="630"/>
      <point x="218" y="646" type="curve" smooth="yes"/>
      <point x="218" y="661"/>
      <point x="211" y="668"/>
      <point x="201" y="668" type="curve" smooth="yes"/>
      <point x="184" y="668"/>
      <point x="175" y="644"/>
      <point x="175" y="627" type="curve" smooth="yes"/>
      <point x="175" y="612"/>
      <point x="182" y="605"/>
    </contour>
    <contour>
      <point x="363" y="605" type="curve" smooth="yes"/>
      <point x="380" y="605"/>
      <point x="389" y="630"/>
      <point x="389" y="646" type="curve" smooth="yes"/>
      <point x="389" y="661"/>
      <point x="382" y="668"/>
      <point x="371" y="668" type="curve" smooth="yes"/>
      <point x="355" y="668"/>
      <point x="346" y="644"/>
      <point x="346" y="627" type="curve" smooth="yes"/>
      <point x="346" y="612"/>
      <point x="353" y="605"/>
    </contour>
  </outline>
</glyph>
<glyph name="uni1FEF" format="2">
  <advance width="409"/>
  <unicode hex="1FEF"/>
  <anchor x="273" y="526" name="_top"/>
  <outline>
    <contour>
      <point x="268" y="606" type="curve"/>
      <point x="278" y="606" type="line"/>
      <point x="279" y="615" type="line"/>
      <point x="265" y="661"/>
      <point x="250" y="741"/>
      <point x="250" y="790" type="curve"/>
      <point x="215" y="790" type="line"/>
      <point x="214" y="780" type="line"/>
      <point x="216" y="750"/>
      <point x="252" y="637"/>
    </contour>
  </outline>
</glyph>
<glyph name="uni1FFD" format="2">
  <advance width="409"/>
  <unicode hex="1FFD"/>
  <anchor x="272" y="526" name="_top"/>
  <anchor x="322" y="763" name="top"/>
  <outline>
    <contour>
      <point x="249" y="604" type="line"/>
      <point x="265" y="604" type="line"/>
      <point x="295" y="639"/>
      <point x="339" y="711"/>
      <point x="359" y="753" type="curve"/>
      <point x="361" y="763" type="line"/>
      <point x="328" y="763" type="line"/>
      <point x="311" y="714"/>
      <point x="278" y="653"/>
      <point x="251" y="613" type="curve"/>
    </contour>
  </outline>
</glyph>
<glyph name="uni1FFE" format="2">
  <advance width="409"/>
  <unicode hex="1FFE"/>
  <anchor x="242" y="526" name="_top"/>
  <anchor x="285" y="731" name="top"/>
  <outline>
    <contour>
      <point x="280" y="587" type="curve"/>
      <point x="284" y="606" type="line"/>
      <point x="270" y="612"/>
      <point x="257" y="630"/>
      <point x="257" y="653" type="curve" smooth="yes"/>
      <point x="257" y="657"/>
      <point x="257" y="661"/>
      <point x="258" y="664" type="curve"/>
      <point x="283" y="664"/>
      <point x="301" y="684"/>
      <point x="301" y="708" type="curve" smooth="yes"/>
      <point x="301" y="724"/>
      <point x="292" y="731"/>
      <point x="279" y="731" type="curve" smooth="yes"/>
      <point x="253" y="731"/>
      <point x="239" y="697"/>
      <point x="239" y="660" type="curve" smooth="yes"/>
      <point x="239" y="618"/>
      <point x="256" y="594"/>
    </contour>
  </outline>
</glyph>
<glyph name="uni2012" format="2">
  <advance width="339"/>
  <unicode hex="2012"/>
  <outline>
    <contour>
      <point x="43" y="343" type="line"/>
      <point x="322" y="343" type="line"/>
      <point x="328" y="368" type="line"/>
      <point x="48" y="368" type="line"/>
    </contour>
  </outline>
</glyph>
<glyph name="quoteleft" format="2">
  <advance width="117"/>
  <unicode hex="2018"/>
  <outline>
    <contour>
      <point x="74" y="495" type="line"/>
      <point x="98" y="495" type="line"/>
      <point x="115" y="564"/>
      <point x="153" y="652"/>
      <point x="192" y="714" type="curve"/>
      <point x="172" y="714" type="line"/>
      <point x="130" y="655"/>
      <point x="90" y="568"/>
      <point x="70" y="507" type="curve"/>
    </contour>
  </outline>
</glyph>
<glyph name="uni201F" format="2">
  <advance width="219"/>
  <unicode hex="201F"/>
  <outline>
    <contour>
      <point x="212" y="495" type="curve"/>
      <point x="228" y="495" type="line"/>
      <point x="219" y="555"/>
      <point x="212" y="644"/>
      <point x="220" y="714" type="curve"/>
      <point x="196" y="714" type="line"/>
      <point x="188" y="704" type="line"/>
      <point x="187" y="644"/>
      <point x="197" y="560"/>
    </contour>
    <contour>
      <point x="107" y="495" type="curve"/>
      <point x="123" y="495" type="line"/>
      <point x="114" y="555"/>
      <point x="107" y="644"/>
      <point x="115" y="714" type="curve"/>
      <point x="91" y="714" type="line"/>
      <point x="83" y="704" type="line"/>
      <point x="82" y="644"/>
      <point x="92" y="560"/>
    </contour>
  </outline>
</glyph>
<glyph name="primeReversed" format="2">
  <advance width="171"/>
  <unicode hex="2035"/>
  <outline>
    <contour>
      <point x="143" y="537" type="line"/>
      <point x="160" y="537" type="line"/>
      <point x="138" y="714" type="line"/>
      <point x="112" y="714" type="line"/>
    </contour>
  </outline>
</glyph>
<glyph name="caret" format="2">
  <advance width="341"/>
  <unicode hex="2038"/>
  <outline>
    <contour>
      <point x="-94" y="-240" type="line"/>
      <point x="-66" y="-240" type="line"/>
      <point x="111" y="54" type="line"/>
      <point x="179" y="-240" type="line"/>
      <point x="205" y="-240" type="line"/>
      <point x="131" y="80" type="line"/>
      <point x="100" y="80" type="line"/>
    </contour>
  </outline>
</glyph>
<glyph name="guilsinglright" format="2">
  <advance width="211"/>
  <unicode hex="203A"/>
  <outline>
    <contour>
      <point x="9" y="80" type="line"/>
      <point x="165" y="238" type="line"/>
      <point x="167" y="252" type="line"/>
      <point x="88" y="428" type="line"/>
      <point x="70" y="421" type="line"/>
      <point x="136" y="249" type="line"/>
      <point x="-5" y="93" type="line"/>
    </contour>
  </outline>
</glyph>
<glyph name="hyphenbullet" format="2">
  <advance width="212"/>
  <unicode hex="2043"/>
  <outline>
    <contour>
      <point x="17" y="255" type="line"/>
      <point x="183" y="255" type="line"/>
      <point x="190" y="286" type="line"/>
      <point x="24" y="286" type="line"/>
    </contour>
  </outline>
</glyph>
<glyph name="bracketleftwithquill" format="2">
  <advance width="320"/>
  <unicode hex="2045"/>
  <outline>
    <contour>
      <point x="82" y="267" type="line"/>
      <point x="242" y="267" type="line"/>
      <point x="247" y="292" type="line"/>
      <point x="87" y="292" type="line"/>
    </contour>
    <component base="bracketleft"/>
  </outline>
</glyph>
<glyph name="bracketrightwithquill" format="2">
  <advance width="282"/>
  <unicode hex="2046"/>
  <outline>
    <contour>
      <point x="26" y="267" type="line"/>
      <point x="186" y="267" type="line"/>
      <point x="191" y="292" type="line"/>
      <point x="31" y="292" type="line"/>
    </contour>
    <component base="bracketright"/>
  </outline>
</glyph>
<glyph name="tironiansignet" format="2">
  <advance width="600"/>
  <unicode hex="204A"/>
  <outline>
    <contour>
      <point x="476" y="0" type="line"/>
      <point x="501" y="0" type="line"/>
      <point x="500" y="527" type="line"/>
      <point x="29" y="527" type="line"/>
      <point x="30" y="502" type="line"/>
      <point x="476" y="502" type="line"/>
    </contour>
  </outline>
</glyph>
<glyph name="blackrightbullet" format="2">
  <advance width="526"/>
  <unicode hex="204D"/>
  <outline>
    <contour>
      <point x="80" y="32" type="line"/>
      <point x="255" y="32" type="line" smooth="yes"/>
      <point x="397" y="32"/>
      <point x="458" y="119"/>
      <point x="458" y="275" type="curve" smooth="yes"/>
      <point x="458" y="442"/>
      <point x="392" y="526"/>
      <point x="238" y="526" type="curve" smooth="yes"/>
      <point x="80" y="526" type="line" smooth="yes"/>
    </contour>
    <contour>
      <point x="121" y="67" type="line"/>
      <point x="121" y="491" type="line"/>
      <point x="237" y="491" type="line"/>
      <point x="237" y="67" type="line"/>
    </contour>
  </outline>
</glyph>
<glyph name="sevensuperior" format="2">
  <advance width="264"/>
  <unicode hex="2077"/>
  <outline>
    <contour>
      <point x="98" y="416" type="line"/>
      <point x="125" y="416" type="line"/>
      <point x="321" y="819" type="line"/>
      <point x="326" y="844" type="line"/>
      <point x="140" y="844" type="line"/>
      <point x="134" y="819" type="line"/>
      <point x="295" y="819" type="line"/>
    </contour>
  </outline>
</glyph>
<glyph name="plussuperior" format="2">
  <advance width="224"/>
  <unicode hex="207A"/>
  <outline>
    <contour>
      <point x="164" y="468" type="line"/>
      <point x="189" y="468" type="line"/>
      <point x="189" y="556" type="line"/>
      <point x="267" y="556" type="line"/>
      <point x="267" y="581" type="line"/>
      <point x="189" y="581" type="line"/>
      <point x="189" y="669" type="line"/>
      <point x="164" y="669" type="line"/>
      <point x="164" y="581" type="line"/>
      <point x="86" y="581" type="line"/>
      <point x="86" y="556" type="line"/>
      <point x="164" y="556" type="line"/>
    </contour>
  </outline>
</glyph>
<glyph name="minussuperior" format="2">
  <advance width="224"/>
  <unicode hex="207B"/>
  <outline>
    <contour>
      <point x="86" y="556" type="line"/>
      <point x="267" y="556" type="line"/>
      <point x="267" y="581" type="line"/>
      <point x="86" y="581" type="line"/>
    </contour>
  </outline>
</glyph>
<glyph name="equalsuperior" format="2">
  <advance width="224"/>
  <unicode hex="207C"/>
  <outline>
    <contour>
      <point x="89" y="612" type="line"/>
      <point x="261" y="612" type="line"/>
      <point x="261" y="637" type="line"/>
      <point x="89" y="637" type="line"/>
    </contour>
    <contour>
      <point x="89" y="488" type="line"/>
      <point x="261" y="488" type="line"/>
      <point x="261" y="513" type="line"/>
      <point x="89" y="513" type="line"/>
    </contour>
  </outline>
</glyph>
<glyph name="parenleftsuperior" format="2">
  <advance width="161"/>
  <unicode hex="207D"/>
  <outline>
    <contour>
      <point x="100" y="244" type="curve"/>
      <point x="123" y="244" type="line"/>
      <point x="106" y="284"/>
      <point x="96" y="344"/>
      <point x="96" y="393" type="curve" smooth="yes"/>
      <point x="96" y="517"/>
      <point x="146" y="651"/>
      <point x="233" y="761" type="curve"/>
      <point x="210" y="761" type="line"/>
      <point x="120" y="663"/>
      <point x="69" y="523"/>
      <point x="69" y="391" type="curve" smooth="yes"/>
      <point x="69" y="343"/>
      <point x="81" y="283"/>
    </contour>
  </outline>
</glyph>
<glyph name="parenrightsuperior" format="2">
  <advance width="161"/>
  <unicode hex="207E"/>
  <outline>
    <contour>
      <point x="29" y="244" type="curve"/>
      <point x="52" y="244" type="line"/>
      <point x="142" y="342"/>
      <point x="193" y="482"/>
      <point x="193" y="614" type="curve" smooth="yes"/>
      <point x="193" y="662"/>
      <point x="181" y="722"/>
      <point x="162" y="761" type="curve"/>
      <point x="139" y="761" type="line"/>
      <point x="156" y="721"/>
      <point x="166" y="661"/>
      <point x="166" y="612" type="curve" smooth="yes"/>
      <point x="166" y="488"/>
      <point x="116" y="354"/>
    </contour>
  </outline>
</glyph>
<glyph name="uni20A9" format="2">
  <advance width="597"/>
  <unicode hex="20A9"/>
  <outline>
    <contour>
      <point x="87" y="0" type="line"/>
      <point x="125" y="0" type="line"/>
      <point x="228" y="265" type="line"/>
      <point x="365" y="265" type="line"/>
      <point x="356" y="0" type="line"/>
      <point x="395" y="0" type="line"/>
      <point x="502" y="265" type="line"/>
      <point x="597" y="265" type="line"/>
      <point x="603" y="290" type="line"/>
      <point x="512" y="290" type="line"/>
      <point x="565" y="422" type="line"/>
      <point x="630" y="422" type="line"/>
      <point x="636" y="447" type="line"/>
      <point x="575" y="447" type="line"/>
      <point x="683" y="714" type="line"/>
      <point x="654" y="714" type="line"/>
      <point x="548" y="447" type="line"/>
      <point x="396" y="447" type="line"/>
      <point x="405" y="714" type="line"/>
      <point x="379" y="714" type="line"/>
      <point x="274" y="447" type="line"/>
      <point x="119" y="447" type="line"/>
      <point x="123" y="714" type="line"/>
      <point x="97" y="714" type="line"/>
      <point x="93" y="447" type="line"/>
      <point x="37" y="447" type="line"/>
      <point x="31" y="422" type="line"/>
      <point x="93" y="422" type="line"/>
      <point x="91" y="290" type="line"/>
      <point x="4" y="290" type="line"/>
      <point x="-2" y="265" type="line"/>
      <point x="91" y="265" type="line"/>
    </contour>
    <contour>
      <point x="111" y="28" type="line"/>
      <point x="116" y="265" type="line"/>
      <point x="202" y="265" type="line"/>
    </contour>
    <contour>
      <point x="116" y="290" type="line"/>
      <point x="118" y="422" type="line"/>
      <point x="264" y="422" type="line"/>
      <point x="212" y="290" type="line"/>
    </contour>
    <contour>
      <point x="380" y="24" type="line"/>
      <point x="390" y="265" type="line"/>
      <point x="475" y="265" type="line"/>
    </contour>
    <contour>
      <point x="238" y="290" type="line"/>
      <point x="290" y="422" type="line"/>
      <point x="370" y="422" type="line"/>
      <point x="366" y="290" type="line"/>
    </contour>
    <contour>
      <point x="391" y="290" type="line"/>
      <point x="395" y="422" type="line"/>
      <point x="538" y="422" type="line"/>
      <point x="485" y="290" type="line"/>
    </contour>
    <contour>
      <point x="300" y="447" type="line"/>
      <point x="380" y="659" type="line"/>
      <point x="371" y="447" type="line"/>
    </contour>
  </outline>
</glyph>
<glyph name="uni20AD" format="2">
  <advance width="332"/>
  <unicode hex="20AD"/>
  <anchor x="117" y="0" name="bottom"/>
  <anchor x="269" y="714" name="top"/>
  <anchor x="422" y="714" name="topright"/>
  <outline>
    <contour>
      <point x="16" y="340" type="line"/>
      <point x="299" y="340" type="line"/>
      <point x="304" y="365" type="line"/>
      <point x="21" y="365" type="line"/>
    </contour>
    <contour>
      <point x="2" y="0" type="line"/>
      <point x="28" y="0" type="line"/>
      <point x="88" y="282" type="line"/>
      <point x="165" y="377" type="line"/>
      <point x="249" y="0" type="line"/>
      <point x="278" y="0" type="line"/>
      <point x="186" y="400" type="line"/>
      <point x="418" y="714" type="line"/>
      <point x="386" y="714" type="line"/>
      <point x="165" y="414" type="line"/>
      <point x="96" y="318" type="line"/>
      <point x="180" y="714" type="line"/>
      <point x="154" y="714" type="line"/>
    </contour>
  </outline>
</glyph>
<glyph name="uni20B1" format="2">
  <advance width="358"/>
  <unicode hex="20B1"/>
  <outline>
    <contour>
      <point x="3" y="0" type="line"/>
      <point x="29" y="0" type="line"/>
      <point x="94" y="306" type="line"/>
      <point x="142" y="306" type="line" smooth="yes"/>
      <point x="237" y="306"/>
      <point x="304" y="354"/>
      <point x="339" y="431" type="curve"/>
      <point x="397" y="431" type="line"/>
      <point x="403" y="456" type="line"/>
      <point x="349" y="456" type="line"/>
      <point x="360" y="489"/>
      <point x="366" y="526"/>
      <point x="366" y="567" type="curve"/>
      <point x="427" y="567" type="line"/>
      <point x="433" y="592" type="line"/>
      <point x="365" y="592" type="line"/>
      <point x="357" y="670"/>
      <point x="309" y="714"/>
      <point x="219" y="714" type="curve" smooth="yes"/>
      <point x="154" y="714" type="line"/>
      <point x="128" y="592" type="line"/>
      <point x="70" y="592" type="line"/>
      <point x="64" y="567" type="line"/>
      <point x="123" y="567" type="line"/>
      <point x="99" y="456" type="line"/>
      <point x="40" y="456" type="line"/>
      <point x="34" y="431" type="line"/>
      <point x="94" y="431" type="line"/>
    </contour>
    <contour>
      <point x="99" y="331" type="line"/>
      <point x="121" y="431" type="line"/>
      <point x="310" y="431" type="line"/>
      <point x="280" y="370"/>
      <point x="225" y="331"/>
      <point x="140" y="331" type="curve" smooth="yes"/>
    </contour>
    <contour>
      <point x="126" y="456" type="line"/>
      <point x="150" y="567" type="line"/>
      <point x="338" y="567" type="line"/>
      <point x="338" y="527"/>
      <point x="332" y="489"/>
      <point x="321" y="456" type="curve"/>
    </contour>
    <contour>
      <point x="155" y="592" type="line"/>
      <point x="176" y="689" type="line"/>
      <point x="216" y="689" type="line" smooth="yes"/>
      <point x="296" y="689"/>
      <point x="330" y="652"/>
      <point x="337" y="592" type="curve"/>
    </contour>
  </outline>
</glyph>
<glyph name="uni20B3" format="2">
  <advance width="344"/>
  <unicode hex="20B3"/>
  <outline>
    <contour>
      <point x="-55" y="0" type="line"/>
      <point x="-27" y="0" type="line"/>
      <point x="88" y="270" type="line"/>
      <point x="259" y="270" type="line"/>
      <point x="258" y="0" type="line"/>
      <point x="284" y="0" type="line"/>
      <point x="284" y="270" type="line"/>
      <point x="345" y="270" type="line"/>
      <point x="351" y="295" type="line"/>
      <point x="284" y="295" type="line"/>
      <point x="284" y="415" type="line"/>
      <point x="374" y="415" type="line"/>
      <point x="380" y="440" type="line"/>
      <point x="284" y="440" type="line"/>
      <point x="284" y="714" type="line"/>
      <point x="249" y="714" type="line"/>
      <point x="132" y="440" type="line"/>
      <point x="37" y="440" type="line"/>
      <point x="31" y="415" type="line"/>
      <point x="122" y="415" type="line"/>
      <point x="71" y="295" type="line"/>
      <point x="8" y="295" type="line"/>
      <point x="2" y="270" type="line"/>
      <point x="60" y="270" type="line"/>
    </contour>
    <contour>
      <point x="98" y="295" type="line"/>
      <point x="149" y="415" type="line"/>
      <point x="259" y="415" type="line"/>
      <point x="259" y="295" type="line"/>
    </contour>
    <contour>
      <point x="160" y="440" type="line"/>
      <point x="232" y="612"/>
      <point x="249" y="652"/>
      <point x="261" y="686" type="curve"/>
      <point x="259" y="649"/>
      <point x="260" y="610"/>
      <point x="259" y="440" type="curve"/>
    </contour>
  </outline>
</glyph>
<glyph name="uni20B5" format="2">
  <advance width="339"/>
  <unicode hex="20B5"/>
  <outline>
    <contour>
      <point x="143" y="-58" type="line"/>
      <point x="169" y="-58" type="line"/>
      <point x="179" y="-10" type="line"/>
      <point x="210" y="-10"/>
      <point x="232" y="-5"/>
      <point x="258" y="4" type="curve"/>
      <point x="258" y="31" type="line"/>
      <point x="230" y="21"/>
      <point x="208" y="15"/>
      <point x="185" y="15" type="curve"/>
      <point x="330" y="700" type="line"/>
      <point x="363" y="700"/>
      <point x="387" y="690"/>
      <point x="400" y="678" type="curve"/>
      <point x="416" y="700" type="line"/>
      <point x="401" y="713"/>
      <point x="375" y="724"/>
      <point x="336" y="725" type="curve"/>
      <point x="343" y="760" type="line"/>
      <point x="317" y="760" type="line"/>
      <point x="309" y="724" type="line"/>
      <point x="119" y="703"/>
      <point x="37" y="391"/>
      <point x="37" y="224" type="curve" smooth="yes"/>
      <point x="37" y="72"/>
      <point x="79" y="2"/>
      <point x="154" y="-9" type="curve"/>
    </contour>
    <contour>
      <point x="159" y="17" type="line"/>
      <point x="96" y="28"/>
      <point x="64" y="91"/>
      <point x="64" y="224" type="curve" smooth="yes"/>
      <point x="64" y="387"/>
      <point x="144" y="672"/>
      <point x="304" y="698" type="curve"/>
    </contour>
  </outline>
</glyph>
<glyph name="lbbarsymbol" format="2">
  <advance width="554"/>
  <unicode hex="2114"/>
  <anchor x="18" y="0" name="bottom"/>
  <anchor x="74" y="263" name="center"/>
  <anchor x="180" y="760" name="top"/>
  <anchor x="234" y="760" name="topright"/>
  <outline>
    <contour>
      <point x="287" y="-10" type="curve" smooth="yes"/>
      <point x="438" y="-10"/>
      <point x="501" y="263"/>
      <point x="501" y="410" type="curve" smooth="yes"/>
      <point x="501" y="501"/>
      <point x="471" y="544"/>
      <point x="407" y="544" type="curve" smooth="yes"/>
      <point x="360" y="544"/>
      <point x="313" y="508"/>
      <point x="280" y="446" type="curve"/>
      <point x="278" y="446" type="line"/>
      <point x="281" y="455"/>
      <point x="283" y="465"/>
      <point x="286" y="477" type="curve" smooth="yes"/>
      <point x="347" y="760" type="line"/>
      <point x="322" y="760" type="line"/>
      <point x="162" y="0" type="line"/>
      <point x="181" y="0" type="line"/>
      <point x="201" y="65" type="line"/>
      <point x="204" y="65" type="line"/>
      <point x="210" y="20"/>
      <point x="243" y="-10"/>
    </contour>
    <contour>
      <point x="295" y="15" type="curve" smooth="yes"/>
      <point x="246" y="15"/>
      <point x="222" y="48"/>
      <point x="222" y="114" type="curve" smooth="yes"/>
      <point x="222" y="284"/>
      <point x="294" y="521"/>
      <point x="412" y="521" type="curve" smooth="yes"/>
      <point x="460" y="521"/>
      <point x="476" y="487"/>
      <point x="476" y="423" type="curve" smooth="yes"/>
      <point x="476" y="262"/>
      <point x="410" y="15"/>
    </contour>
    <contour>
      <point x="80" y="633" type="line"/>
      <point x="426" y="633" type="line"/>
      <point x="431" y="661" type="line"/>
      <point x="85" y="661" type="line"/>
    </contour>
    <component base="l"/>
  </outline>
</glyph>
<glyph name="response" format="2">
  <advance width="357"/>
  <unicode hex="211F"/>
  <anchor x="123" y="0" name="bottom"/>
  <anchor x="275" y="714" name="top"/>
  <anchor x="433" y="714" name="topright"/>
  <outline>
    <contour>
      <point x="20" y="-145" type="line"/>
      <point x="46" y="-145" type="line"/>
      <point x="345" y="804" type="line"/>
      <point x="152" y="859" type="line"/>
      <point x="145" y="837" type="line"/>
      <point x="316" y="789" type="line"/>
    </contour>
    <component base="R"/>
  </outline>
</glyph>
<glyph name="versicle" format="2">
  <advance width="344"/>
  <unicode hex="2123"/>
  <anchor x="116" y="0" name="bottom"/>
  <anchor x="268" y="714" name="top"/>
  <anchor x="420" y="714" name="topright"/>
  <outline>
    <contour>
      <point x="11" y="-145" type="line"/>
      <point x="37" y="-145" type="line"/>
      <point x="336" y="804" type="line"/>
      <point x="143" y="859" type="line"/>
      <point x="136" y="837" type="line"/>
      <point x="307" y="789" type="line"/>
    </contour>
    <component base="V"/>
  </outline>
</glyph>
<glyph name="ZDoubleStruck" format="2">
  <advance width="630"/>
  <unicode hex="2124"/>
  <outline>
    <contour>
      <point x="13" y="0" type="line"/>
      <point x="556" y="0" type="line"/>
      <point x="556" y="53" type="line"/>
      <point x="207" y="53" type="line"/>
      <point x="566" y="661" type="line"/>
      <point x="566" y="714" type="line"/>
      <point x="45" y="714" type="line"/>
      <point x="45" y="661" type="line"/>
      <point x="379" y="661" type="line"/>
      <point x="13" y="53" type="line"/>
    </contour>
    <contour>
      <point x="73" y="53" type="line"/>
      <point x="437" y="661" type="line"/>
      <point x="508" y="661" type="line"/>
      <point x="146" y="53" type="line"/>
    </contour>
  </outline>
</glyph>
<glyph name="Escript" format="2">
  <advance width="603"/>
  <unicode hex="2130"/>
  <outline>
    <contour>
      <point x="201" y="-7" type="curve" smooth="yes"/>
      <point x="327" y="-7"/>
      <point x="445" y="87"/>
      <point x="445" y="208" type="curve" smooth="yes"/>
      <point x="445" y="236"/>
      <point x="435" y="302"/>
      <point x="362" y="302" type="curve" smooth="yes"/>
      <point x="282" y="302"/>
      <point x="222" y="235"/>
      <point x="222" y="156" type="curve" smooth="yes"/>
      <point x="222" y="132"/>
      <point x="223" y="108"/>
      <point x="228" y="84" type="curve"/>
      <point x="246" y="88" type="line"/>
      <point x="233" y="193"/>
      <point x="305" y="284"/>
      <point x="364" y="284" type="curve" smooth="yes"/>
      <point x="400" y="284"/>
      <point x="427" y="257"/>
      <point x="427" y="208" type="curve" smooth="yes"/>
      <point x="427" y="100"/>
      <point x="315" y="11"/>
      <point x="209" y="11" type="curve" smooth="yes"/>
      <point x="181" y="11"/>
      <point x="98" y="9"/>
      <point x="98" y="135" type="curve" smooth="yes"/>
      <point x="98" y="259"/>
      <point x="185" y="387"/>
      <point x="279" y="415" type="curve"/>
      <point x="307" y="387"/>
      <point x="350" y="374"/>
      <point x="376" y="374" type="curve" smooth="yes"/>
      <point x="378" y="374"/>
      <point x="421" y="371"/>
      <point x="421" y="400" type="curve" smooth="yes"/>
      <point x="421" y="430"/>
      <point x="359" y="441"/>
      <point x="306" y="443" type="curve"/>
      <point x="302" y="454"/>
      <point x="300" y="466"/>
      <point x="300" y="483" type="curve" smooth="yes"/>
      <point x="300" y="616"/>
      <point x="371" y="701"/>
      <point x="465" y="701" type="curve" smooth="yes"/>
      <point x="504" y="701"/>
      <point x="564" y="672"/>
      <point x="564" y="584" type="curve" smooth="yes"/>
      <point x="564" y="516"/>
      <point x="526" y="478"/>
      <point x="481" y="478" type="curve" smooth="yes"/>
      <point x="476" y="478"/>
      <point x="436" y="477"/>
      <point x="436" y="531" type="curve" smooth="yes"/>
      <point x="436" y="585"/>
      <point x="496" y="627"/>
      <point x="494" y="627" type="curve"/>
      <point x="489" y="637" type="line"/>
      <point x="429" y="613"/>
      <point x="409" y="569"/>
      <point x="409" y="530" type="curve" smooth="yes"/>
      <point x="409" y="491"/>
      <point x="434" y="460"/>
      <point x="479" y="460" type="curve" smooth="yes"/>
      <point x="553" y="460"/>
      <point x="588" y="535"/>
      <point x="588" y="582" type="curve" smooth="yes"/>
      <point x="588" y="636"/>
      <point x="560" y="728"/>
      <point x="433" y="728" type="curve" smooth="yes"/>
      <point x="306" y="728"/>
      <point x="215" y="640"/>
      <point x="210" y="557" type="curve" smooth="yes"/>
      <point x="206" y="497"/>
      <point x="235" y="457"/>
      <point x="252" y="440" type="curve"/>
      <point x="118" y="421"/>
      <point x="3" y="318"/>
      <point x="3" y="196" type="curve" smooth="yes"/>
      <point x="3" y="78"/>
      <point x="79" y="-7"/>
    </contour>
    <contour>
      <point x="371" y="390" type="curve" smooth="yes"/>
      <point x="356" y="392"/>
      <point x="331" y="402"/>
      <point x="316" y="423" type="curve"/>
      <point x="326" y="425"/>
      <point x="343" y="424"/>
      <point x="355" y="422" type="curve" smooth="yes"/>
      <point x="370" y="420"/>
      <point x="403" y="411"/>
      <point x="403" y="400" type="curve" smooth="yes"/>
      <point x="403" y="389"/>
      <point x="385" y="388"/>
    </contour>
  </outline>
</glyph>
<glyph name="daletsymbol" format="2">
  <advance width="361"/>
  <unicode hex="2138"/>
  <outline>
    <contour>
      <point x="251" y="0" type="line"/>
      <point x="279" y="0" type="line"/>
      <point x="279" y="555" type="line"/>
      <point x="344" y="555" type="line"/>
      <point x="344" y="580" type="line"/>
      <point x="2" y="580" type="line"/>
      <point x="2" y="555" type="line"/>
      <point x="251" y="555" type="line"/>
    </contour>
  </outline>
</glyph>
<glyph name="GammaDoubleStruck" format="2">
  <advance width="552"/>
  <unicode hex="213E"/>
  <outline>
    <contour>
      <point x="72" y="0" type="line"/>
      <point x="245" y="0" type="line"/>
      <point x="245" y="661" type="line"/>
      <point x="512" y="661" type="line"/>
      <point x="512" y="714" type="line"/>
      <point x="72" y="714" type="line"/>
    </contour>
    <contour>
      <point x="125" y="53" type="line"/>
      <point x="125" y="661" type="line"/>
      <point x="192" y="661" type="line"/>
      <point x="192" y="53" type="line"/>
    </contour>
  </outline>
</glyph>
<glyph name="PiDoubleStruck" format="2">
  <advance width="777"/>
  <unicode hex="213F"/>
  <outline>
    <contour>
      <point x="72" y="0" type="line"/>
      <point x="245" y="0" type="line"/>
      <point x="245" y="661" type="line"/>
      <point x="482" y="661" type="line"/>
      <point x="482" y="0" type="line"/>
      <point x="655" y="0" type="line"/>
      <point x="655" y="714" type="line"/>
      <point x="72" y="714" type="line"/>
    </contour>
    <contour>
      <point x="125" y="53" type="line"/>
      <point x="125" y="661" type="line"/>
      <point x="192" y="661" type="line"/>
      <point x="192" y="53" type="line"/>
    </contour>
    <contour>
      <point x="535" y="53" type="line"/>
      <point x="535" y="661" type="line"/>
      <point x="602" y="661" type="line"/>
      <point x="602" y="53" type="line"/>
    </contour>
  </outline>
</glyph>
<glyph name="reversedSansSerifL" format="2">
  <advance width="288"/>
  <unicode hex="2143"/>
  <outline>
    <contour>
      <point x="-26" y="0" type="line"/>
      <point x="174" y="0" type="line"/>
      <point x="325" y="714" type="line"/>
      <point x="299" y="714" type="line"/>
      <point x="154" y="25" type="line"/>
      <point x="-20" y="25" type="line"/>
    </contour>
  </outline>
</glyph>
<glyph name="ItalicDDoubleStruck" format="2">
  <advance width="730"/>
  <unicode hex="2145"/>
  <outline>
    <contour>
      <point x="11" y="0" type="line"/>
      <point x="271" y="0" type="line" smooth="yes"/>
      <point x="541" y="0"/>
      <point x="690" y="181"/>
      <point x="690" y="429" type="curve" smooth="yes"/>
      <point x="690" y="622"/>
      <point x="587" y="714"/>
      <point x="415" y="714" type="curve" smooth="yes"/>
      <point x="162" y="714" type="line"/>
    </contour>
    <contour>
      <point x="75" y="53" type="line"/>
      <point x="204" y="661" type="line"/>
      <point x="271" y="661" type="line"/>
      <point x="142" y="53" type="line"/>
    </contour>
    <contour>
      <point x="195" y="53" type="line"/>
      <point x="324" y="661" type="line"/>
      <point x="430" y="661" type="line" smooth="yes"/>
      <point x="481" y="661"/>
      <point x="522" y="649"/>
      <point x="554" y="626" type="curve"/>
      <point x="441" y="87" type="line"/>
      <point x="395" y="65"/>
      <point x="340" y="53"/>
      <point x="279" y="53" type="curve" smooth="yes"/>
    </contour>
    <contour>
      <point x="501" y="125" type="curve"/>
      <point x="595" y="582" type="line"/>
      <point x="620" y="544"/>
      <point x="632" y="492"/>
      <point x="632" y="430" type="curve" smooth="yes"/>
      <point x="632" y="304"/>
      <point x="587" y="193"/>
    </contour>
  </outline>
</glyph>
<glyph name="uni214E" format="2">
  <advance width="243"/>
  <unicode hex="214E"/>
  <outline>
    <contour>
      <point x="-54" y="0" type="line"/>
      <point x="115" y="0" type="line"/>
      <point x="229" y="524" type="line"/>
      <point x="203" y="524" type="line"/>
      <point x="151" y="285" type="line"/>
      <point x="15" y="285" type="line"/>
      <point x="10" y="260" type="line"/>
      <point x="145" y="260" type="line"/>
      <point x="94" y="25" type="line"/>
      <point x="-50" y="25" type="line"/>
    </contour>
  </outline>
</glyph>
<glyph name="uni2C60" format="2">
  <advance width="296"/>
  <unicode hex="2C60"/>
  <anchor x="92" y="0" name="bottom"/>
  <anchor x="244" y="714" name="top"/>
  <outline>
    <contour>
      <point x="3" y="0" type="line"/>
      <point x="216" y="0" type="line"/>
      <point x="221" y="25" type="line"/>
      <point x="33" y="25" type="line"/>
      <point x="88" y="282" type="line"/>
      <point x="218" y="282" type="line"/>
      <point x="224" y="307" type="line"/>
      <point x="93" y="307" type="line"/>
      <point x="117" y="420" type="line"/>
      <point x="248" y="420" type="line"/>
      <point x="254" y="445" type="line"/>
      <point x="123" y="445" type="line"/>
      <point x="180" y="714" type="line"/>
      <point x="154" y="714" type="line"/>
      <point x="97" y="445" type="line"/>
      <point x="37" y="445" type="line"/>
      <point x="31" y="420" type="line"/>
      <point x="91" y="420" type="line"/>
      <point x="67" y="307" type="line"/>
      <point x="8" y="307" type="line"/>
      <point x="2" y="282" type="line"/>
      <point x="62" y="282" type="line"/>
    </contour>
  </outline>
</glyph>
<glyph name="uni2C65" format="2">
  <advance width="379"/>
  <unicode hex="2C65"/>
  <anchor x="90" y="-208" name="bottom"/>
  <anchor x="296" y="760" name="top"/>
  <anchor x="415" y="526" name="topright"/>
  <outline>
    <contour>
      <point x="-20" y="-208" type="line"/>
      <point x="8" y="-208" type="line"/>
      <point x="404" y="760" type="line"/>
      <point x="376" y="760" type="line"/>
    </contour>
    <component base="a"/>
  </outline>
</glyph>
<glyph name="uni2C66" format="2">
  <advance width="181"/>
  <unicode hex="2C66"/>
  <anchor x="-9" y="-208" name="bottom"/>
  <anchor x="196" y="760" name="top"/>
  <anchor x="91" y="263" name="center"/>
  <anchor x="237" y="655" name="topright"/>
  <outline>
    <contour>
      <point x="-43" y="-208" type="line"/>
      <point x="-18" y="-208" type="line"/>
      <point x="258" y="760" type="line"/>
      <point x="232" y="760" type="line" smooth="yes"/>
    </contour>
    <component base="t"/>
  </outline>
</glyph>
<glyph name="uni2C69" format="2">
  <advance width="399"/>
  <unicode hex="2C69"/>
  <anchor x="80" y="-172" name="bottom"/>
  <anchor x="269" y="714" name="top"/>
  <outline>
    <contour>
      <point x="248" y="-172" type="line"/>
      <point x="274" y="-172" type="line"/>
      <point x="318" y="25" type="line"/>
      <point x="272" y="25" type="line"/>
      <point x="186" y="400" type="line"/>
      <point x="418" y="714" type="line"/>
      <point x="386" y="714" type="line"/>
      <point x="165" y="414" type="line"/>
      <point x="96" y="318" type="line"/>
      <point x="180" y="714" type="line"/>
      <point x="154" y="714" type="line"/>
      <point x="2" y="0" type="line"/>
      <point x="28" y="0" type="line"/>
      <point x="88" y="282" type="line"/>
      <point x="165" y="377" type="line"/>
      <point x="249" y="0" type="line"/>
      <point x="286" y="0" type="line"/>
    </contour>
  </outline>
</glyph>
<glyph name="uni2DF5" format="2">
  <unicode hex="2DF5"/>
  <anchor x="56" y="526" name="_top"/>
  <anchor x="119" y="830" name="top"/>
  <anchor x="229" y="830" name="topright"/>
  <outline>
    <contour>
      <point x="32" y="616" type="curve" smooth="yes"/>
      <point x="44" y="616"/>
      <point x="54" y="619"/>
      <point x="61" y="622" type="curve"/>
      <point x="61" y="632" type="line"/>
      <point x="53" y="628"/>
      <point x="43" y="626"/>
      <point x="32" y="626" type="curve" smooth="yes"/>
      <point x="7" y="626"/>
      <point x="-6" y="640"/>
      <point x="-6" y="680" type="curve" smooth="yes"/>
      <point x="-6" y="738"/>
      <point x="24" y="820"/>
      <point x="76" y="820" type="curve" smooth="yes"/>
      <point x="146" y="820" type="line"/>
      <point x="97" y="620" type="line"/>
      <point x="109" y="620" type="line"/>
      <point x="157" y="820" type="line"/>
      <point x="213" y="820" type="line"/>
      <point x="215" y="830" type="line"/>
      <point x="76" y="830" type="line" smooth="yes"/>
      <point x="13" y="830"/>
      <point x="-18" y="739"/>
      <point x="-18" y="679" type="curve" smooth="yes"/>
      <point x="-18" y="633"/>
      <point x="-1" y="616"/>
    </contour>
  </outline>
</glyph>
<glyph name="forkedparagraphos" format="2">
  <advance width="1000"/>
  <unicode hex="2E10"/>
  <outline>
    <contour>
      <point x="21" y="-308" type="line"/>
      <point x="347" y="-141" type="line"/>
      <point x="1000" y="-141" type="line"/>
      <point x="1000" y="-103" type="line"/>
      <point x="0" y="-103" type="line"/>
      <point x="0" y="-141" type="line"/>
      <point x="265" y="-141" type="line"/>
      <point x="3" y="-271" type="line"/>
    </contour>
  </outline>
</glyph>
<glyph name="reversedforkedparagraphos" format="2">
  <advance width="1000"/>
  <unicode hex="2E11"/>
  <outline>
    <contour>
      <point x="979" y="-308" type="line"/>
      <point x="997" y="-271" type="line"/>
      <point x="735" y="-141" type="line"/>
      <point x="1000" y="-141" type="line"/>
      <point x="1000" y="-103" type="line"/>
      <point x="0" y="-103" type="line"/>
      <point x="0" y="-141" type="line"/>
      <point x="653" y="-141" type="line"/>
    </contour>
  </outline>
</glyph>
<glyph name="leftlowparaphrasebracket" format="2">
  <advance width="500"/>
  <unicode hex="2E1C"/>
  <outline>
    <contour>
      <point x="412" y="-82" type="line"/>
      <point x="434" y="-58" type="line"/>
      <point x="89" y="289" type="line"/>
      <point x="65" y="265" type="line"/>
    </contour>
  </outline>
</glyph>
<glyph name="tildedotabove" format="2">
  <advance width="384"/>
  <unicode hex="2E1E"/>
  <outline>
    <contour>
      <point x="238" y="451" type="curve" smooth="yes"/>
      <point x="254" y="451"/>
      <point x="261" y="467"/>
      <point x="261" y="483" type="curve" smooth="yes"/>
      <point x="261" y="499"/>
      <point x="254" y="516"/>
      <point x="238" y="516" type="curve" smooth="yes"/>
      <point x="220" y="516"/>
      <point x="213" y="501"/>
      <point x="213" y="483" type="curve" smooth="yes"/>
      <point x="213" y="463"/>
      <point x="220" y="451"/>
    </contour>
    <component base="asciitilde" xOffset="14"/>
  </outline>
</glyph>
<glyph name="tildedotbelow" format="2">
  <advance width="384"/>
  <unicode hex="2E1F"/>
  <outline>
    <contour>
      <point x="236" y="192" type="curve" smooth="yes"/>
      <point x="252" y="192"/>
      <point x="259" y="208"/>
      <point x="259" y="224" type="curve" smooth="yes"/>
      <point x="259" y="240"/>
      <point x="252" y="257"/>
      <point x="236" y="257" type="curve" smooth="yes"/>
      <point x="218" y="257"/>
      <point x="211" y="242"/>
      <point x="211" y="224" type="curve" smooth="yes"/>
      <point x="211" y="204"/>
      <point x="218" y="192"/>
    </contour>
    <component base="asciitilde" xOffset="14"/>
  </outline>
</glyph>
<glyph name="rightverticalbarwithquill" format="2">
  <advance width="551"/>
  <unicode hex="2E21"/>
  <outline>
    <contour>
      <point x="349" y="-241" type="line"/>
      <point x="382" y="-241" type="line"/>
      <point x="382" y="760" type="line"/>
      <point x="349" y="760" type="line"/>
      <point x="349" y="275" type="line"/>
      <point x="181" y="275" type="line"/>
      <point x="181" y="244" type="line"/>
      <point x="349" y="244" type="line"/>
    </contour>
  </outline>
</glyph>
<glyph name="twodotsoveronedotpunctuation" format="2">
  <advance width="773"/>
  <unicode hex="2E2A"/>
  <outline>
    <contour>
      <point x="386" y="-7" type="curve" smooth="yes"/>
      <point x="407" y="-7"/>
      <point x="414" y="7"/>
      <point x="414" y="32" type="curve" smooth="yes"/>
      <point x="414" y="57"/>
      <point x="407" y="72"/>
      <point x="386" y="72" type="curve" smooth="yes"/>
      <point x="365" y="72"/>
      <point x="358" y="57"/>
      <point x="358" y="32" type="curve" smooth="yes"/>
      <point x="358" y="7"/>
      <point x="365" y="-7"/>
    </contour>
    <contour>
      <point x="77" y="642" type="curve" smooth="yes"/>
      <point x="99" y="642"/>
      <point x="106" y="656"/>
      <point x="106" y="682" type="curve" smooth="yes"/>
      <point x="106" y="707"/>
      <point x="99" y="722"/>
      <point x="77" y="722" type="curve" smooth="yes"/>
      <point x="57" y="722"/>
      <point x="50" y="707"/>
      <point x="50" y="682" type="curve" smooth="yes"/>
      <point x="50" y="656"/>
      <point x="57" y="642"/>
    </contour>
    <contour>
      <point x="692" y="642" type="curve" smooth="yes"/>
      <point x="714" y="642"/>
      <point x="721" y="656"/>
      <point x="721" y="682" type="curve" smooth="yes"/>
      <point x="721" y="707"/>
      <point x="714" y="722"/>
      <point x="692" y="722" type="curve" smooth="yes"/>
      <point x="672" y="722"/>
      <point x="665" y="707"/>
      <point x="665" y="682" type="curve" smooth="yes"/>
      <point x="665" y="656"/>
      <point x="672" y="642"/>
    </contour>
  </outline>
</glyph>
<glyph name="threeemdash" format="2">
  <advance width="2526"/>
  <unicode hex="2E3B"/>
  <outline>
    <contour>
      <point x="34" y="259" type="line"/>
      <point x="2484" y="259" type="line"/>
      <point x="2489" y="284" type="line"/>
      <point x="38" y="284" type="line"/>
    </contour>
  </outline>
</glyph>
<glyph name="uni2E41" format="2">
  <advance width="170"/>
  <unicode hex="2E41"/>
  <outline>
    <contour>
      <point x="29" y="-128" type="curve"/>
      <point x="45" y="-128" type="line"/>
      <point x="36" y="-68"/>
      <point x="29" y="21"/>
      <point x="37" y="91" type="curve"/>
      <point x="13" y="91" type="line"/>
      <point x="5" y="81" type="line"/>
      <point x="4" y="21"/>
      <point x="14" y="-63"/>
    </contour>
  </outline>
</glyph>
<glyph name="uni2E42" format="2">
  <advance width="269"/>
  <unicode hex="2E42"/>
  <outline>
    <contour>
      <point x="29" y="-128" type="curve"/>
      <point x="45" y="-128" type="line"/>
      <point x="36" y="-68"/>
      <point x="29" y="21"/>
      <point x="37" y="91" type="curve"/>
      <point x="13" y="91" type="line"/>
      <point x="5" y="81" type="line"/>
      <point x="4" y="21"/>
      <point x="14" y="-63"/>
    </contour>
    <contour>
      <point x="129" y="-128" type="curve"/>
      <point x="145" y="-128" type="line"/>
      <point x="136" y="-68"/>
      <point x="129" y="21"/>
      <point x="137" y="91" type="curve"/>
      <point x="113" y="91" type="line"/>
      <point x="105" y="81" type="line"/>
      <point x="104" y="21"/>
      <point x="114" y="-63"/>
    </contour>
  </outline>
</glyph>
<glyph name="uni2E44" format="2">
  <advance width="210"/>
  <unicode hex="2E44"/>
  <outline>
    <contour>
      <point x="125" y="596" type="line"/>
      <point x="268" y="727" type="line"/>
      <point x="248" y="745" type="line"/>
      <point x="113" y="608" type="line"/>
    </contour>
    <contour>
      <point x="-8" y="-33" type="line"/>
      <point x="135" y="98" type="line"/>
      <point x="115" y="116" type="line"/>
      <point x="-20" y="-21" type="line"/>
    </contour>
  </outline>
</glyph>
<glyph name="uniA643" format="2">
  <advance width="230"/>
  <unicode hex="A643"/>
  <outline>
    <contour>
      <point x="48" y="265" type="line"/>
      <point x="193" y="265" type="line"/>
      <point x="198" y="290" type="line"/>
      <point x="53" y="290" type="line"/>
    </contour>
    <component base="uniA641"/>
  </outline>
</glyph>
<glyph name="uniA650" format="2">
  <advance width="593"/>
  <unicode hex="A650"/>
  <anchor x="278" y="0" name="bottom"/>
  <anchor x="430" y="714" name="top"/>
  <outline>
    <contour>
      <point x="85" y="689" type="line"/>
      <point x="217" y="689" type="line"/>
      <point x="246" y="714" type="line"/>
      <point x="90" y="714" type="line"/>
    </contour>
    <component base="afii10045" xOffset="68"/>
  </outline>
</glyph>
<glyph name="uniA651" format="2">
  <advance width="482"/>
  <unicode hex="A651"/>
  <anchor x="205" y="0" name="bottom"/>
  <anchor x="317" y="526" name="top"/>
  <outline>
    <contour>
      <point x="49" y="501" type="line"/>
      <point x="153" y="501" type="line"/>
      <point x="180" y="526" type="line"/>
      <point x="54" y="526" type="line"/>
    </contour>
    <component base="afii10093" xOffset="34"/>
  </outline>
</glyph>
